<?xml version="1.0" encoding="UTF-8"?>
<svg id="Layer_2" data-name="Layer 2" xmlns="http://www.w3.org/2000/svg" viewBox="0 0 398.3 398.29">
  <defs>
    <style>
      .cls-1 {
        fill: #fff;
      }

      .cls-1, .cls-2, .cls-3 {
        stroke-width: 0px;
      }

      .cls-1, .cls-3 {
        fill-rule: evenodd;
      }

      .cls-2, .cls-3 {
        fill: #231f20;
      }
    </style>
  </defs>
  <g id="Layer_1-2" data-name="Layer 1">
    <path class="cls-1" d="M199.15,0c109.98,0,199.15,89.16,199.15,199.15s-89.16,199.14-199.15,199.14S0,309.13,0,199.15,89.16,0,199.15,0"/>
    <path class="cls-3" d="M199.15,55.03c79.6,0,144.12,64.53,144.12,144.12s-64.52,144.12-144.12,144.12S55.03,278.74,55.03,199.15,119.55,55.03,199.15,55.03"/>
    <path class="cls-2" d="M202.16,45.2h1.69c2.06.03,3.43-.37,4.13-1.19.69-.82,1.07-2.42,1.09-4.8l.09-10.39c.02-2.11-.33-3.58-1.15-4.4-.77-.79-2.19-1.21-4.29-1.23h-1.37s-.19,22-.19,22ZM195.67,49.9l.27-31.53,3.2.03,5.31.04c4.03.03,6.95.84,8.63,2.46,1.73,1.62,2.57,4.33,2.54,8.08l-.08,8.83c-.04,4.71-.8,7.96-2.38,9.68-1.52,1.68-4.42,2.53-8.63,2.49l-5.67-.05-3.2-.03Z"/>
    <path class="cls-2" d="M237.6,32.04l.21-.94c.36-1.61.44-2.81.15-3.58-.3-.77-.99-1.25-2.06-1.49-1.07-.24-1.99-.12-2.67.39-.67.46-1.15,1.34-1.42,2.59-.21.94-.08,1.81.43,2.68.48.81,1.39,1.77,2.83,2.84,2.79,2.18,4.65,4.14,5.59,5.8.93,1.71,1.16,3.59.7,5.65-.68,3.04-2.01,5.18-3.96,6.34-1.96,1.2-4.54,1.42-7.76.7-3.48-.78-5.83-2.02-6.99-3.73-1.12-1.7-1.37-4.11-.67-7.23l.07-.31.2-.89,6.21,1.39-.2.89c-.34,1.52-.31,2.65.09,3.54.41.89,1.18,1.43,2.34,1.7,1.16.26,2.09.09,2.81-.4.73-.54,1.23-1.5,1.53-2.85.23-1.03.07-1.95-.44-2.82-.55-.87-1.59-1.91-3.09-3.13-2.68-2.06-4.47-3.92-5.36-5.57-.9-1.61-1.1-3.44-.65-5.45.66-2.95,1.97-5,3.91-6.11,1.94-1.11,4.52-1.33,7.74-.61,3.3.74,5.52,1.94,6.55,3.63.99,1.63,1.15,3.87.49,6.77l-.15.67-.21.94-6.2-1.4Z"/>
    <polygon class="cls-2" points="174.72 51.41 174.72 51.41 172.09 51.8 169.46 52.17 164.97 20.96 169.68 20.28 174.39 19.6 183.52 45.15 179.73 18.83 182.36 18.45 184.99 18.08 189.48 49.29 184.82 49.96 180.11 50.64 170.89 24.82 174.72 51.41"/>
    <polygon class="cls-2" points="149.09 58.16 149.09 58.16 140.17 27.92 155.27 23.46 155.93 25.7 156.61 27.99 147.69 30.61 150.04 38.56 158.64 36.02 159.3 38.26 159.98 40.54 151.37 43.08 153.95 51.81 163.04 49.13 163.7 51.37 164.37 53.65 149.09 58.16"/>
    <path class="cls-2" d="M262.22,58.31h0l1.54.71c1.87.87,3.28,1.07,4.26.62.97-.46,1.98-1.76,2.98-3.92l4.38-9.42c.89-1.91,1.17-3.39.77-4.49-.38-1.03-1.49-2.01-3.4-2.89l-1.25-.58-9.28,19.97ZM254.37,59.9l13.29-28.6,2.9,1.35,4.81,2.24c3.65,1.7,5.98,3.64,6.84,5.81.9,2.18.55,5-1.03,8.4l-3.72,8.01c-1.99,4.28-4.02,6.91-6.17,7.83-2.08.9-5.07.47-8.88-1.3l-5.15-2.39-2.91-1.35Z"/>
    <path class="cls-2" d="M134.79,64.8c-3.29,1.49-5.99,1.64-8.09.54-2.06-1.13-4.11-3.87-6.07-8.21l-3.07-6.8c-1.77-3.92-2.3-7.1-1.59-9.53.69-2.37,2.71-4.34,6.05-5.85,2.92-1.32,5.41-1.59,7.47-.81,2.06.78,3.65,2.62,4.82,5.45l.4.88-5.88,2.66-.4-.88c-.58-1.4-1.3-2.32-2.1-2.77-.78-.5-1.68-.5-2.72-.02-1.21.55-1.84,1.38-1.86,2.55-.04,1.13.46,2.91,1.55,5.33l3.07,6.8c1.41,3.13,2.58,5.06,3.45,5.87.91.79,2.1.86,3.51.22.54-.24,1.35-.81,2.47-1.66l-2.94-6.51-2.71,1.22-1.96-4.34,8.59-3.88,6.55,14.52c-2.75,2.14-5.63,3.89-8.54,5.21"/>
    <polygon class="cls-2" points="288.3 64.42 288.3 64.42 293.67 44.01 296.48 45.99 299.32 47.99 295.1 60.41 295.13 60.38 305.68 52.48 308.3 54.32 310.96 56.19 293.74 67.91 286.8 77.75 284.18 75.9 281.53 74.03 288.3 64.42"/>
    <polygon class="cls-2" points="108.67 80.17 108.67 80.17 90.72 54.23 103.67 45.28 105 47.19 106.36 49.15 98.71 54.44 103.43 61.25 110.81 56.15 112.13 58.07 113.49 60.02 106.11 65.13 111.29 72.62 119.08 67.23 120.41 69.15 121.77 71.1 108.67 80.17"/>
    <polygon class="cls-2" points="299.75 88.63 299.75 88.63 297.81 86.81 295.88 84.99 317.48 62.02 320.94 65.28 324.41 68.54 310.13 91.61 328.35 72.23 330.28 74.05 332.21 75.87 310.62 98.85 307.18 95.62 303.72 92.36 318.14 69.05 299.75 88.63"/>
    <polygon class="cls-2" points="93.72 92.6 93.72 92.6 72.75 69.05 75.14 66.92 77.57 64.76 95.4 84.78 101.52 79.34 103.07 81.08 104.66 82.86 93.72 92.6"/>
    <path class="cls-2" d="M341.25,97.09l-13.11,5.9,2.97,4.29,10.17-10.15-.03-.04ZM313.92,102.64l30-12.07,2.16,3.13,2.16,3.12-21.85,23.85-1.77-2.56-1.8-2.6,4.87-4.87-3.93-5.68-6.3,2.8-1.77-2.56-1.77-2.56Z"/>
    <polygon class="cls-2" points="76.05 114.26 76.05 114.26 74.21 116.88 72.33 119.53 46.56 101.36 48.41 98.74 50.28 96.09 62.14 104.45 54.29 90.4 56.24 87.63 58.22 84.83 65.62 98.39 84.07 102.89 82.04 105.77 80.03 108.61 62.14 104.45 76.05 114.26"/>
    <polygon class="cls-2" points="331.44 128.61 331.44 128.61 330.35 126.19 329.26 123.77 358 110.8 359.87 114.93 361.73 119.06 341.82 133.57 365.86 128.2 367.7 132.29 369.56 136.42 340.82 149.39 339.73 146.97 338.64 144.55 362.79 133.65 336.38 139.55 335.04 136.58 333.72 133.66 355.68 117.68 331.44 128.61"/>
    <path class="cls-2" d="M60.37,118.96l.81.43c3.29,1.7,5.32,3.55,6.03,5.53.75,2,.3,4.51-1.29,7.5-1.69,3.19-3.67,5.05-5.85,5.55-2.21.54-5.13-.18-8.81-2.14l-8.57-4.55c-3.72-1.98-5.96-4-6.75-6.12-.81-2.09-.37-4.76,1.32-7.95,1.48-2.79,3.26-4.49,5.39-5.07,2-.55,4.26-.12,6.85,1.25l.53.28.85.45-3.03,5.7-.85-.45c-1.39-.79-2.59-1.17-3.54-1.15-.88,0-1.57.41-1.99,1.22-.58,1.09-.58,2.07-.01,2.95.59.93,1.79,1.89,3.61,2.85l8.57,4.55c2.43,1.29,4.19,1.97,5.4,2.04,1.17.05,2.06-.46,2.66-1.6.47-.89.41-1.75-.18-2.58-.57-.87-1.68-1.72-3.36-2.56l-.81-.43,3.03-5.7Z"/>
    <polygon class="cls-2" points="342.1 155.07 372.34 146.15 373.25 149.22 374.17 152.34 343.92 161.26 343.01 158.19 342.1 155.07"/>
    <path class="cls-2" d="M358.96,183.64l-.9.15c-3.65.63-6.38.38-8.14-.78-1.81-1.15-2.96-3.42-3.5-6.76-.57-3.57-.12-6.24,1.32-7.95,1.43-1.76,4.21-2.95,8.32-3.61l9.58-1.54c4.16-.67,7.17-.41,9.08.81,1.9,1.18,3.17,3.57,3.74,7.14.5,3.12.1,5.55-1.24,7.29-1.27,1.64-3.32,2.67-6.22,3.13l-.58.09-.95.15-1.02-6.37.95-.15c1.59-.21,2.77-.63,3.51-1.21.7-.53,1-1.28.86-2.18-.2-1.22-.79-2.01-1.77-2.36-1.03-.39-2.57-.42-4.6-.1l-9.58,1.54c-2.71.43-4.53.96-5.53,1.63-.96.66-1.36,1.61-1.16,2.88.16.99.73,1.64,1.71,1.95.98.35,2.37.36,4.22.02l.9-.15,1.02,6.37Z"/>
    <path class="cls-2" d="M31.72,147.44l12.66,6.82,1.6-4.97-14.25-1.89-.02.04ZM52.75,165.75l-27.83-16.46,1.17-3.62,1.16-3.62,32.22,2.83-.95,2.96-.97,3.01-6.82-.9-2.12,6.58,6.05,3.29-.96,2.96-.95,2.96Z"/>
    <polygon class="cls-2" points="50.18 184 50.18 184 18.97 179.51 19.42 176.34 19.89 173.13 46.43 176.95 47.6 168.84 49.91 169.17 52.26 169.51 50.18 184"/>
    <path class="cls-2" d="M370.24,202.38h.96c1.65-.02,2.83-.21,3.52-.68.68-.46,1-1.24.99-2.34-.01-1.1-.34-1.97-.98-2.51-.6-.54-1.56-.81-2.85-.8-.96,0-1.78.33-2.51,1.03-.68.64-1.4,1.75-2.12,3.41-1.49,3.21-2.98,5.47-4.38,6.76-1.45,1.29-3.23,1.95-5.34,1.96-3.11.03-5.5-.78-7.07-2.41-1.62-1.63-2.41-4.1-2.44-7.39-.03-3.57.64-6.14,2.04-7.66,1.4-1.48,3.69-2.28,6.89-2.3h.32s.92,0,.92,0l.05,6.36h-.92c-1.56.02-2.65.3-3.42.91-.77.6-1.13,1.47-1.12,2.66.01,1.19.38,2.06,1.03,2.65.69.59,1.74.85,3.12.84,1.05,0,1.92-.38,2.65-1.08.73-.74,1.49-1.98,2.35-3.73,1.39-3.08,2.79-5.24,4.2-6.49,1.36-1.25,3.1-1.86,5.16-1.87,3.02-.02,5.32.78,6.84,2.42,1.53,1.63,2.32,4.1,2.35,7.39.03,3.39-.64,5.82-2.05,7.2-1.36,1.34-3.51,2-6.48,2.02h-.69s-.96.01-.96.01l-.05-6.36Z"/>
    <path class="cls-2" d="M36.2,202.12l8.93-.08-.02-2.06c-.02-1.74-.35-2.88-1.04-3.47-.69-.59-2.02-.85-4.03-.84h.64c-1.88.01-3.06.29-3.65.89-.59.6-.85,1.88-.84,3.81v1.74ZM23.11,202.23l8.33-.07v-1.28c-.03-1.92-.36-3.2-1-3.79-.65-.63-1.88-.94-3.76-.93h.59c-1.6,0-2.74.34-3.33.94-.59.65-.85,1.79-.84,3.49v1.65ZM49.94,208.46l-31.54.26-.03-3.21-.05-6.36c-.03-3.62.5-6.05,1.68-7.39,1.14-1.33,3.28-1.99,6.44-2.02h-.64c3.2-.02,5.36.65,6.52,2.06.65.86,1.11,2.19,1.41,4.02.26-1.97.7-3.39,1.43-4.36,1.09-1.48,3.19-2.22,6.3-2.25h-.64c3.52-.03,5.91.64,7.16,2.05,1.2,1.41,1.86,4.15,1.9,8.18l.05,5.81.03,3.2Z"/>
    <path class="cls-1" d="M128.15,170.03c-5.44,2.18-9.14,3.01-13.53,9.65-10.96,16.54,3.8,41.16,25.99,35.06,10.39-2.85,19.93-14.3,15.92-28.55-3.86-13.69-18.82-19.97-28.38-16.15M133.66,219.01c-7.57,0-6.17-1.02-16.33,8.16-2.3,2.08-4.08,3.76-6.33,5.81-2.02,1.83-3.93,4.17-6.19,5.9,2.3,11.33,23.73,32.97,35.14,40.54,13.74,9.11,35.78,19.49,57.19,18.65l-2.92-2.6c-17.74-11.98-29.16-30.86-29.46-53.88-.3-22.92,10.17-43.06,28.1-55.26,2.25-1.52,2.19-.91,3.16-3.24-5.91.54-32.35,10.54-35.18,14.02-1.12,1.38-5.19,21.9-27.18,21.89Z"/>
    <path class="cls-1" d="M264.33,169.95c-31.64,10.09-16.29,52.94,12.09,44.91,30.25-8.56,15.37-53.67-12.09-44.91M239.24,247.99c-.56,5.07-2.05,10.75-3.78,15.55-2.54,7.04-6.58,13.6-11.34,19.31-1.98,2.26-3.76,4.14-5.61,5.85-1.36,1.24-12.16,9.22-12.43,9.67,25.21,1.29,57.13-14.42,74.79-32.98,4.62-4.85,17.23-19.62,18.57-26.54-5.6-4.38-19.12-20.42-25.67-20.21-11.27.36-19.84-2.02-26.25-12.25-5.39-8.62.69-7.45-10.3-12.73-6.06-2.92-26.16-11.98-33.55-11.94,10.77,3.94,25.48,20.19,30.39,32.32,5.6,13.85,5.34,19.33,5.19,33.96Z"/>
    <path class="cls-1" d="M174.31,121.86l-8.82,8.03,8.63,4.37-17.73,24.73,32.34-22.33-1.48,14.31,7.04-8.45,6.22,37.75,7.11-37.33,8.89,9.11.32-10.64s24.48,15.41,25.41,15.87l-23.6-31.07,7.63-.81-3.63-5.63c-.39-.61,30.76-3.05,35.85-5.38l-34.38-4.69,9-8.94-11.22,1.9,21.79-30.73-32.92,25.58,1.29-12.9-6.73,7.47-6.71-32.78-4.33,33.19-8.69-9.08,2,10.41-27.59-18.05,20.91,28.75-11.27-.65,4.64,7.08c-10.16,2.4-21.91,3.67-32.58,5.88l32.61,5.01Z"/>
    <path class="cls-1" d="M97.7,140.98c8.74-19.23,18.09-26.64,20.49-31-7.87,4.52-21.5,23.67-26.6,32.63-6.54,11.5-13.6,29.68-14.85,45.25-1.9,14.75-1.03,30.16,2.06,43.93,7.1,31.71,26.64,60.18,54.1,77.78,49.49,31.72,114.03,25.99,154.9-12.92,12.32-11.73,21.27-23.33,28.57-38.62,2.88-6.04,5.09-11.91,7.05-18.69,3.64-12.61,6.46-29.84,4.6-45.08-.45-17.2-7.43-36.74-14.05-49.17-3.58-6.71-7.63-13.01-12.39-18.99-3.58-4.49-11.84-13.89-15.61-16.13,1.04,1.77,3.35,4.11,5.09,6.18,1.85,2.21,3.22,4.22,5.16,6.97,11.21,15.87,16.88,31.82,20.08,52.48,6.45,66-42.31,126.19-109.73,127.91-19.85.51-36.32-3.17-51.8-10.08-26.91-12.02-48.3-34.92-59.44-62.08-2.79-6.81-5.16-15.01-6.56-22.78-4.08-22.72-.57-46.66,8.93-67.58"/>
  </g>
</svg>