<?xml version="1.0" encoding="UTF-8"?>
<svg id="Layer_1" data-name="Layer 1" xmlns="http://www.w3.org/2000/svg" viewBox="0 0 792 612">
  <defs>
    <style>
      .cls-1 {
        font-family: BurgundiaPERSONALUSE-Regular, 'Burgundia PERSONAL USE';
        font-size: 115.8px;
      }

      .cls-1, .cls-2 {
        fill: #fff;
      }

      .cls-2 {
        stroke-width: 0px;
      }

      .cls-3 {
        letter-spacing: .06em;
      }

      .cls-4 {
        letter-spacing: .06em;
      }

      .cls-5 {
        letter-spacing: .07em;
      }

      .cls-6 {
        letter-spacing: .16em;
      }
    </style>
  </defs>
  <g>
    <g>
      <path class="cls-2" d="M315.57,184.7c-.01.14-.02.27-.03.39"/>
      <path class="cls-2" d="M248.9,185.09c-.01-.18-.03-.38-.05-.6"/>
    </g>
    <g>
      <path class="cls-2" d="M315.57,447.32c-.01-.14-.02-.27-.03-.39"/>
      <path class="cls-2" d="M337.9,474.45h-111.35c3.81-1.5,8.61-3.99,12.9-8.08,7.73-7.38,9.11-15.49,9.4-18.84v-14.37h66.72v14.16c.25,3.2,1.52,11.51,9.42,19.05,4.29,4.09,9.1,6.58,12.91,8.08Z"/>
      <path class="cls-2" d="M248.9,446.93c-.01.18-.03.38-.05.6"/>
    </g>
    <g>
      <path class="cls-2" d="M532.62,184.14c-.04.36-.06.68-.08.95"/>
      <path class="cls-2" d="M553.92,157.97c-3.63,1.53-8,3.93-11.93,7.68-7.48,7.12-9.01,14.94-9.37,18.49v113.56c-14.73-7.51-36.59-16.56-64.4-21.14-.78-.13-1.55-.25-2.32-.37-31.52-4.86-56.22-1.74-65.41-.35-30.93,4.68-54.96,15.39-70.76,24.19l-.53-52.63h93.22l-74.36-38.83-32.49,14.49v129.34c-4.7-2.95-10.26-4.33-15.85-3.72-12.16,1.32-18.29,11.35-18.96,12.48-.9-1.38-6.59-9.85-17.52-11.52-5.65-.86-10.54.41-14.39,2.27v-99.09l-52.85,23.57,52.85-32.86v-59.04c-.29-3.36-1.67-11.47-9.4-18.84-3.93-3.75-8.3-6.15-11.93-7.68h109.4c-3.63,1.53-8,3.93-11.93,7.68-7.9,7.53-9.17,15.84-9.42,19.05v17.34l30.71-19.09,23.9,15.76,35.56,23.45v-10.4h16.82v21.49l25.99,17.14h.01c3.98.62,8.25,1.61,12.68,3.13,1.63.56,3.19,1.16,4.66,1.78v-70.21c-.18-2.87-1.2-11.58-9.45-19.44-3.93-3.75-8.3-6.15-11.93-7.68h109.4Z"/>
    </g>
    <g>
      <path class="cls-2" d="M532.62,447.88c-.04-.36-.06-.68-.08-.95"/>
      <path class="cls-2" d="M554.9,474.45h-111.34c3.8-1.5,8.6-3.99,12.89-8.08,8.25-7.87,9.27-16.58,9.45-19.44v-14c9.58,4.42,24.04,8.55,40.77,4.76,11.31-2.55,19.94-7.88,25.95-12.84v23.03c.36,3.54,1.89,11.36,9.37,18.49,4.29,4.09,9.1,6.58,12.91,8.08Z"/>
    </g>
  </g>
  <text class="cls-1" transform="translate(33.31 427.2)"><tspan class="cls-5" x="0" y="0">Ho</tspan><tspan class="cls-4" x="180.06" y="0">m</tspan><tspan class="cls-3" x="302.69" y="0">e</tspan><tspan class="cls-6" x="377.03" y="0"> </tspan><tspan class="cls-3" x="429.83" y="0">Seek</tspan></text>
</svg>