<?xml version="1.0" encoding="UTF-8"?>
<svg xmlns="http://www.w3.org/2000/svg" viewBox="0 0 500 500">
  <defs>
    <style>
      .cls-1 {
        font-family: Poppins-SemiBold, Poppins;
        font-size: 15.13px;
        font-weight: 600;
        letter-spacing: .3em;
      }

      .cls-1, .cls-2, .cls-3, .cls-4 {
        fill: #fff;
      }

      .cls-5 {
        fill: none;
      }

      .cls-5, .cls-2 {
        stroke-linecap: round;
        stroke-linejoin: round;
        stroke-width: 2px;
      }

      .cls-5, .cls-2, .cls-4 {
        stroke: #f5b713;
      }

      .cls-6, .cls-3 {
        stroke-width: 0px;
      }

      .cls-6, .cls-7 {
        fill: #f5b713;
      }

      .cls-4 {
        stroke-miterlimit: 10;
      }

      .cls-7 {
        font-family: Poppins-Bold, Poppins;
        font-size: 48px;
        font-weight: 700;
        letter-spacing: .27em;
      }
    </style>
  </defs>
  <g id="OBJECTS">
    <path class="cls-6" d="M112.36,276.37c0-79.39,64.36-143.76,143.76-143.76s143.76,64.36,143.76,143.76c0,7.64-.6,15.14-1.75,22.45H114.11c-1.15-7.32-1.75-14.81-1.75-22.45Z"/>
    <path class="cls-4" d="M137.77,199.84l4.08.71-1.3,21.71c-.11,1.81,1.16,3.43,2.96,3.73l.92.16-2.39,51.89,42.62,7.44,15.35-49.62.92.16c1.79.32,3.53-.76,4.05-2.52l6.13-20.87,4.1.71c2.45.43,4.79-1.21,5.21-3.65.43-2.46-1.21-4.79-3.65-5.22l-10.68-1.86c6.87,1.19,13.31-2.74,14.36-8.79,1.06-6.05-3.65-11.94-10.53-13.13l-6.07-1.07c6.27,1.03,12.11-2.56,13.07-8.1.97-5.56-3.36-10.97-9.68-12.08l-11.19-2.47c-3.85-2.19-6.85-5.68-9.36-9.34-1.64-2.38-3.12-4.89-3.91-7.67-.8-2.77-.82-5.85.4-8.46,1.22-2.61,3.81-4.67,6.69-4.77-4.75-1.31-9.53-2.55-14.44-2.16-4.9.39-9.92,2.61-12.51,6.81-1.57,2.53-2.14,5.58-2.16,8.55-.01,2.35.29,4.73,1.16,6.92.73,1.85,0,3.19.94,4.34-5.86-.34-11.61,3.55-12.51,8.69-.97,5.55,3.36,10.95,9.67,12.08l-1.38-.25-4.8-.84c-6.88-1.21-13.32,2.73-14.37,8.78-1.05,6.03,3.6,11.87,10.41,13.12l-10.57-1.85c-2.45-.42-4.79,1.22-5.21,3.66-.43,2.46,1.21,4.79,3.66,5.22Z"/>
    <path class="cls-2" d="M158.64,171.75l-4.8-.84c-6.88-1.2-13.31,2.73-14.37,8.78h0c-1.06,6.05,3.66,11.93,10.54,13.14l56.09,9.8c6.88,1.2,13.31-2.73,14.37-8.78h0c1.06-6.05-3.66-11.93-10.54-13.14l-7.2-1.26"/>
    <path class="cls-2" d="M163.56,151.85c-6.32-1.1-12.23,2.51-13.21,8.07h0c-.97,5.56,3.36,10.97,9.69,12.07"/>
    <path class="cls-2" d="M193.4,177.83l10.32,1.8c6.32,1.1,12.23-2.51,13.21-8.07h0c.97-5.56-3.36-10.97-9.69-12.07l-17.73-3.1"/>
    <path class="cls-2" d="M137.77,199.84l77.46,13.54c2.45.43,4.78-1.21,5.21-3.66h0c.43-2.45-1.21-4.78-3.66-5.21l-77.46-13.54c-2.45-.43-4.78,1.21-5.21,3.66h0c-.43,2.45,1.21,4.78,3.66,5.21Z"/>
    <path class="cls-2" d="M143.52,226l57.43,10.04c1.79.31,3.54-.77,4.05-2.52l6.14-20.86-69.28-12.11-1.3,21.71c-.11,1.82,1.16,3.43,2.96,3.74Z"/>
    <polygon class="cls-2" points="142.05 278.05 184.67 285.5 200.03 235.88 144.44 226.17 142.05 278.05"/>
    <line class="cls-2" x1="185.21" y1="176.4" x2="166.1" y2="173.06"/>
    <path class="cls-2" d="M196.76,157.4c-4.19-2.16-7.39-5.84-10.06-9.72-1.63-2.38-3.12-4.9-3.91-7.67-.79-2.77-.82-5.84.4-8.46,1.22-2.61,3.81-4.66,6.69-4.77-4.75-1.32-9.52-2.55-14.43-2.17-4.91.39-9.93,2.61-12.52,6.81-1.57,2.54-2.13,5.58-2.16,8.56-.02,2.35.29,4.73,1.16,6.91.87,2.19-.33,3.67,1.63,4.96"/>
    <line class="cls-2" x1="182.09" y1="155.14" x2="171.94" y2="153.37"/>
    <line class="cls-2" x1="142.82" y1="273.21" x2="195.28" y2="235.05"/>
    <line class="cls-2" x1="143.68" y1="246.26" x2="166.1" y2="229.95"/>
    <line class="cls-2" x1="169.22" y1="282.48" x2="190.37" y2="267.1"/>
    <line class="cls-2" x1="186.19" y1="280.06" x2="150.58" y2="227.5"/>
    <line class="cls-2" x1="194.08" y1="253.71" x2="179.94" y2="232.86"/>
    <line class="cls-2" x1="158.82" y1="280.68" x2="143.17" y2="257.61"/>
    <g>
      <path class="cls-2" d="M342.15,173.24l.65,101.73c.23,2.99-11.37,6.79-25.9,8.53-14.53,1.74-26.7.77-27.18-2.18l-23.36-99.02,75.79-9.06Z"/>
      <path class="cls-2" d="M343.25,166.22l.67,5.56c.53,4.44-16.86,10.16-38.84,12.79-21.98,2.63-40.23,1.16-40.76-3.27l-.67-5.56,79.6-9.52Z"/>
      <ellipse class="cls-2" cx="303.45" cy="170.98" rx="40.08" ry="8.09" transform="translate(-18.16 37.24) rotate(-6.82)"/>
      <path class="cls-2" d="M321.68,161.22l.71,5.97c.25,2.13-8.1,4.88-18.66,6.15-10.56,1.26-19.33.56-19.59-1.57l-.71-5.97,38.25-4.57Z"/>
      <path class="cls-2" d="M283.47,166.16c.25,2.13,9.02,2.84,19.59,1.57,10.56-1.26,18.92-4.02,18.66-6.15-.25-2.13-9.02-2.84-19.59-1.57-10.56,1.26-18.92,4.02-18.66,6.15Z"/>
      <path class="cls-2" d="M271.91,123.78c.34-1.65,1.95-2.71,3.6-2.38l22.18,4.54c4.52.92,7.82,4.79,8.02,9.39l1.39,30.85c.01.34-.04.66-.12.96-2,.44-3.94.56-5.67.83-.48-.51-.26-.77-.3-1.53l-1.39-30.85c-.08-1.81-1.38-3.33-3.15-3.69l-22.18-4.54c-1.65-.34-2.71-1.95-2.38-3.6Z"/>
    </g>
    <path class="cls-2" d="M92.72,182.94c6.85-5.51,16.88-1.14,20.11,6.2,27.49,62.5,76.29,95.57,77.12,96.13,6.71,4.43,7.91,13.72,2.69,20.77,0,0-19.11,28.69-74.76-40.48,0,0-50.75-62.03-25.15-82.62Z"/>
    <path class="cls-2" d="M111.63,269.95c30.38,37.76,58.73,57.9,60.5,59.15,7.94,5.56,18.88,3.64,24.45-4.3,5.56-7.93,3.64-18.87-4.29-24.44-.99-.7-58.71-42.2-93.79-116.87-4.12-8.78-14.58-12.54-23.35-8.42-8.77,4.12-12.55,14.58-8.42,23.35,13.31,28.33,29.37,52.23,44.9,71.53Z"/>
    <path class="cls-2" d="M68.74,193.36c7.45-5.99,18.34-1.24,21.86,6.74,29.88,67.94,82.92,103.88,83.83,104.49,7.29,4.82,8.6,14.92,2.92,22.58,0,0-20.77,31.18-81.26-44,0,0-55.16-67.43-27.34-89.81Z"/>
    <g>
      <line class="cls-2" x1="76.53" y1="179.03" x2="80.54" y2="174.17"/>
      <line class="cls-2" x1="80.54" y1="174.17" x2="85.41" y2="178.18"/>
    </g>
    <g>
      <line class="cls-2" x1="192.67" y1="323.37" x2="198.28" y2="320.49"/>
      <line class="cls-2" x1="198.28" y1="320.49" x2="195.4" y2="314.88"/>
    </g>
    <path class="cls-4" d="M160.38,325.11c-.55.45-.64,1.26-.2,1.81.45.55,1.26.64,1.81.2.55-.45.64-1.26.2-1.81-.45-.55-1.26-.64-1.81-.2Z"/>
    <path class="cls-4" d="M154.69,304.26c-.55.45-.64,1.26-.2,1.81.45.55,1.26.64,1.81.2.55-.45.64-1.26.2-1.81-.45-.55-1.26-.64-1.81-.2Z"/>
    <path class="cls-4" d="M106.46,284.05c-.55.45-.64,1.26-.2,1.81.45.55,1.26.64,1.81.2.55-.45.64-1.26.2-1.81-.45-.55-1.26-.64-1.81-.2Z"/>
    <path class="cls-4" d="M83.46,245.36c-.55.45-.64,1.26-.2,1.81.45.55,1.26.64,1.81.2.55-.45.64-1.26.2-1.81-.45-.55-1.26-.64-1.81-.2Z"/>
    <path class="cls-4" d="M69.77,208.38c-.55.45-.64,1.26-.2,1.81.45.55,1.26.64,1.81.2.55-.45.64-1.26.2-1.81-.45-.55-1.26-.64-1.81-.2Z"/>
    <path class="cls-4" d="M132.42,308.26c-.55.45-.64,1.26-.2,1.81.45.55,1.26.64,1.81.2.55-.45.64-1.26.2-1.81-.45-.55-1.26-.64-1.81-.2Z"/>
    <path class="cls-4" d="M133.62,289.8c-.55.45-.64,1.26-.2,1.81.45.55,1.26.64,1.81.2.55-.45.64-1.26.2-1.81-.45-.55-1.26-.64-1.81-.2Z"/>
    <path class="cls-4" d="M111.55,258.26c-.55.45-.64,1.26-.2,1.81.45.55,1.26.64,1.81.2.55-.45.64-1.26.2-1.81-.45-.55-1.26-.64-1.81-.2Z"/>
    <path class="cls-4" d="M88.49,220.93c-.55.45-.64,1.26-.2,1.81.45.55,1.26.64,1.81.2.55-.45.64-1.26.2-1.81-.45-.55-1.26-.64-1.81-.2Z"/>
    <path class="cls-5" d="M188.42,309.6c-.53-8.59-6.44-16.62-14.49-19.67-4.92-1.86-10.57-2.05-14.82-5.15-8.36-6.1-6.67-19.44-12.94-27.66-6.38-8.36-19.27-9.35-25.84-17.55-6.45-8.04-4.72-20.33-10.68-28.74-3.69-5.22-9.76-8.12-14.68-12.21-4.91-4.09-8.91-10.86-6.27-16.68"/>
    <g>
      <polygon class="cls-2" points="383.89 187.11 363.23 242 348.46 235.51 366.79 181.2 383.89 187.11"/>
      <polygon class="cls-2" points="419.74 187.6 393.2 246.5 382.07 233.75 403.88 180.77 419.74 187.6"/>
      <polygon class="cls-2" points="401.3 172.71 372.27 241.83 360.43 231.86 385.18 166.53 401.3 172.71"/>
      <polygon class="cls-2" points="430.64 177.58 446.13 185.22 417.48 241.01 406.15 229.39 430.64 177.58"/>
      <polygon class="cls-2" points="409.1 193.6 425.57 201.08 393.96 261.17 381.46 255.68 409.1 193.6"/>
      <polygon class="cls-2" points="440.47 204.04 456.24 212.89 436.02 246.75 412.78 254.22 440.47 204.04"/>
      <polygon class="cls-2" points="403.45 194.35 380.15 251.87 366.82 241.84 386.51 188.01 403.45 194.35"/>
      <polygon class="cls-2" points="427.17 207.7 443.02 216.43 423.07 250.45 399.9 258.12 427.17 207.7"/>
      <polygon class="cls-2" points="375.63 180.76 357.38 235.09 347.17 212.92 358.44 175.12 375.63 180.76"/>
      <polygon class="cls-2" points="376.89 199.79 363 236.71 341.46 248.19 359.79 193.88 376.89 199.79"/>
      <polygon class="cls-2" points="399.19 223.72 371.81 277.64 360.78 269.78 382.5 216.74 399.19 223.72"/>
      <polygon class="cls-2" points="409.58 216.83 425.73 224.97 394.6 274.95 384.15 268.19 409.58 216.83"/>
      <path class="cls-2" d="M436.02,246.75s-53.82,10.44-87.58-38.5l-26.63,83.73,69.84,30.7,44.38-75.93Z"/>
      <line class="cls-2" x1="436.02" y1="246.75" x2="321.8" y2="291.98"/>
      <line class="cls-2" x1="348.43" y1="208.25" x2="371.73" y2="272.21"/>
    </g>
    <circle class="cls-2" cx="250.31" cy="267.12" r="69.43"/>
    <circle class="cls-2" cx="250.31" cy="267.12" r="17.09" transform="translate(-57.08 68.33) rotate(-13.97)"/>
    <path class="cls-5" d="M185.17,267.12c0,8.36,8.34,15,11.35,22.28,3.13,7.54,2.04,18.1,7.72,23.78,5.68,5.68,16.25,4.6,23.78,7.72,7.27,3.02,13.91,11.35,22.28,11.35,8.36,0,15-8.34,22.28-11.35,7.54-3.13,18.1-2.04,23.78-7.72,5.68-5.68,4.6-16.25,7.72-23.78,3.01-7.27,11.35-13.91,11.35-22.28s-8.34-15-11.35-22.28c-3.13-7.54-2.04-18.1-7.72-23.78-5.68-5.68-16.25-4.6-23.78-7.72-7.27-3.02-13.91-11.35-22.28-11.35s-15,8.34-22.28,11.35c-7.54,3.13-18.1,2.04-23.78,7.72-5.68,5.68-4.6,16.25-7.72,23.78-3.01,7.27-11.35,13.91-11.35,22.28Z"/>
    <line class="cls-5" x1="251.05" y1="215.76" x2="249.57" y2="221.41"/>
    <line class="cls-5" x1="218.35" y1="301.89" x2="212.7" y2="303.33"/>
    <line class="cls-5" x1="236.59" y1="230.25" x2="241.37" y2="233.6"/>
    <line class="cls-5" x1="222.61" y1="248.05" x2="220.91" y2="253.63"/>
    <line class="cls-5" x1="277.9" y1="252.48" x2="279.6" y2="258.06"/>
    <line class="cls-5" x1="267.4" y1="231.97" x2="262.55" y2="235.22"/>
    <line class="cls-5" x1="227.22" y1="285.24" x2="221.76" y2="283.19"/>
    <line class="cls-5" x1="286.57" y1="302.91" x2="281.11" y2="300.86"/>
    <line class="cls-5" x1="246.28" y1="300.26" x2="242.81" y2="304.95"/>
    <line class="cls-5" x1="256.16" y1="320.67" x2="253.9" y2="315.3"/>
    <line class="cls-5" x1="211.89" y1="232.22" x2="217.69" y2="231.63"/>
    <line class="cls-5" x1="297.09" y1="263.09" x2="302.89" y2="262.5"/>
    <line class="cls-5" x1="201.2" y1="257.62" x2="204.2" y2="262.62"/>
    <line class="cls-5" x1="285.89" y1="232.98" x2="287.96" y2="227.52"/>
    <line class="cls-5" x1="278.75" y1="278.18" x2="275.75" y2="283.19"/>
    <rect class="cls-3" x="75.28" y="272.08" width="359.5" height="65.15"/>
    <line class="cls-5" x1="75.28" y1="272.08" x2="434.78" y2="272.08"/>
    <line class="cls-5" x1="75.28" y1="337.23" x2="434.78" y2="337.23"/>
  </g>
  <g id="TEXTS">
    <text class="cls-7" transform="translate(99.6 322.7)"><tspan x="0" y="0">CRAVERZ</tspan></text>
    <text class="cls-1" transform="translate(115.69 359.15)"><tspan x="0" y="0">ANYTIME IS SNACK TIME</tspan></text>
  </g>
</svg>