<?xml version="1.0" encoding="UTF-8"?>
<svg id="Layer_1" data-name="Layer 1" xmlns="http://www.w3.org/2000/svg" viewBox="0 0 2000 2000">
  <defs>
    <style>
      .cls-1 {
        font-family: PerpetuaTitlingMT-Light, 'Perpetua Titling MT';
        font-size: 152px;
        font-weight: 300;
        letter-spacing: .06em;
      }

      .cls-1, .cls-2, .cls-3, .cls-4 {
        fill: #fff;
      }

      .cls-2, .cls-3 {
        stroke-width: 0px;
      }

      .cls-3 {
        fill-rule: evenodd;
      }

      .cls-4 {
        font-family: Poppins-SemiBold, Poppins;
        font-size: 46.24px;
        font-weight: 600;
        letter-spacing: .07em;
      }
    </style>
  </defs>
  <g>
    <path class="cls-3" d="M567.24,1214.2c45.21-244.49,250.89-562.54,542.03-694.61l-2.17,98.22,28.85-121.9c52.73-28.67,194.09-103.82,216.05-158.12l1.26,66.75s12.94-64.5,31.33-83.78c18.41-19.27,64.25-45.86,88.08-77.89,23.83-32.03,28.62-61.93,28.62-61.93,0,0,62.73,126.93,31.75,243.3-30.98,116.34-87.8,122-87.8,122,36.31-6.96,64.55-24.76,95.93-58.43,0,0-26.47,102.58-61.35,143.09-34.9,40.49-131.83,60.09-131.83,60.09,31.68,1.78,77.59-8.5,113.87-22.01,0,0-49.9,55.7-121.83,117.7-7.52,6.47-15.37,12.62-23.5,18.43-44.13,11.85-96.49,20.49-171.27,34.86,0,0,70.46.37,137.21-12.97-66.79,42.78-130.76,57.07-196.57,78.78-116.39,38.38-243.74,39.74-332.17,126.04,0,0,16.33-53.78,125.22-129.57,217.11-151.13,389.54-159.12,503.46-431.22,0,0-49.04,85.04-112.84,149.31-142.37,143.37-361.09,190.43-494.65,322.89-67.42,66.84-103.12,100.9-187.81,276.96-11.49-3.36-10.75-3.39-19.86-5.98h0Z"/>
    <path class="cls-3" d="M577.45,1167.39c-2.69,6.54-5.33,13.04-8.01,19.51l-1.96-.58c-2.15-.65-4.44.56-5.07,2.71l-1.82,6c-.63,2.13.58,4.42,2.73,5.07l.56.16c-12.83,30.49-26.33,60.13-43.71,88.99,8.69,21.19,13.08,41.7,15.19,64.43l22.64-75.02c-4.37-2.55-6.56-7.83-5.05-12.85,1.78-5.91,8.01-9.25,13.92-7.48,5.89,1.78,9.23,8.01,7.45,13.92-1.52,5.05-6.28,8.2-11.31,7.92l-22.64,75.02c14.32-17.78,29.32-32.43,48.27-45.28,1.5-33.67,6.66-65.84,12.83-98.31l.58.16c2.13.65,4.42-.58,5.07-2.71l1.8-6c.65-2.15-.58-4.42-2.71-5.07l-1.99-.61c1.36-6.85,2.73-13.74,4.11-20.68l-10-3.01-2.92-.89-5.02-1.52-12.94-3.9Z"/>
  </g>
  <path class="cls-2" d="M451.9,1400.94c5.25-5.4,11.31-10,17.42-14.3,65.28-44.61,149.89-45.94,224.47-29.02,13.57,3,26.97,6.86,40.33,10.58,66.67,18.2,133.43,37.18,201.62,48.72,13.63,2.18,27.33,3.94,41.06,4.66,13.6.66,27.52.5,40.7-3.01,13.08-3.56,30.53-13.5,27.57-29.31-2.74-11.74-13.36-19.17-22.31-26.32-15.67-12.84-56.05-39.59-54.12-61.55,1.85-14.7,21.09-20.5,33.45-22.96,27.67-4.66,55.68-.58,83.09,3.51,68.25,11,135.59,29.45,204.87,32.69,27.47,1.11,55.53-.33,81.79-8.91,9.61-3.3,19.47-7.12,26.72-14.36,32.74-34.18-95.88-83.1-57.1-95.95,1.75-.54,3.51-.89,5.27-1.17.79-.12,1.52.41,1.65,1.2.12.79-.41,1.52-1.2,1.65-1.67.25-3.32.58-4.89,1.05-6.02,1.72-6.76,4.58-3.17,9.32,4.1,5.31,9.69,9.62,14.9,13.91,20.21,17.13,79.35,53.03,37.76,78.11-70.59,37.54-189.99,5.79-266.11-7.84-38.86-6.76-106.93-22.42-142.38-4.27-25.34,12.97-4.88,34.49,9.05,47.22,10.21,9.23,21.32,17.46,32.31,25.92,5.52,4.32,11.19,8.51,15.87,13.83,7.7,8.43,11.47,20.21,4.57,30.38-21.07,29.61-78.54,20.5-109.97,16.14-68.5-11.2-135.4-29.83-202.36-47.71-77.29-23.01-167.03-30.21-238.17,13.93-10.71,6.85-20.87,14.59-29.2,24.18-2.81,4.12-8.76,4.96-12.55,1.66-3.57-3.05-3.99-8.41-.95-11.98h0Z"/>
  <text class="cls-1" transform="translate(331.01 1623.29)"><tspan x="0" y="0">The Bible Echo</tspan></text>
  <text class="cls-4" transform="translate(608.38 1751.61)"><tspan x="0" y="0">The Bible and The Bible Alone </tspan></text>
</svg>