<?xml version="1.0" encoding="UTF-8"?>
<svg id="Layer_2" data-name="Layer 2" xmlns="http://www.w3.org/2000/svg" viewBox="0 0 590.47 612">
  <defs>
    <style>
      .cls-1 {
        fill: #292828;
      }

      .cls-1, .cls-2 {
        stroke-width: 0px;
      }

      .cls-2 {
        fill: #24c802;
      }
    </style>
  </defs>
  <g id="Layer_1-2" data-name="Layer 1">
    <g>
      <path class="cls-2" d="M390.73,230.77c-4.55.92-8.43,3.05-12.41,4.83-8.15,3.65-15.87,8.16-23.64,12.54-9.65,5.44-18.2,12.45-27.05,19.02-9.02,6.7-17.23,14.36-25.56,21.88-1.01.91-2.15,2.75-3.34,2.09-1.4-.78-.46-2.76-.12-4.13,2.27-9.06,5.19-17.91,9.1-26.4,9.37-20.33,22.89-37.31,41.4-49.96,17.06-11.65,36.19-17.69,56.67-19.88,12.25-1.31,24.46-1.21,36.7-.26,4.07.31,4.53.64,4.4,4.75-.24,7.73-1.76,15.22-4.29,22.57-1.75,5.1-3.62,10.09-6.18,14.84-4.57,8.5-10.47,15.99-17.16,22.89-15.63,16.1-34.75,26.61-55.35,34.8-13.52,5.37-27.57,8.87-41.67,12.22-5.46,1.3-11.08.76-16.64.73-.62,0-1.43.2-1.78-.52-.38-.77.44-1.2.8-1.65,3.48-4.33,7.55-8.13,11.47-12.04,12.13-12.06,24.77-23.57,38.4-33.93,10.5-7.98,21.05-15.88,33.07-21.54,1.13-.53,2.58-1.12,3.17-2.86Z"/>
      <path class="cls-2" d="M233.59,261.67c17.75,11.62,33.81,25.14,48.36,41.12-4.77,1.43-9.18.92-13.4.16-21.48-3.87-41.09-12.01-57.28-27.03-10.34-9.59-17.11-21.31-18.91-35.58-.91-7.23-.99-7.32,6.33-7.73,14.62-.81,29.01.16,42.67,6.07,12.52,5.42,23.08,13.47,30.93,24.63,6.36,9.04,11.07,18.98,13.62,29.83.24,1.02,1.08,2.45.02,3.07-1.05.61-2.05-.67-2.83-1.43-8.89-8.68-18.62-16.3-29.06-22.97-5.27-3.37-10.81-6.32-16.3-9.34-1.15-.64-2.44-1.39-4.15-.8ZM231.14,260.29c.7.68,1.2,1.25,2.14.6-.51-.67-1.05-1-2.14-.6Z"/>
      <path class="cls-2" d="M261.73,215.83c2.76,6.18,5.76,12.25,8.07,18.62,2.32,6.39,5.17,12.64,5.71,19.97-3.05-1.17-5.09-3.09-7.13-4.88-7.78-6.85-15.26-14.06-20.38-23.18-6.9-12.29-9.83-25.22-4.53-39.01.77-2,1.78-3.28,4.21-2.17,13.1,5.94,24.11,14.26,30.49,27.55,5.41,11.25,5.85,23.06,2.9,35.06-.18.72-.05,1.98-1.19,1.9-.93-.07-1.1-1.19-1.34-1.98-1.98-6.56-4.56-12.89-7.98-18.81-2.62-4.54-4.59-9.54-8.83-13.06Z"/>
      <path class="cls-1" d="M193.04,350.95c1.62-8.64,3.29-17.14,4.78-25.68.34-1.96.98-2.64,3.07-2.57,6.21.21,6.22.11,6.22,6.47,0,11.14-.12,22.28.07,33.41.05,3.08-1.71,2.47-3.41,2.49-1.66.02-3.27.46-3.16-2.42.25-6.38.08-12.78.08-19.24-1.31.18-1.13,1.11-1.26,1.72-1.27,5.99-2.56,11.99-3.68,18.01-.29,1.57-.93,2.17-2.4,1.91-1.36-.24-3.16.96-3.7-1.7-1.31-6.37-2.91-12.67-4.41-18.99-.17-.7-.4-1.39-1.28-2.03,0,2.53,0,5.05,0,7.58,0,4.25-.07,8.5.04,12.74.04,1.74-.26,2.52-2.27,2.48-4.09-.09-4.1.03-4.1-4,0-11.89.05-23.79-.04-35.68-.02-2.07.45-2.76,2.64-2.72,6.37.11,6.43,0,7.71,6.17,1.42,6.83,2.71,13.69,4.07,20.53.1.51-.05,1.18,1.05,1.54Z"/>
      <path class="cls-1" d="M170.42,398.34c2.6-1.46,4.16-3.95,6.73-5.06,1.1-.47,2.3-1.48,3.3-.21,1.01,1.29-.3,2.19-1,3.15-.7.95-1.9,1.63-1.79,3.04.03.42.38.71.81.54,1.48-.59,3.19-1.08,3.62-2.82.8-3.25,3.15-4.7,5.99-5.75,3.56-1.32,4.69-.62,5.15,3.1.12.94-.76,2.34.53,2.74,1.47.45,1.89-1.17,2.63-2.07,1.19-1.47,2.39-2.97,4.46-3.22.82-.1,1.25-.23.76-1.2-.23-.46-.28-1.12-.16-1.62.28-1.18,1.3-1.54,2.36-1.7.6-.09,1.14.18,1.26.85.16.91-.12,2.04-.87,2.21-2.03.47-2,1.89-2.34,3.46-.32,1.48-1.82,2.34-2.89,3.4-.65.64-1.68,1.24-.84,2.31.69.88,1.74.7,2.59.23,1.38-.76,2.83-1.45,3.58-3.02,1.68-3.54,4.92-5.08,8.39-6.1,2.04-.6,3.04.6,2.07,2.46-.84,1.61-1.53,3.72-4.38,2.64-1.39-.53-2.37,1.18-3.33,2.12-.44.44-.51,1.21.07,1.79,1.01,1.01,2.21,1,3.42.56,2.52-.92,4.67-2.29,6.14-4.68,1.59-2.6,3.85-4.37,6.98-4.78,1.12-.14,2.36-.36,2.98.94.6,1.27-.28,2.19-1.03,3.01-1.36,1.5-3.22,2.28-5.03,3.06-.82.35-1.71.52-1.43,1.67.26,1.06,1.2,1.09,2.06,1.06,1.69-.06,3.01-1.01,4.3-1.96.73-.54,1.52-1.74,2.32-.85,1.13,1.25-.75,1.3-1.23,1.9-1.01,1.26-2.31,2.21-3.75,2.96-3.87,2.02-5.84,1.27-7.41-2.91-1.57,1.02-3.05,2.15-4.68,2.99-2.97,1.53-4.56,1.06-6.24-1.87-.59-1.03-.92-.9-1.62-.25-.76.7-1.54,1.41-2.41,1.96-2.72,1.74-4.22,1.31-5.48-1.62-.4-.94-.49-1.39-1.72-.77-1.64.83-3.46,1.21-5.06,2.3-2.28,1.55-4.25,1.07-5.66-1.38-.77-1.33-1.2-.96-2.09-.34-1.15.8-2.34,1.65-3.64,2.12-2.32.83-3.87-.06-3.43-2.29.36-1.82-.46-.94-.97-.81-.31.08-.5.55-.81.75-1.03.65-1.53,2.74-3.03,1.87-1.27-.74-.97-2.5-.77-3.92.05-.36,0-.72,0-1.21-3.36,2.56-6.07,5.68-9.66,7.67-2.65,1.48-5.37,2.77-8.57,2.28-3.56-.54-5.43-2.94-5.06-6.55.22-2.1.92-4.02,2-5.83,3.76-6.29,9.19-10.64,15.77-13.63,1.82-.83,3.86-1.53,5.5.27,1.64,1.8.78,3.84-.2,5.53-2.36,4.07-5.58,7.33-9.85,9.44-.98.49-2.01.8-2.81-.22-.82-1.04-.28-2.09.5-2.77,1.66-1.44,2.95-3.2,5.31-3.96,2.24-.72,3.52-3,4.58-5.11.58-1.15-.04-1.58-1.19-1.3-.55.13-1.13.26-1.6.55-5.54,3.46-10.24,7.71-12.58,14.02-.66,1.78-1.09,3.71.41,5.34,1.6,1.73,3.46.91,5.26.36,2.56-.79,4.63-2.46,6.87-3.81,1.61-.97,2.61-3.26,5.16-2.47.43.13.72-.96,1.03-1.53,2.61-4.88,6.13-9.02,10.4-12.52.81-.66,1.82-1.86,2.9-.69.89.96-.14,1.97-.7,2.76-2.98,4.19-6.65,7.78-10.13,11.53-.37.4-.93.68-.78,1.85ZM188.77,394.56c-1.85.96-3.12,1.85-3.9,3.31-.4.75-.66,1.6-.03,2.38.49.61,1.17.49,1.82.3.91-.26,1.54-.84,1.36-1.83-.23-1.28.36-2.38.75-4.15ZM223.95,392.34c-2.24.94-3.44,1.87-3.92,3.61,1.5-.58,2.96-1.19,3.92-3.61ZM193.41,397.72c.08-.08.14-.14.2-.2-.13-.06-.25-.15-.38-.18-.05-.01-.12.11-.19.18.12.07.25.14.36.2Z"/>
      <path class="cls-1" d="M227.92,347.91c.62-.88.32-1.82.32-2.69.02-6.7.06-13.4-.04-20.1-.03-1.83.45-2.5,2.37-2.4,4.4.23,4.11-.85,4.11,4.02,0,11.89-.05,23.78.05,35.67.02,2.12-.53,2.78-2.67,2.72-4.35-.12-4.31-.01-5.66-4.24-2.16-6.78-4.37-13.55-7.12-20.29-.06.75-.17,1.5-.17,2.26,0,6.61-.05,13.21.07,19.81.03,1.82-.39,2.48-2.33,2.45-4.18-.06-4.19.05-4.19-4.21,0-11.89.04-23.78-.03-35.67-.01-1.88.29-2.65,2.47-2.53,4.77.26,4.82.1,6.19,4.63,1.83,6.04,3.59,12.09,5.42,18.13.25.83.14,1.89,1.2,2.44Z"/>
      <path class="cls-2" d="M293.33,263.8c.55-8.96,5.87-16.23,8.61-24.69-4.66,5.5-7.22,11.76-9.82,18-.47,1.13-.54,3.09-2.07,2.89-1.19-.15-1.12-2.01-1.27-3.18-2.41-17.72,6.34-31.19,22.34-38.11,1.82-.79,2.59-.02,3.27,1.4,2.44,5.12,2.33,10.57,1,15.78-2.86,11.2-10.43,19.28-18.84,26.67-.85.75-1.81,1.33-3.23,1.24Z"/>
      <path class="cls-2" d="M522.66,424.6H100.53c1.87-1.31,418.52-1.65,422.13,0Z"/>
      <path class="cls-1" d="M352.48,397.04c2.03-1.27,3.38-3.25,5.06-4.88.64-.62,1.3-1.28,2.19-.67,1.07.72.21,1.48-.16,2.18-.82,1.59-1.68,3.16-2.47,4.76-.2.41-.25.98.17,1.31.45.36.9.02,1.23-.28.81-.75,1.81-1.33,1.91-2.66.11-1.46.88-2.67,1.88-3.7.75-.78,1.51-2.08,2.76-1.07.91.74.67,1.88.35,3.06-.25.94-2.36,1.66-.87,2.62,1.23.79,1.58-1.11,2.36-1.78,2.6-2.23,5.53-3.95,8.86-4.81,1.19-.31,2.99-1,3.55.46.46,1.21.75,2.96-.28,4.29-.79,1.02-1.64,1.98-1.91,3.29,3.04.68,4.85-.8,4.67-3.83-.14-2.4,3.15-4.64,5.47-3.86.75.25,1.67.05,2.5.01.94-.04,1.93-.28,2.5.78.63,1.17-.15,1.9-.81,2.73-.83,1.04-1.55,2.17-2.27,3.3-.17.27-.29.8-.14.99.29.37.83.46,1.29.23,1.35-.69,2.63-1.56,3.47-2.79,2.41-3.55,5.61-5.53,9.95-5.38.91.03,1.13-.53,1.44-1.06.81-1.39,1.46-2.88,2.38-4.18.87-1.22,1.79-3.45,3.55-2.3,1.57,1.03-.04,2.72-.75,3.93-1.44,2.43-3.11,4.73-4.51,7.18-.85,1.49-2.56,3.54-.99,4.8,1.64,1.32,2.81-1.13,3.94-2.21,2.36-2.24,5.16-4.01,6.91-6.94.75-1.25,2.08-1.13,2.62.67,1.06,3.54.56,6.63-2.97,9.09,2.88.46,3.9-2.65,6.44-1.97-1.75,1.62-3.15,3.37-5.23,4.37-2.38,1.14-4.78,1.1-6.55-.75-1.42-1.48-2.2-.99-3.48-.09-2.92,2.05-3.38,1.92-5.19-1.07-.73-1.21-1.33-.51-2.02,0-1.84,1.36-3.67,3.22-5.28-.33-.48-1.06-1.24-.27-1.86.11-1.04.64-1.61,1.91-2.87,2.2-1,.23-2.1,1.45-3.03.25-.72-.93-1.11-2.16-.71-3.48.42-1.37,1.26-2.49,2.31-3.85-1.98-.21-3.19.25-4.15,1.75-1.51,2.37-3.39,4.42-6.08,5.53-.94.39-1.85,1.18-2.88.47-1.19-.83-.73-1.98-.39-3.08.11-.35.12-.73.22-1.37-1.53,1.15-2.89,2.13-4.21,3.15-1.45,1.13-2.58.64-3.61-.63-1.54-1.89-4.71-2.18-6.6-.62-.22.18-.41.39-.62.57-3.63,3.08-4.61,2.81-5.73-1.75-.4.33-.77.59-1.09.9-3.4,3.23-3.78,3.22-6.64-.43-.33-.43-.6-.78-1.09-.44-1.49,1.04-3.44.83-4.92,2.02-1.68,1.35-3.67,2.17-5.65.49-1.73-1.47-2.03-4.98-.59-7.09,1.91-2.79,4.71-4.27,8.01-4.43,2.54-.13,1.82,2.35,2.32,3.73.25.69-.2,1.64-.34,2.47-.22.26-.48.52-.23.88.26.39.56.21.84.01,1.98-.57,2.09-2.76,3.39-3.93,1.04-.94,1.97-2,3.04-2.9,1.03-.87,2.42-1.07,3.32-.13.91.95-.26,1.86-.82,2.66-.53.75-1.16,1.44-1.74,2.15-.66.49-1.34.95-1.98,1.47-.71.57-1.21,1.49-.65,2.15.81.96,1.43-.18,2-.64.56-.45.99-1.07,1.47-1.61ZM375.93,394.59c-2.64.64-5.21,1.44-7.05,3.61-.47.56-1.03,1.28-.23,1.96.62.53,1.17.05,1.74-.34,2.09-1.45,3.93-3.16,5.54-5.23ZM339.54,394.79c-1.72.81-2.92,1.62-3.58,3.06-.35.77-.81,1.54-.18,2.36.48.62,1.17.52,1.81.35.91-.24,1.56-.85,1.39-1.82-.23-1.26.48-2.34.57-3.95ZM415.49,396.26c-.24-.68.29-2.03-.81-1.7-1.51.45-2.71,1.81-3.37,3.18-.37.78,1.01,1.76,1.8,1.7,1.86-.13,2.12-1.76,2.38-3.19ZM402.7,394.4c-2.33.35-4.11,1.2-5.48,2.82-.44.52-.69,1.26-.28,1.81.6.79,1.11.03,1.57-.35,1.48-1.2,3.19-2.19,4.19-4.28Z"/>
      <path class="cls-1" d="M497.77,397.8c2.81-1.93,5.18-4.29,8.11-5.91.75-.42,1.64-1.45,2.47-.51.89,1.02.74,2.26-.25,3.32-1.01,1.09-1.96,2.23-2.93,3.35-.45.52-.73,1.01-.03,1.63.69.62,1.02,0,1.38-.32,1.41-1.27,3.04-2.09,4.07-4.03,1.48-2.79,4.34-4.35,7.65-4.64.93-.08,2-.15,2.51.86.54,1.09-.07,2.02-.75,2.83-1.45,1.71-3.42,2.63-5.45,3.4-.74.28-1.57.56-1.41,1.47.17.98,1.12,1.23,1.99,1.24,1.6.03,2.95-.69,4.03-1.78,2.61-2.64,5.77-4.77,7.82-7.95.52-.8,1.15-.39,1.74-.4.86-.01.6.71.75,1.21.95,3.04.52,5.76-1.86,8.04,1.31.98,2.22.18,2.84-.52,2.6-2.96,6.17-4.97,8.2-8.46.36-.61.98-.91,1.7-.77.75.15.95.74,1.14,1.43.95,3.46.63,6.55-3.14,9.03,2.55.24,3.61-1.13,4.9-2.01.44-.3.9-.9,1.44-.32.34.37.05.88-.23,1.28-2.93,4.2-8.04,5.05-12.12,1.87-1.05-.82-1.56-.09-2.18.32-3.28,2.19-6.49,3.13-9.59-.28-.77-.85-1.31-.16-1.92.27-1.24.88-2.55,1.6-4.06,1.92-1.86.39-3.5.06-4.2-1.87-.72-1.98-1.63-1.68-2.84-.55-.34.32-.7.63-1.09.89-3.77,2.46-3.8,2.46-5.04-1.84-.35-1.22-.94-1.03-1.57-.41-.53.52-.86,1.23-1.34,1.81-1.17,1.38-2.39,2.47-3.61.06-.52-1.04-1.18-1.07-2.03-.43-.45.34-.9.69-1.37,1-3.42,2.27-5.2,1.66-6.53-2.44-1.3.95-2.49,1.93-3.8,2.75-2.7,1.69-4.27,1.28-5.52-1.6-.49-1.14-.9-1.21-1.81-.59-1.3.89-2.65,1.68-4.04,2.45-1.39.77-2.65,1.49-4.12.52-1.55-1.02-2.16-2.66-2.04-4.4.29-4.14,5.16-8.07,8.75-7.83.95.06,1.74.33,2.12.97.45.75-.04,1.72-.61,2.28-1.52,1.51-3.14,2.97-5.25,3.61-1.27.38-1.79,1.09-1.25,2.29.46,1.03,1.14.95,2.26.55,3.25-1.17,5.7-2.8,6.78-6.4,1.32-4.38,4.61-7.47,7.92-10.44.46-.41.99-1.04,1.73-.65.86.46.53,1.29.45,2.02-.39,3.51-2.72,5.93-4.81,8.46-.84,1.02-1.83,1.9-2.7,2.89-.85.96-.94,2.07-.22,3.12.77,1.11,1.86.8,2.79.3,1.82-.98,3.53-1.96,4.07-4.33,1.15-5.04,4.79-8.44,8.32-11.85.5-.48,1.19-1.12,2.01-.61.84.52.41,1.37.31,2.07-.45,3.36-2.62,5.78-4.66,8.25-.6.73-1.28,1.38-1.93,2.07-1.11,1.19-2.48,2.47-1.05,4.12,1.38,1.6,2.77.19,4-.52,1.4-.8,2.53-1.92,3.31-3.4.47-.9,1.11-1.76,1.84-2.48.83-.81,2.14-1.12,2.95-.41.95.82-.31,1.62-.74,2.3-.62.97-1.47,1.79-2.23,2.67ZM490.35,392.24c1.22-1.36,2.46-2.72,2.71-4.64-1.3,1.34-3.06,2.42-2.68,4.7-.14-.04-.28-.08-.42-.13-.02.08-.04.16-.05.24.15-.06.29-.12.44-.18ZM526.84,396.3c-.21-.58.34-1.51-.65-1.84-.5-.17-3.66,2.86-3.47,3.35.34.87,1.04,1.79,1.97,1.63,1.58-.26,2.23-1.49,2.15-3.15ZM538.5,396.01c-.28-.42.26-1.86-.76-1.51-1.45.51-2.74,1.79-3.28,3.25-.29.77.97,1.79,1.77,1.71,1.79-.19,2.36-1.6,2.27-3.45ZM468.42,396.17c1.14-1.04,2.84-1.22,3.2-2.88.1-.46-.58-.47-.85-.37-1.3.46-2.45,1.12-2.67,2.68,0,.07.08.15.32.58ZM513.81,396.08c2.8-.95,3.29-1.42,3.53-3.4-1.62.7-2.83,1.63-3.53,3.4ZM483.8,387.75c-1.98.84-2.91,2.37-2.95,4.45l2.95-4.45Z"/>
      <path class="cls-1" d="M83.51,385.94c-3,1.15-5.68,2.89-8.49,4.41-.63.34-1.4.96-2.08.41-.69-.56-.16-1.42-.04-2.14.26-1.48,1.11-2.59,2.39-3.34,3.26-1.92,6.64-3.59,10.32-4.55,1.35-.35,2.98-.79,3.95.57,1.01,1.42-.15,2.7-.98,3.8-2.28,3-4.68,5.9-6.95,8.9-.52.69-1.76,1.56-1.01,2.36.84.9,1.58-.39,2.26-.92,3.56-2.78,6.98-5.72,10.12-8.98.73-.75,1.73-1.81,2.9-.84,1.21,1,.62,2.18-.14,3.26-2.82,3.96-5.63,7.94-8.44,11.92-.19.26-.72.38-.45.86.28.5.62.31,1.12.23,2.78-.44,5.25-2.49,5.9-5.08.77-3.08,5.84-6.64,8.99-6.07,2.67.48,1.63,2.92,1.93,4.56.14.74-.31,1.59-.58,2.74,1.69-.2,2.5-1.06,3.12-2.24,1.43-2.74,3.44-4.41,6.87-3.51-.69,1.46-1.66,2.63-3.1,3.46-.62.36-1.7.48-1.71,1.27,0,.77-1.52,1.14-.44,2.08.86.75,1.46-.02,1.94-.41,2.26-1.84,4.37-3.87,6.67-5.65,1.06-.82,2.13-3.11,3.52-1.78,1.54,1.47-.56,2.74-1.53,3.9-.12.14-.3.24-.41.39-.84,1.21-2.25,2.2-1.9,3.91.15.74.95.49,1.42.2,1.55-.96,3.64-1.61,3.46-3.93-.17-2.24,1.09-3.47,2.58-4.67.45-.37,1.14-.81,1.5-.31.96,1.32,2.17.72,3.33.71.89,0,1.96-.37,2.52.73.63,1.24-.09,2.15-.87,2.98-1.26,1.33-3.01,2.4-2.35,4.69,2.08.02,3.27-1.61,4.94-2.52-.36,2.54-4.2,5.92-6.41,5.81-1.87-.09-2.46-1.71-1.94-4.11.24-1.08,2.28-2.24.76-3.06-1.43-.77-2.28,1.22-3.15,2.25-1.41,1.67-2.98,3.14-4.78,4.36-2.97,2.01-4.3,1.48-4.94-1.99-.51-.34-.84.03-1.2.31-3.19,2.57-3.21,2.59-5.72-.48-.42-.52-.62-.71-1.3-.36-1.58.78-3.33,1.07-4.87,2.13-1.74,1.21-3.86,1.8-5.53-.38-.9-1.18-1.62-.48-2.35.12-2.7,2.21-5.47,4.32-7.82,6.93-.93,1.03-1.97,2.61-3.46,1.74-1.77-1.05-.7-2.9-.21-4.31,1.04-3,3.22-5.38,4.8-8.09.23-.39.68-.68.31-1.46-2.4.58-3.39,3.23-5.58,4.11-.51.21-.91.67-1.4.95-1.05.6-2.14.83-3.13-.09-1.01-.94-.83-2.08-.26-3.13,1.63-2.99,3.81-5.59,5.98-8.2.95-1.14,2.17-2.1,2.67-3.59.28-.26.53-.53.21-.91-.32-.38-.64-.16-.94.06ZM100.16,394.87c-1.8.74-3.06,1.68-3.65,3.26-.33.9-.83,2.19.78,2.46,1.22.2,2.24-.24,2.38-1.74.12-1.2.29-2.39.48-3.98Z"/>
      <path class="cls-1" d="M121.91,340.49c0,4.72.03,9.44,0,14.17-.05,6.49-4.15,10.89-10.08,10.87-6.02-.02-10.1-4.32-10.13-10.85-.05-9.82.1-19.65-.07-29.46-.05-2.84,1.54-2.37,3.21-2.38,1.7-.01,3.26-.41,3.21,2.41-.16,9.72-.05,19.45-.05,29.18,0,2.15.46,4.02,2.95,4.45,2.61.45,4.18-1.11,4.2-4.29.05-8.78.02-17.57.03-26.35,0-1.13.12-2.28.01-3.4-.16-1.7.61-2.02,2.15-2.03,4.53-.02,4.54-.08,4.55,4.37.01,4.44,0,8.88,0,13.32h.01Z"/>
      <path class="cls-2" d="M405.29,343.95c0-6.13.1-12.26-.05-18.39-.06-2.43,1.17-2.79,3.09-2.83,2-.03,3.45.22,3.34,2.85-.16,4.05.08,8.11-.05,12.16-.1,2.94,1.59,3.06,3.79,2.98,2.03-.08,3.97.25,3.82-2.9-.2-4.14.06-8.3-.07-12.45-.11-3.49,2.4-2.17,4.09-2.5,2.08-.4,2.4.81,2.4,2.43-.01,12.45-.06,24.9.01,37.35.02,2.73-1.76,2.36-3.42,2.43-1.79.07-3.13-.21-3.07-2.55.1-4.24-.07-8.49.03-12.73.05-1.97-.64-2.63-2.6-2.63-4.84,0-5,.07-4.99,5,0,3.49-.12,6.99.05,10.47.13,2.77-1.67,2.4-3.35,2.46-1.75.06-3.1-.04-3.05-2.47.13-6.22.04-12.45.04-18.67h0Z"/>
      <path class="cls-1" d="M93.52,365.07c-2.47.79-3.24-.76-3.31-3.27-.03-1.22-.53-2.42-.54-3.63-.01-2.39-1.24-2.73-3.38-2.92-3.09-.28-4.21.89-4.27,3.79-.03,1.4-.45,2.79-.58,4.2-.13,1.4-.75,1.83-2.19,1.85-4.84.07-4.87.14-4.05-4.73,2-11.81,4.06-23.61,6-35.43.27-1.64.79-2.14,2.49-2.13,6.63.07,6.71-.02,7.84,6.55,1.85,10.79,3.61,21.59,5.39,32.39.54,3.31.5,3.32-3.39,3.32ZM85.56,335.74c-.55,3.88-1.09,7.77-1.67,11.65-.17,1.17.13,1.88,1.44,1.66.98-.16,2.85.67,2.69-.98-.41-4.12-.74-8.29-2.46-12.32Z"/>
      <path class="cls-1" d="M306.56,365.07c-2.39.71-3.36-.64-3.34-3.26,0-.84-.25-1.68-.37-2.52-.61-3.99-.61-3.91-4.7-3.99-1.79-.04-2.78.28-2.86,2.36-.07,1.87-.65,3.72-.85,5.59-.15,1.45-.81,1.81-2.21,1.84-4.86.1-4.88.15-4.05-4.7,1.98-11.72,4.03-23.42,5.93-35.15.31-1.9.96-2.45,2.87-2.42,6.33.1,6.39.01,7.46,6.28,1.86,10.88,3.67,21.77,5.46,32.66.54,3.31.48,3.32-3.35,3.31ZM299.25,334.79c-.18-.02-.36-.03-.54-.05-.63,4.4-1.39,8.78-1.83,13.2-.19,1.91,1.65.93,2.56,1.11,1.05.2,1.83-.15,1.62-1.54-.64-4.23-1.21-8.48-1.81-12.72Z"/>
      <path class="cls-1" d="M171.99,340.49c0,5.1.12,10.2-.04,15.29-.14,4.69-2.95,8.13-7.25,9.38-4.22,1.23-8.57-.34-11.22-4.01-1.27-1.77-1.67-3.79-1.67-5.89-.02-10.1.06-20.2-.05-30.31-.04-3.36,2.3-1.82,3.74-2.09,1.81-.34,2.67.23,2.64,2.38-.14,9.25-.09,18.5-.11,27.76,0,.66-.03,1.32.02,1.98.19,2.58,1.65,4.17,3.83,3.96,2.37-.22,3.4-1.75,3.4-4.06,0-5.19.01-10.39.01-15.58,0-4.72.07-9.44-.06-14.16-.05-1.86.51-2.6,2.38-2.32.64.1,1.33.09,1.98,0,1.87-.27,2.48.49,2.44,2.36-.1,5.1-.03,10.2-.03,15.29h-.01Z"/>
      <path class="cls-1" d="M321.43,353.36c.99-6.01,1.96-11.8,2.91-17.6.55-3.35,1.22-6.69,1.52-10.06.2-2.28.99-3.04,3.3-2.94,4.01.17,4.03.03,3.3,4-2.17,11.86-4.42,23.71-6.46,35.59-.4,2.3-1.33,2.79-3.46,2.76-5.85-.09-5.87,0-6.93-5.89-2.02-11.22-3.98-22.45-6.07-33.65-.38-2.03-.28-2.9,2.16-2.78,4.03.21,4.08.05,4.75,4.12,1.35,8.18,2.65,16.37,3.98,24.55.1.61,0,1.31,1,1.89Z"/>
      <path class="cls-2" d="M542.74,343.86c0,6.13-.12,12.27.05,18.4.08,2.77-1.5,2.73-3.41,2.8-2.05.08-3.1-.43-3-2.84.17-4.14-.1-8.3-.01-12.45.06-2.99-1.93-2.71-3.82-2.64-1.8.07-3.91-.44-3.81,2.65.13,4.15-.1,8.31.03,12.45.07,2.33-.97,2.97-3.05,2.85-1.85-.1-3.43.06-3.39-2.76.14-11.98.04-23.97.06-35.95,0-3.09,2.75-4.7,5.46-3.28,1.19.62.92,1.78.93,2.76.04,4.06.07,8.12-.04,12.17-.06,2.11.78,2.93,2.82,2.74.84-.08,1.7-.08,2.54-.02,1.73.13,2.33-.71,2.32-2.35-.04-4.25.11-8.5-.04-12.74-.1-2.93,1.7-2.77,3.68-2.82,2.12-.05,2.73.87,2.69,2.92-.11,6.04-.04,12.07-.04,18.11.01,0,.03,0,.04,0Z"/>
      <path class="cls-2" d="M465.15,322.86q4.58,0,5.32,4.47c1.92,11.61,3.84,23.21,5.74,34.82.19,1.18,1,2.93-1.33,2.76-1.85-.14-4.57,1.61-5.15-1.98-.24-1.49-.65-2.96-.72-4.46-.12-2.32-1.03-3.32-3.49-3.27-2.27.04-3.86.39-4.01,3.06-.07,1.21-.44,2.41-.61,3.62-.41,2.88-3.64,4.46-6.19,2.97-1.35-.79-.6-2.11-.44-3.07,1.23-7.52,2.6-15.02,3.9-22.54.7-4.08,1.27-8.18,2.04-12.25.78-4.14.85-4.12,4.97-4.13ZM465.66,336.03c-.24,0-.48,0-.71,0-.58,3.75-1.16,7.49-1.73,11.24-.26,1.72.91,1.81,2.11,1.79,1.03-.02,2.32.07,2.1-1.51-.52-3.85-1.17-7.68-1.77-11.52Z"/>
      <path class="cls-1" d="M264.92,343.78c0-6.23.06-12.46-.04-18.7-.03-1.84.46-2.44,2.39-2.37,4.52.16,9.06.13,13.58,0,1.72-.05,2.49.38,2.29,2.18-.09.84-.07,1.7,0,2.55.11,1.36-.47,1.85-1.81,1.81-2.55-.07-5.1.1-7.64-.06-1.93-.12-2.47.62-2.36,2.44.13,2.35.09,4.72,0,7.08-.05,1.41.36,2.09,1.89,1.98,1.41-.1,2.85.13,4.24-.05,3.45-.43,2.19,2.09,2.41,3.69.25,1.85-.02,2.94-2.44,2.89-6.08-.13-6.09,0-6.08,5.98q.01,5.38,5.51,5.38c.94,0,1.91.14,2.83-.03,2.99-.54,3.62.78,3.52,3.55-.08,2.24-.49,3.14-2.94,3.02-4.23-.21-8.49-.17-12.73-.02-2.06.07-2.77-.4-2.7-2.63.18-6.23.06-12.46.06-18.69Z"/>
      <path class="cls-1" d="M371.58,365.57c-6.36.16-9.96-4.61-10.69-10.56-.07-.58-.09-1.31.55-1.43,1.29-.24,2.61-.27,3.92-.39,2.1-.2,1.73,1.55,2.1,2.68.91,2.82,2.67,4.1,4.91,3.52,2.18-.56,3.28-2.68,2.84-5.43-.36-2.27-1.76-3.88-3.36-5.39-2.74-2.58-5.6-5.03-7.9-8.05-2.61-3.43-3.01-7.27-2.06-11.27,1.09-4.6,5.11-7.18,10.31-6.88,4.74.27,8.52,3.66,9.12,8.15.1.75.35,1.52-.79,1.72-1.3.22-2.58.56-3.89.72-2.12.26-1.46-1.8-2.11-2.74-.88-1.28-1.84-2.21-3.43-1.96-1.69.26-2.63,1.44-2.92,3.05-.62,3.43,1.06,6.03,3.33,8.29,1.93,1.92,4.11,3.6,5.97,5.59,2.71,2.89,4.46,6.27,4.33,10.41-.2,6.19-4.06,9.99-10.23,10Z"/>
      <path class="cls-1" d="M338.29,343.97c0-6.23.06-12.45-.04-18.68-.03-1.91.41-2.67,2.5-2.59,4.52.16,9.05.1,13.57.02,1.5-.03,2.26.21,2.2,1.97-.2,5.45.67,4.54-4.4,4.56-7.42.02-7.44-.02-7.4,7.51.03,4.58-.53,3.84,3.88,3.93.28,0,.58-.05.85.01,1.23.27,3.09-.79,3.62.57.57,1.48.26,3.33.17,5.01-.06,1.03-1.02.87-1.76.91-2.13.12-4.91-1-6.23.49-1.48,1.67-.33,4.51-.51,6.84-.06.75,0,1.51-.01,2.26-.03,1.28.51,1.85,1.86,1.81,2.54-.07,5.1.11,7.63-.05,1.93-.13,2.53.61,2.3,2.4-.07.56-.07,1.14,0,1.7.22,1.79-.38,2.51-2.32,2.45-4.52-.13-9.05-.14-13.57,0-1.98.06-2.34-.68-2.31-2.47.1-6.22.04-12.45.04-18.68-.01,0-.03,0-.04,0Z"/>
      <path class="cls-2" d="M431.33,344.12c0-6.23.06-12.45-.04-18.68-.03-1.98.7-2.68,2.61-2.65,4.43.06,8.86.07,13.28,0,2.4-.04,2.17,1.64,2.14,3.1-.03,1.48.5,3.42-2.16,3.32-2.26-.08-4.53.11-6.78-.02-2-.12-2.72.7-2.64,2.61.1,2.35.13,4.71.1,7.07-.02,1.49.67,2.02,2.05,1.96.94-.05,1.88-.05,2.83-.06,3.36-.01,3.63.33,3.51,3.75-.05,1.57-.52,2.56-2.28,2.48-.28-.01-.56.04-.85.06q-5.48.36-5.38,5.86.11,5.65,5.66,5.68c.66,0,1.32.01,1.98.02,4.03.02,4.01.09,3.94,4.11-.03,1.77-.79,2.31-2.37,2.3-4.43-.03-8.86-.07-13.29,0-1.88.03-2.37-.74-2.35-2.53.09-6.13.04-12.26.04-18.39h-.01Z"/>
      <path class="cls-2" d="M291.82,223.77c-1.19-1.47-.25-3.34-1.34-4.62-.23.07-.45.07-.57.18-.69.59-.11,2.23-1.38,2.14-1-.07-1.25-1.35-1.55-2.2-4.2-11.86-.92-20.9,7.8-29.02,2.07-1.93,3.72-1.25,5.01,1.39,3.55,7.34,2.25,14.55-.8,21.54-1.67,3.84-3.67,7.63-7.16,10.59Z"/>
      <path class="cls-1" d="M396.68,338.84c0,9.05-.1,18.1.06,27.15.05,2.66-1.29,2.59-3.14,2.55-1.83-.03-3.39.32-3.37-2.59.13-18.01.11-36.01,0-54.02-.01-2.35.92-2.69,2.83-2.5,1.72.17,3.75-.73,3.68,2.54-.19,8.95-.07,17.91-.07,26.87Z"/>
      <path class="cls-1" d="M133.7,347.26c0-5.19-.09-10.38.04-15.56.05-1.89-.56-2.63-2.4-2.4-.28.04-.56,0-.85,0-3.25-.01-4.8-2.52-3.53-5.64.31-.77.83-.84,1.56-.83,5.46.03,10.93.07,16.39,0,1.53-.02,2.02.59,1.93,2-.06.84-.09,1.71,0,2.54.18,1.5-.41,2.1-1.9,1.95-.65-.07-1.33.07-1.98-.03-2.2-.31-2.91.54-2.88,2.8.11,10.09-.09,20.19.13,30.27.07,3.41-1.96,2.5-3.79,2.72-2.33.28-2.84-.64-2.77-2.84.16-4.99.05-10,.05-14.99Z"/>
      <path class="cls-1" d="M290.15,397.19c1.93.08,2.79-.85,3.75-1.54.92-.66,1.76-1.43,2.7-2.04,1.16-.74,2.52-1.98,3.76-.61,1.21,1.33-.37,2.34-1.06,3.38-.15.24-.34.45-.53.66-.62.69-1.73,1.54-1.07,2.33.82,1,1.81-.18,2.69-.59.61-.28,1.27-1.35,1.88-.41.56.87-.6,1.23-1.14,1.62-1.37,1-2.78,1.94-4.24,2.8-.83.49-1.83.69-2.63-.09-.8-.78-.59-1.81-.19-2.65.56-1.17,1.33-2.23,2.34-3.87-2.6,1.51-4.1,3.33-5.68,5.09-.92,1.02-2.04,2.47-3.01-.1-.47-1.24-1.31-.66-2.04-.15-1.31.91-2.48,2.04-4.05,2.54-1.81.58-3.45.74-3.78-1.78-.18-1.36-.81-1.24-1.71-.64-1.17.78-2.33,1.61-3.58,2.25-1.47.75-2.74.46-2.7-1.45.07-3.25-1.21-1.47-2.37-.77-1.14.69-2.09,2.22-3.7,1.43-1.35-.66-2.03-1.98-2.18-3.46-.17-1.68.94-2.82,2.03-3.86,2.31-2.19,5.15-3.47,8.19-4.26,1.13-.3,2.75-.81,3.4.39.6,1.09.64,2.66-.03,3.96-.34.66-.9,1.21-1.29,1.85-.45.75-1.52,1.54-.49,2.43.89.76,1.82-.03,2.52-.58,1.25-.99,2.53-2.02,3.51-3.26.44-.56,3.42-1.9-.15-2.51-.68-.12-.3-.77-.08-1.15.58-.98,1.19-2.11,2.35-2.33,1.83-.35,3.32-1.07,4.48-2.56.46-.58,1.29-.93,2.05-.68,1.22.39.07,1.35.27,1.75,1.81,3.77-.36,4.67-3.43,5.22-1.46.26-3.64,4.26-3.44,5.82.2,1.57,1.41,1.24,2.12.85,1.94-1.06,3.77-2.31,4.81-4.42,2.42-4.89,5.95-8.91,10-12.5.96-.86,2.18-2.25,3.37-1.26,1.39,1.16-.19,2.42-.9,3.35-3.12,4.12-6.55,7.99-10.77,11.78ZM271.59,394.67c-2.58.76-5.28,1.32-7,3.7-.39.54-.9,1.12-.3,1.75.6.64,1.21.13,1.77-.21,2.2-1.31,3.87-3.22,5.53-5.25Z"/>
      <path class="cls-2" d="M504.12,347.29c0-4.91-.1-9.82.04-14.72.07-2.44-.76-3.34-3.22-3.33-3.82.02-4.03-.42-3.6-4.28.17-1.49.79-2.17,2.33-2.17,5.09.03,10.18.04,15.27-.05,2.36-.04,2.56,1.33,2.46,3.13-.09,1.62.46,3.55-2.32,3.43-4.93-.22-4.42.42-4.43,4.89-.02,9.34-.13,18.69.05,28.03.05,2.81-1.29,2.98-3.4,3-2.08.01-3.33-.27-3.21-2.92.22-4.99.06-10,.06-15h-.02Z"/>
      <path class="cls-1" d="M243.3,343.79c0-6.22.07-12.44-.04-18.66-.03-1.91.56-2.41,2.43-2.35,4.02.14,4.02.04,4.02,4.01,0,9.8.07,19.6-.01,29.4-.02,1.96.52,2.64,2.51,2.48,2.15-.18,4.33.04,6.49-.07,1.44-.07,2.14.32,2.01,1.86-.07.94-.08,1.89.02,2.82.15,1.41-.51,1.8-1.8,1.79-4.61-.04-9.23-.07-13.84.03-1.67.04-1.79-.8-1.78-2.1.04-6.41.02-12.82.02-19.22h-.01Z"/>
      <path class="cls-1" d="M450.64,395.29c-2.04.94-2.57,2.74-3.87,3.77-1.1.87-1.96,2.05-3.08,2.89-1.28.96-2.61,2.57-4.39.83-1.7-1.66-2.14-3.58-.54-5.54,2.38-2.91,4.88-5.73,7.28-8.63.74-.9,2.41-1.77,1.71-2.92-.8-1.31-2.44-.36-3.58.08-2.45.95-4.81,2.14-7.22,3.2-1.72.76-2.5.33-2.17-1.69.52-3.11,3.11-5.09,6.4-5.25,1.65-.08,3.24-.99,4.9-1.22,1.61-.22,3.59-.77,4.63,1.05,1.08,1.9,1.05,3.93-.31,5.87-2,2.85-3.98,5.7-6.52,8.12-.64.61-1.53,1.12-1.68,2.48,2.06-.8,3.58-2.06,4.95-3.49,3.36-3.5,6.64-7.07,9.97-10.6.87-.92,1.72-2.43,3.22-1.4,1.59,1.1.66,2.55-.11,3.73-2.13,3.27-4.62,6.31-6.18,9.93-.28.65-1.04,1.31-.3,2.02.78.74,1.42-.03,1.93-.49,3.78-3.42,7.47-6.91,8.37-12.31.06-.36.19-.75.39-1.05.51-.76.96-1.95,2-1.72,1.23.28.87,1.6.69,2.41-1.69,7.53-6,13.31-12.31,17.55-2.05,1.38-4.89-.58-4.82-3.11.04-1.36.36-2.71.63-4.54Z"/>
      <path class="cls-2" d="M481.97,343.87c0-6.13.08-12.27-.04-18.4-.04-2.2.84-2.8,2.84-2.62,1.78.16,3.7-.52,3.65,2.63-.17,9.72-.03,19.44-.05,29.16,0,3.96-.05,3.97,3.78,4,1.32.01,2.66.14,3.96,0,2.62-.31,3.37.76,3.33,3.33-.03,2.26-.5,3.21-2.95,3.1-4.05-.18-8.11-.08-12.16-.04-1.74.02-2.46-.49-2.41-2.46.15-6.23.05-12.46.05-18.68h-.01Z"/>
      <path class="cls-1" d="M254.66,380.28c.51.04,1.83.07,3.14.24,2.5.33,4.91.98,5.95,3.62,1.13,2.86.59,5.59-1.31,7.97-3.33,4.19-8.01,5.37-13.05,5.66-.85.05-1.7.06-2.54,0-1.56-.12-2.25.65-2.34,2.12-.03.46.07,1.05-.16,1.37-.95,1.31-1.76,3.81-3.49,3.02-1.95-.89-.15-2.75.44-4.09.69-1.57,1.68-2.79.59-4.87-.93-1.78,1.38-2.55,2.68-2.84,3.45-.77,4.4-3.9,6.21-6.16,1.01-1.26-.34-1.21-1.17-1.14-2.56.19-4.99.95-7.45,1.62-.52.14-1.15.51-1.56-.05-.4-.54.12-1.04.37-1.54,1.18-2.33,2.9-3.79,5.6-4.21,2.43-.38,4.83-.78,8.1-.73ZM248.79,393.41c3.78,1.79,10.48-1.22,12.31-4.27,1.02-1.7.69-2.78-1.1-3.57-4.79-2.11-8.88.69-8.61,5.94.03.49-.26.59-.62.75-.65.28-1.56.08-1.99,1.16Z"/>
      <path class="cls-1" d="M318.44,389.2c-1.04-.41-2.87.55-3.05-1.15-.19-1.79-.2-4.02,1.79-5.01,5.77-2.87,11.93-3.23,18.14-1.98,2.13.43,2.85,3.52,1.57,5.59-2.15,3.48-4.19,7.03-6.56,10.36-1.16,1.63-.54,3.87-2.28,5.24-1.14.9-1.97,2.84-3.65,1.74-1.64-1.07-.47-2.77.15-4.03,2.01-4.06,4.97-7.5,7.62-11.14.67-.92,2.28-1.79,1.53-2.98-.66-1.05-2.28-.36-3.44-.21-2.88.37-5.75.88-8.61,1.38-.79.14-1.84-.21-1.04,1.55.46,1.03-1.4.31-2.17.62Z"/>
    </g>
  </g>
</svg>