<?xml version="1.0" encoding="UTF-8"?>
<svg id="Layer_2" data-name="Layer 2" xmlns="http://www.w3.org/2000/svg" viewBox="0 0 367.08 191.18">
  <defs>
    <style>
      .cls-1 {
        fill: #fff;
        stroke-width: 0px;
      }
    </style>
  </defs>
  <g id="Layer_1-2" data-name="Layer 1">
    <g>
      <path class="cls-1" d="M236.98,64.81l-8.6-5.47-5.93-3.78-21.19-13.49c6.38-4.14,10.38-11.27,10.38-19.19,0-6.28-2.63-12.36-7.21-16.67C199.77,1.84,193.68-.35,187.29.05c-11.19.69-20.36,9.63-21.34,20.78-.76,8.68,3.31,16.73,10.28,21.24l-19.23,12.25-1.95,1.24-5.93,3.78-2.42,1.54-6.18,3.93c-.92.59-1.48,1.6-1.48,2.7v16.05c0,5.86,4.76,10.62,10.62,10.62,2.99,0,5.85-1.27,7.86-3.47,2.01-2.21,3-5.18,2.72-8.15l-1.37-14.42-.4-4.14-6.04,3.85.36,3.84,1.09,11.47c.11,1.21-.27,2.35-1.08,3.25-.82.89-1.92,1.39-3.13,1.39-2.33,0-4.23-1.9-4.23-4.24v-14.3l4.75-3.03,1.98-1.26,6.04-3.85,3.92-2.49,22.41-14.28c1.04-.67,1.61-1.88,1.45-3.1-.16-1.23-1.02-2.26-2.21-2.63-7.42-2.34-12.13-9.43-11.45-17.23.7-8.03,7.31-14.47,15.37-14.98,4.62-.28,9.01,1.29,12.36,4.44,3.36,3.16,5.21,7.43,5.21,12.02,0,7.25-4.63,13.57-11.52,15.74-1.18.38-2.04,1.4-2.21,2.63-.16,1.23.4,2.44,1.45,3.1l15.8,10.06,10.54,6.71,6.04,3.85,2.61,1.66,4.12,2.62v14.3c0,2.34-1.9,4.24-4.24,4.24-1.21,0-2.32-.5-3.13-1.39-.82-.89-1.2-2.05-1.09-3.25l1.02-10.74.43-4.55-6.04-3.84-.46,4.84-1.3,13.69c-.28,2.97.71,5.93,2.72,8.15,2.01,2.21,4.87,3.47,7.86,3.47,5.85,0,10.61-4.76,10.61-10.62v-16.05c0-1.09-.56-2.11-1.47-2.7"/>
      <path class="cls-1" d="M151.7,33.37c0,6.66-3.96,12.65-10.08,15.27-1.09.47-1.83,1.5-1.92,2.67-.1,1.18.46,2.32,1.46,2.95l5.66,3.61,5.91-3.8-3.74-2.38c5.65-4.28,9.1-11.01,9.1-18.32,0-6.32-2.64-12.42-7.25-16.76-4.67-4.39-10.78-6.59-17.2-6.19-11.78.73-21.24,10.57-21.53,22.39-.18,7.54,3.26,14.49,9.08,18.88l-7.52,4.8c-.77.49-1.29,1.28-1.43,2.19l-6.85,42.47c-.28,1.74.91,3.37,2.65,3.66,1.74.28,3.38-.91,3.66-2.65l.54-3.39,6.07-37.67,10.72-6.84c.99-.63,1.56-1.77,1.46-2.95-.1-1.18-.84-2.21-1.92-2.67-6.29-2.69-10.24-8.85-10.08-15.68.21-8.54,7.03-15.64,15.54-16.17,4.65-.29,9.06,1.31,12.44,4.47,3.38,3.18,5.24,7.48,5.24,12.1"/>
      <path class="cls-1" d="M272.12,101.14l-6.85-42.47c-.06-.38-.18-.74-.38-1.06h0c-.26-.45-.62-.84-1.06-1.12l-7.52-4.8c5.65-4.28,9.1-11.01,9.1-18.32,0-6.32-2.65-12.42-7.25-16.76-4.67-4.39-10.79-6.59-17.2-6.19-11.79.73-21.25,10.57-21.54,22.39-.18,7.54,3.27,14.49,9.08,18.88l-3.76,2.4,5.91,3.79,5.68-3.62c.99-.63,1.56-1.77,1.46-2.95-.09-1.18-.84-2.2-1.92-2.67-6.29-2.69-10.24-8.85-10.08-15.68.21-8.54,7.04-15.64,15.54-16.17,4.64-.29,9.06,1.3,12.44,4.47,3.38,3.18,5.24,7.47,5.24,12.1,0,6.66-3.96,12.65-10.08,15.27-1.08.47-1.83,1.5-1.92,2.67-.1,1.18.47,2.32,1.46,2.95l10.71,6.84,5.69,35.3.93,5.76c.26,1.57,1.61,2.68,3.15,2.68.16,0,.34,0,.51-.03,1.74-.28,2.92-1.92,2.64-3.66"/>
      <polygon class="cls-1" points="14.46 115.17 7.18 130.58 7.18 115.17 0 115.17 0 155.51 7.18 155.51 7.18 143.05 8.52 140.54 14.26 155.51 21.69 155.51 12.9 133.23 21.76 115.17 14.46 115.17"/>
      <polygon class="cls-1" points="24.67 155.51 31.85 155.51 31.85 139.27 39.83 139.27 39.83 132.65 31.85 132.65 31.85 121.79 42.03 121.79 42.03 115.17 24.67 115.17 24.67 155.51"/>
      <polygon class="cls-1" points="59.46 135.45 53.99 115.17 45.35 115.17 45.35 155.51 51.92 155.51 51.92 130.29 58.73 155.51 65.97 155.51 65.97 115.17 59.46 115.17 59.46 135.45"/>
      <polygon class="cls-1" points="94.13 132.03 88.11 132.03 88.11 115.17 80.93 115.17 80.93 155.51 88.11 155.51 88.11 138.65 94.13 138.65 94.13 155.51 101.43 155.51 101.43 115.17 94.13 115.17 94.13 132.03"/>
      <path class="cls-1" d="M118.64,146.02c0,1.28-.24,2.16-.72,2.62-.49.47-1.14.7-1.99.7s-1.5-.23-1.98-.7c-.48-.46-.72-1.34-.72-2.62v-30.85h-7.18v30.45c0,3.3.83,5.88,2.46,7.67,1.64,1.81,4.09,2.72,7.25,2.72s5.61-.92,7.25-2.72c1.63-1.79,2.46-4.37,2.46-7.67v-30.45h-6.84v30.85Z"/>
      <polygon class="cls-1" points="143.68 140.38 139.57 115.17 130.04 115.17 130.04 155.51 136.44 155.51 136.44 133.27 140.12 155.51 146.82 155.51 150.16 133.44 150.16 155.51 157.01 155.51 157.01 115.17 147.48 115.17 143.68 140.38"/>
      <path class="cls-1" d="M166.65,115.17l-6.45,40.34h6.69l1.07-7.14h6.73l1.07,7.14h7.26l-6.45-40.34h-9.9ZM173.69,142.03h-4.8l2.4-16.02,2.4,16.02Z"/>
      <polygon class="cls-1" points="200.24 135.45 194.77 115.17 186.13 115.17 186.13 155.51 192.7 155.51 192.7 130.29 199.51 155.51 206.75 155.51 206.75 115.17 200.24 115.17 200.24 135.45"/>
      <path class="cls-1" d="M230.92,114.72c-3.17,0-5.61.92-7.25,2.72-1.63,1.79-2.46,4.37-2.46,7.67v20.46c0,3.3.83,5.88,2.46,7.67,1.65,1.8,4.09,2.72,7.25,2.72s5.61-.91,7.25-2.72c1.63-1.79,2.46-4.37,2.46-7.67v-5.73h-6.85v6.12c0,1.28-.24,2.16-.72,2.62-.49.47-1.14.7-1.98.7s-1.5-.23-1.98-.7c-.48-.46-.72-1.34-.72-2.62v-21.24c0-1.28.24-2.17.72-2.65.49-.49,1.14-.72,1.98-.72s1.49.24,1.98.72c.48.48.73,1.37.73,2.65v4.72h6.85v-4.32c0-3.3-.83-5.88-2.46-7.67-1.65-1.81-4.09-2.72-7.25-2.72"/>
      <path class="cls-1" d="M249.54,115.17l-6.36,39.76-.09.58h6.69l1.07-7.14h6.72l1.07,7.14h7.25l-6.45-40.34h-9.9ZM256.58,142.03h-4.8l2.4-16.02,2.4,16.02Z"/>
      <path class="cls-1" d="M278.69,115.17h-9.6v40.34h7.18v-14.78h2.42c3.24,0,5.7-.89,7.31-2.63,1.6-1.74,2.41-4.29,2.41-7.59v-5.11c0-3.3-.81-5.85-2.41-7.59-1.61-1.75-4.07-2.63-7.31-2.63M276.26,121.79h2.42c.84,0,1.46.21,1.89.64.42.42.64,1.31.64,2.57v5.9c0,1.26-.22,2.15-.64,2.57-.43.43-1.05.64-1.89.64h-2.42v-12.32Z"/>
      <rect class="cls-1" x="291.96" y="115.17" width="7.18" height="40.34"/>
      <polygon class="cls-1" points="302.24 121.79 308.7 121.79 308.7 155.51 315.88 155.51 315.88 121.79 322.35 121.79 322.35 115.17 302.24 115.17 302.24 121.79"/>
      <path class="cls-1" d="M330.19,115.17l-6.36,39.76-.09.58h6.69l1.07-7.14h6.72l1.07,7.14h7.25l-6.45-40.34h-9.9ZM337.23,142.03h-4.8l2.4-16.02,2.4,16.02Z"/>
      <polygon class="cls-1" points="356.91 148.89 356.91 115.17 349.73 115.17 349.73 155.51 367.08 155.51 367.08 148.89 356.91 148.89"/>
      <path class="cls-1" d="M86.42,188.72l1.67-3.71c1.8,1.31,4.47,2.22,7.03,2.22,2.92,0,4.11-.98,4.11-2.28,0-3.99-12.39-1.25-12.39-9.16,0-3.62,2.92-6.63,8.98-6.63,2.68,0,5.42.64,7.4,1.89l-1.52,3.75c-1.98-1.13-4.02-1.67-5.9-1.67-2.92,0-4.05,1.09-4.05,2.43,0,3.93,12.39,1.22,12.39,9.04,0,3.56-2.95,6.61-9.04,6.61-3.38,0-6.79-1.01-8.68-2.47"/>
      <path class="cls-1" d="M107.39,180.16c0-6.33,4.93-11.02,11.66-11.02s11.66,4.66,11.66,11.02-4.96,11.02-11.66,11.02-11.66-4.69-11.66-11.02M125.72,180.16c0-4.05-2.86-6.82-6.67-6.82s-6.67,2.77-6.67,6.82,2.86,6.82,6.67,6.82,6.67-2.77,6.67-6.82"/>
      <polygon class="cls-1" points="135.64 169.51 140.57 169.51 140.57 186.8 151.26 186.8 151.26 190.82 135.64 190.82 135.64 169.51"/>
      <path class="cls-1" d="M155.06,181.44v-11.93h4.93v11.75c0,4.05,1.77,5.72,4.75,5.72s4.75-1.67,4.75-5.72v-11.75h4.87v11.93c0,6.27-3.59,9.74-9.65,9.74s-9.65-3.47-9.65-9.74"/>
      <polygon class="cls-1" points="184.83 173.53 178.01 173.53 178.01 169.51 196.58 169.51 196.58 173.53 189.76 173.53 189.76 190.82 184.83 190.82 184.83 173.53"/>
      <rect class="cls-1" x="200.41" y="169.51" width="4.93" height="21.31"/>
      <path class="cls-1" d="M210.27,180.16c0-6.33,4.93-11.02,11.66-11.02s11.66,4.66,11.66,11.02-4.96,11.02-11.66,11.02-11.66-4.69-11.66-11.02M228.6,180.16c0-4.05-2.86-6.82-6.67-6.82s-6.67,2.77-6.67,6.82,2.86,6.82,6.67,6.82,6.67-2.77,6.67-6.82"/>
      <polygon class="cls-1" points="258.06 169.51 258.06 190.82 254.01 190.82 243.39 177.88 243.39 190.82 238.52 190.82 238.52 169.51 242.6 169.51 253.19 182.45 253.19 169.51 258.06 169.51"/>
      <path class="cls-1" d="M262.66,188.72l1.67-3.71c1.8,1.31,4.48,2.22,7.03,2.22,2.92,0,4.11-.98,4.11-2.28,0-3.99-12.39-1.25-12.39-9.16,0-3.62,2.92-6.63,8.98-6.63,2.68,0,5.42.64,7.4,1.89l-1.52,3.75c-1.98-1.13-4.02-1.67-5.9-1.67-2.92,0-4.05,1.09-4.05,2.43,0,3.93,12.39,1.22,12.39,9.04,0,3.56-2.95,6.61-9.04,6.61-3.38,0-6.79-1.01-8.68-2.47"/>
    </g>
  </g>
</svg>