<?xml version="1.0" encoding="UTF-8"?>
<svg id="Layer_2" data-name="Layer 2" xmlns="http://www.w3.org/2000/svg" viewBox="0 0 981.9 435.33">
  <defs>
    <style>
      .cls-1 {
        fill: #323232;
      }

      .cls-1, .cls-2 {
        stroke-width: 0px;
      }

      .cls-2 {
        fill: #232323;
      }
    </style>
  </defs>
  <g id="Layer_1-2" data-name="Layer 1">
    <g>
      <path class="cls-2" d="M171.84,329.86c-2.92-.41-7.39.16-11.77-1.24-11.38-3.64-16.54-11.93-14.96-23.74,1.26-9.45,5.36-17.54,10.65-25.25,19.2-27.98,42.92-51.65,69.48-72.6,30.08-23.73,62.76-43.03,98.71-56.51,13.37-5.01,26.75-10.2,41.54-9.84,20.72.5,29.36,11.45,24.06,31.49-1.8,6.79-4.98,13.07-8.39,19.2-.55.99-1.12,2.13-2.39,2.08-1.62-.05-1.07-1.63-1.49-2.56-2.54-5.65-4.96-11.38-7.77-16.9-3.41-6.7-6.31-7.76-14.09-6.22-9.56,1.89-18.73,5.03-27.7,8.75-36.69,15.22-69.51,36.72-99.94,62-18.32,15.22-35.51,31.57-48.88,51.49-2.75,4.1-5.29,8.31-6.33,13.26-.85,4.06.83,6.43,4.81,6.24,3.67-.17,5.88,1.54,8.23,3.87,3.16,3.14,6.64,5.96,9.97,8.92.9.8,2.52,1.2,2.15,2.8-.31,1.31-1.78,1.17-2.78,1.51-7,2.39-14.2,3.53-23.09,3.24Z"/>
      <path class="cls-2" d="M274.01,332.83c.74-.36,1.48-.73,2.22-1.09,1.25.29,2.28.18,2.55-1.36,4.12-3.12,8.16-6.32,10.95-10.79,2.24-1.08,2.12-3.2,2.29-5.19.06-.52.11-1.04.17-1.55,1.34-1.26,1.33-2.53.03-3.81-.09-1.1-.18-2.2-.27-3.3.29-1.1.23-2.05-1.04-2.5-.55-1.22-1.11-2.45-1.66-3.67.12-1.03-.15-1.81-1.28-2.07l-.6-.89c.07-1.21-.48-1.89-1.7-2-2.61-2.3-5.23-4.61-7.84-6.91-.14-1.3-.93-1.7-2.12-1.56-.25-.15-.49-.31-.74-.46-.19-1.29-1.03-1.59-2.17-1.43-.36.07-.6-.07-.71-.42-.21-1.4-1.13-1.65-2.34-1.43-.49-.29-.98-.58-1.47-.87-.3-1.06-1.08-1.28-2.05-1.17-3.4-1.44-6.51-3.38-9.45-5.6-.28-.96-.99-1.21-1.9-1.16-2.87-1.23-5.36-3.02-7.63-5.14-.18-1.14-.91-1.58-2-1.54-2.08-1.16-4.1-2.39-5.66-4.24-.19-1.06-.86-1.54-1.91-1.53-1.58-.73-2.92-1.75-3.91-3.2-.1-1.12-.78-1.56-1.84-1.55-1.96-1.67-4.69-2.64-5.22-5.64,1.26-.36,2.09-1.12,2.28-2.47.96-.8,1.92-1.59,2.87-2.39,1.64-.04,2.62-.84,2.87-2.48,17.29-14.88,36.1-27.63,55.7-39.25,7.59-4.5,7.63-4.46,14.28,1.4,13.24,11.67,24.98,24.61,32.53,40.74,11.78,25.19,8.64,48.44-9.93,69.39-4.58,1.94-6.73,6.16-9.32,9.97-.28.2-.57.4-.85.6-1.01-.09-1.76.21-2.01,1.29-.49.26-.97.51-1.46.77-1.08-.24-1.99-.13-2.37,1.12-.59.23-1.17.45-1.76.68-7.38,2.21-14.77,4.43-22.15,6.64-.46.07-.92.14-1.38.21-1.56-.19-3.18-.76-4.4.84-.7.45-1.43.57-2.21.17-6.22,0-12.43,0-19.28,0,1.57-1.76,3.48-.61,4.26-2.13.48-.08.96-.16,1.43-.24,1.04.27,1.96.24,2.45-.92.67-.14,1.33-.28,2-.42,1.81.94,2.78-.25,3.75-1.46Z"/>
      <path class="cls-2" d="M327.63,317.62c13.81-11.53,23.1-25.66,25.34-43.87,1.91-15.45-2.3-29.69-8.95-43.32-6.63-13.59-15.82-25.39-26.76-35.79-2.42-2.3-2.52-3.69.59-5.07,12.66-5.61,25.34-11.11,39.05-13.82,3.05-.6,4.57.12,6.09,2.81,19.94,35.35,16.58,83.74-7.92,116.09-7.25,9.57-15.84,17.57-25.56,24.47-.47.33-1.15.36-1.74.53-1.17-.59-.25-1.35-.15-2.03Z"/>
      <path class="cls-2" d="M241.23,334.19c-7.84.56-14.37-3.03-20.97-6.09-13.5-6.26-24.9-15.33-34.77-26.44-2.1-2.36-2.12-4.13-.44-6.65,7.49-11.19,16.55-21.01,25.91-30.62,1.94-1.99,3.24-1.78,5.09.12,10.17,10.47,21.78,19.09,34.24,26.66,5.79,3.52,10.73,8.02,13.96,14.12,6.11,11.54,1.5,23.1-10.95,27.05-3.92,1.25-7.98,2.32-12.06,1.84Z"/>
      <path class="cls-2" d="M256.76,122.48c6.34-1.18,12.69-1.11,19.05-.21-.28.65-.56,1.3-.84,1.95-4.38,1.05-8.75,2.11-13.13,3.16-1.06-.25-1.92-.09-2.28,1.11-4.87,2.75-9.32,6.02-13.07,10.19-1.07.26-1.31,1.03-1.24,2l-.88,1.84c-1.37,1.29-2.08,2.79-1.48,4.7l.09,6.94c-.97.87-.55,1.43.43,1.85,2.55,6.35,6.78,11.44,12.12,15.6,2.47,1.92,2.02,3-.41,4.5-18.6,11.49-35.96,24.65-52.3,39.13-2.99,2.65-4.05,1.58-5.43-1.42-11.18-24.43-8.36-46.93,9.04-67.51.51-.61,1.04-1.21,1.56-1.81,4.46-2.1,6.11-6.86,9.5-9.97,1.36-1.25,2.77-2.38,4.73-2.48.91.12,1.63-.12,1.97-1.06,2.43-1.58,5.17-2.34,7.93-3.07,1.05.37,2.01.44,2.61-.75,2.11-1.47,4.56-1.78,7.02-2.07,1.28.23,2.62.74,3.52-.76.67-.17,1.33-.35,2-.52.71.82,1.28.63,1.76-.24,1.03-.51,2.11-.71,3.24-.4,1.56.19,3.21.94,4.49-.68Z"/>
      <path class="cls-1" d="M444.67,249.71c1.62-8.3.93-17.71-1.37-21.39,1.46-.98,3.08-.42,4.62-.5,13.74-.76,27.5-.08,41.25-.41,9.08-.22,18.24.53,27.36-.24,1.63-.14,2.41.7,2.47,2.19.08,1.88.02,3.76.02,6.9-2.97-4.85-6.58-5.9-10.97-5.48-2.46.24-3.46,1.12-3.23,3.53.1,1.11-.15,2.28.1,3.34.54,2.25-1.87,5.61,1.71,6.62,3.25.91,6.7.67,8.84-3.79,1.3,4.05,1.01,7.37.46,10.76-1.88.03-1.65-1.83-2.72-2.45-2.24-1.29-4.66-1.51-6.93-.74-2.47.84-1.63,3.31-1.32,5,.46,2.56-2.01,6.04,1.7,7.59,3.9,1.63,9.63-.63,12.1-4.34.52-.77.72-1.81,1.82-2.08,2.05,6.5-.56,10.25-7.15,10.27-6.53.02-13.06,0-20.34,0,5.08-6.27,2.37-13.05,2.93-19.44.33-3.8.07-7.65.05-11.47,0-2.07-.6-4.28-2.9-4.18-2.21.1-1.07,2.49-1.41,3.88-.14.59-.38,1.16-.57,1.72-1.62-.14-1.61-1.55-2.24-2.34-2.22-2.76-5.3-2.11-7.99-1.69-3.11.49-1.61,3.37-1.66,5.16-.17,6.37.02,12.75-.11,19.13-.07,3.08-.01,6.01,3.29,8.82h-15.08c3.09-2.85,2.95-6.04,2.88-9.33-.15-6.21.04-12.43-.08-18.65-.03-1.74,1.17-4.35-1.26-5.02-2.52-.7-5.45-.98-7.73,1.09-.9.82-1.53,1.92-2.28,2.89-.28-.19-.58-.31-.75-.53-1.06-1.42.65-4.74-2.06-4.55-2.63.19-2.01,3.19-2.01,5.17.03,8.76.14,17.53.23,26.29,0,.93.48,2.09-.54,2.61-1.25.64-2.02-.52-2.8-1.25-6.26-5.91-12.48-11.87-18.76-17.75-.84-.79-1.51-2.38-3.06-1.63-1.28.62-.6,2-.63,3.02-.09,3.19.07,6.38-.06,9.56-.11,2.94-.07,5.73,4.1,8.09h-15.89c3.51-2.55,3.44-5.59,3.39-8.71-.11-8.29-.07-16.58-.1-24.86,0-.92-.56-2.05.43-2.64,1.3-.77,1.99.48,2.75,1.21,7.01,6.71,14.01,13.43,21.48,20.59Z"/>
      <path class="cls-2" d="M195.45,149.55c1.83-2.46,4.28-4.23,6.72-6,.81-.59,1.83-1.75,2.89-.51,1.12,1.32-.37,1.95-1.07,2.63-5.82,5.71-11.08,11.83-14.98,19.07-9.99,18.56-9.65,37.53-1.87,56.54,2.02,4.93,1.46,7.79-2.48,11.4-6.92,6.33-13.25,13.31-19.07,20.71-.72.92-1.19,2.54-2.84,2.07-1.23-.35-1.4-1.69-1.58-2.74-6.95-39.32,3.09-73.31,31.96-101.37.1-.1.29-.11.45-.17,1.11,0,1.8-.47,1.88-1.64Z"/>
      <path class="cls-1" d="M523.7,228c8.06,0,14.71-.33,21.32.12,3.99.27,7.2,2.69,8.39,6.83,1.27,4.44.04,8.34-3.71,11-2.13,1.51-2.29,2.21-.48,4.22,2.65,2.94,4.64,6.47,7.12,9.57,1.14,1.42,2.61,3.24,4.79,2.26,1.85-.84,1.77-2.85,1.71-4.63-.28-9.07.61-18.17-.45-27.23-.11-.94-.5-2.05.76-2.38,1.25-.33,2.03.72,2.83,1.47,5.89,5.62,11.74,11.26,17.64,16.86,1.13,1.07,1.93,2.58,3.65,2.94,1.96-5.78,1.11-17.35-1.77-20.94h14.38c-3.18,2.44-3.2,5.17-3.14,8.03.15,8.29.15,16.58.18,24.87,0,1.06.62,2.44-.64,3.05-1.5.72-2.25-.76-3.12-1.59-6-5.72-11.95-11.5-17.98-17.19-1.08-1.02-1.8-2.73-4.41-2.45,1.45,6.97-1.99,14.34,3.1,21.63-8.47-.29-16.51,1.17-24.42-1.29-2.74-.85-4.42-2.93-5.83-5.36-2.14-3.7-3.29-7.95-6.55-11.53,2.46-.93,5-1.54,6.27-3.83,1.21-2.19,1.32-4.58.75-6.97-.72-3.03-2.68-4.71-5.83-4.52-3.7.22-2.37,3.17-2.4,5.12-.12,6.37.01,12.75-.06,19.12-.04,3.03-.31,6.06,2.21,9.21-3.7,0-7.41.04-11.11-.02-1.02-.02-1.96-.46-1.39-1.77,3.52-7.95.95-16.31,1.6-24.45.27-3.37.84-6.98-3.4-10.16Z"/>
      <path class="cls-2" d="M293.9,126.19c11.83,1,21.96,6.29,31.61,12.53,3.09,2-.18,2.65-1.54,3.14-11.84,4.27-23.33,9.31-34.58,14.93-2.99,1.49-6.04,2.9-8.84,4.7-3.14,2.01-5.02,1.08-7.09-1.68-10.99-14.62-4.76-29.93,13.34-32.52,2.36-.34,4.71-.73,7.1-1.09Z"/>
      <path class="cls-1" d="M561.47,177.69c4.59,0,8.4,0,12.21,0,.92,0,1.83.08,3.38.15-4.63,4.9-2.37,10.5-2.9,15.68-.14,1.4.82,1.96,2.08,2.03,1.11.06,2.25.16,3.35.03,3.54-.44,9.27,1.75,10.19-1.18,1.58-5.04,2.43-11.25-2.41-16.46h14.99c-3.68,6.11-3.47,34.18.64,38.66-5.26.79-10.04.37-15.88.29,4.76-4.53,3.01-9.58,3.39-14.28.18-2.19-.76-3.29-3.03-3.2-1.12.05-2.25-.12-3.35,0-3.24.37-7.98-1.71-9.38,1.17-1.57,3.24-.45,7.78-.55,11.75-.04,1.81,2.27,2.13,2.41,3.81-3.8,1.21-10.33,1.23-14.35.06,3.51-5.01,3.27-33.09-.8-38.53Z"/>
      <path class="cls-1" d="M435.89,216.5c3.86-5.11,3.79-33.09-.15-38.47h15.07c-4.55,4.73-2.12,10.33-2.74,15.47-.16,1.31.78,2.02,2.08,2.07,1.43.05,2.91.24,4.29,0,3.27-.58,8.61,2,9.44-1.45,1.2-4.97,2.43-11.04-2.5-16.1h15.31c-5.41,5.79-2.99,12.65-2.89,18.95.1,6.32-2.81,13.32,3.08,19.48-5.17,1.05-9.95.58-15.71.33,5.18-4.66,2.66-10.06,3.21-14.97.17-1.56-.73-2.33-2.27-2.36-.96-.02-1.91-.03-2.87-.04q-11.79-.08-11.17,11.66c.03.63-.18,1.47.15,1.87,5.03,6.34-1.42,3.83-3.32,3.99-2.91.25-5.95.55-9-.43Z"/>
      <path class="cls-1" d="M718.73,216.73c-4.84.57-9.62.4-15.34-.03,5.13-4.8,2.66-10.25,3.17-15.24.14-1.34-.99-1.92-2.21-1.99-1.43-.08-2.87-.13-4.3-.02-3.11.26-7.55-1.61-9.02.98-1.94,3.42-.57,8.06-.52,12.18.02,1.62,1.99,1.95,2.67,3.92-5.04.94-9.83.46-14.82.33,3.99-7.59,3.67-33.8-.58-38.87h15.42c-4.44,4.54-2.33,9.93-2.83,14.94-.18,1.81.63,2.68,2.44,2.66,1.12-.01,2.27.19,3.35-.01,3.42-.65,9,2.03,9.89-1.54,1.22-4.9,2.66-11.06-2.8-16.05h15.6c-4.82,5.9-2.47,12.73-2.47,19.12,0,6.34-2.15,13.15,2.34,19.63Z"/>
      <path class="cls-1" d="M788.57,206.29c1.92,2.29,3.74,4.67,5.79,6.84,1.46,1.54,3.39,2.51,5.58,1.65,2.3-.91,1.88-3.06,1.88-4.93.02-7.95-.03-15.91.04-23.86.03-2.94.21-5.83-3.05-7.86,9.26-.04,18.26-1.55,27.13.75,9.01,2.34,14.19,10.17,13.66,20.31-.46,8.63-7.04,15.88-15.73,17.26-7.6,1.21-15.26.57-22.89.47-4.11-.05-8.25.48-12.35-.39-4.14-.88-7.45-2.65-8.76-7,1.02.05,1.82.48,2.38,1.33,2.66,4.03,6.47,4.82,11.02,4.24-1.85-3.06-4.77-5.13-4.72-8.81ZM811.43,197.06h-.02c0,4.29.09,8.57-.03,12.86-.08,2.66.97,3.57,3.64,3.66,8.68.3,13.3-3.5,14.23-13.53,1.11-11.84-3.43-19.46-14.52-19.21-2.49.06-3.39.92-3.32,3.37.12,4.28.03,8.57.03,12.86Z"/>
      <path class="cls-1" d="M632.12,235.32c-1.44-2.21-.93-3.84-.98-5.37-.07-2.14.77-3.05,3.22-2.79,9.19.98,18.44.06,27.61.34,6.05.18,12.27-.59,17.66.55-1.92,12.17-2.2,23.96.23,36.44-3.41,0-7.45.03-11.48-.03-.81-.01-1.81-.68-1.13-1.5,4.1-4.95,1.37-10.7,1.95-16.03.44-4.09.1-8.27.07-12.41,0-1.26.23-2.58-.58-3.7-.66-.9-1.5-1.89-2.65-1.69-1.11.19-.98,1.45-1.08,2.38-.12,1.09-.28,2.17-.42,3.25-1.84,0-1.89-1.69-2.76-2.5-2.33-2.17-5.14-1.76-7.69-1.19-2.64.59-1.39,3.19-1.44,4.89-.14,5.73-.05,11.46-.06,17.19,0,3.61-.38,7.26,1.87,11.01-4.56.27-8.59.47-13.14-.11,4.17-5.76,1.95-11.93,2.41-17.8.24-3.01.25-6.07-.04-9.06-.21-2.13,1.64-5.37-1.55-6.17-2.95-.74-6.45-.99-8.65,2.3-.35.53-.73,1.05-1.38,1.99Z"/>
      <path class="cls-1" d="M775.4,256.4c.17,2.1-2.11,3.91-.38,6.31,1.06,1.47-.59,1.87-1.7,1.79-6.53-.45-13.18.27-18.21-5.89-4.31-5.27-9.7-9.65-14.65-14.4-.65-.62-1.32-1.59-2.38-1.16-1.15.47-.69,1.63-.69,2.52-.03,4.14.18,8.3-.09,12.42-.16,2.53,1.57,3.93,3.09,6.18h-15.05c3.65-2.58,3.82-5.62,3.75-8.82-.17-8.12-.22-16.24-.33-24.36-.02-1.06-.84-2.4.45-3.02,1.39-.67,2.32.61,3.22,1.45,5.43,5.15,10.84,10.33,16.25,15.51.69.66,1.31,1.41,2.05,2,.95.75,1.61,2.47,2.95,1.99,1.77-.63.82-2.49.88-3.79.13-2.86-.02-5.73.03-8.6.06-3,.46-6.07-4.07-8.23,5.88-.75,10.21-.57,15.55-.22-3.31,2.74-3.44,5.73-3.37,8.93.16,7.01-.04,14.02.09,21.03.12,6.05.58,6.27,5.82,3.73.29.1.57.2.86.31-.26-.11-.52-.22-.78-.32.21-.33.42-.66.64-.99,1.38.74,3.51,4.6,3.37-.93-.03-1.27,1.06-2.86,2.7-3.43Z"/>
      <path class="cls-1" d="M491.54,275.08h13.58c-2.91,11.97-1.65,23.78-.85,36.41-2.92.79-7.35-.17-12.86.19,4.79-4.62,3.21-9.57,3.32-14.19.08-3.3-2.76-2.82-4.56-2.46-3.56.71-9.04-2.76-10.34,2.23-1.08,4.16-1.91,9.52,2.42,13.9-4.89.85-9.24.34-14.15.41,4.14-5.88,2.32-12.17,2.25-18.14-.07-5.92,2.01-12.28-2.27-18.27,4.48-.93,9-.16,13.84-.46-.32,2.45-2.72,3.47-2.43,5.72.44,3.43-1.55,8.23.76,10.07,3.22,2.55,8.25.67,12.49.86,1.08.05,2.03-.55,1.95-1.63-.35-4.83,1.93-10.11-3.14-14.66Z"/>
      <path class="cls-1" d="M703.79,264.83c-12.59-.06-20.57-7.37-20.57-18.84,0-11.48,8.64-19.36,21-19.17,12.03.19,20.33,7.89,20.34,18.87.01,11.78-8.05,19.2-20.77,19.14ZM714.8,246.34c.16-3.79-.57-7.19-2.11-10.38-1.84-3.81-4.84-5.65-9.18-5.52-4.15.13-6.99,2.09-8.59,5.73-2.83,6.44-2.75,13.03-.1,19.49,1.68,4.1,5.07,6.12,9.44,6.02,4.45-.1,7.49-2.63,8.98-6.68,1.03-2.81,1.88-5.77,1.57-8.64Z"/>
      <path class="cls-1" d="M575.29,312.25c-12.37-.11-20.51-7.66-20.51-19.04,0-11.33,8.38-19.15,20.5-19.13,12.5.02,20.94,7.9,20.77,19.36-.18,11.4-8.48,18.93-20.76,18.82ZM564.45,293.12c-.26,3.09.42,6.03,1.54,8.87,1.74,4.42,4.84,6.98,9.8,6.89,4.87-.09,7.63-3.06,9.14-7.17,2.03-5.55,2.02-11.31.07-16.88-1.52-4.34-4.44-7.35-9.51-7.29-4.93.06-8.01,2.65-9.61,7.17-.96,2.72-1.62,5.5-1.43,8.41Z"/>
      <path class="cls-1" d="M607.89,177.89c9.13-.69,17.58.48,25.94-.79,1.8-.27,2.15,1.1,2.15,2.44,0,2.2.45,4.48-1.02,7.16-1.81-5.41-5.79-6.11-10.48-5.81-2.55.17-3.94.81-3.67,3.59.11,1.11-.19,2.28.07,3.34.62,2.57-1.92,6.46,1.58,7.55,3.39,1.05,7.76,1.68,9.89-3.59,1.06,4.25,1.1,7.91.37,11.76-2.16-.6-1.85-3.19-4.09-3.76-5.75-1.47-7.98-.14-7.72,5.74.12,2.81-1.61,6.28,1.82,8.28,2.06,1.2,10.15-1.46,12.06-3.77,1.09-1.32,1.98-2.82,2.99-4.29,2.48,4.98-.77,11.29-5.83,11.36-7.73.1-15.46.03-24.01.03,5.21-5.84,4.97-34.3-.03-39.22Z"/>
      <path class="cls-1" d="M749.2,203.59c-2.12-1.48-2.59-3.35-4.57-3.85-5.79-1.47-7.72-.16-7.5,5.97.09,2.5-1.54,5.61,1.33,7.45,2.43,1.56,9.87-.14,12.04-2.54,1.36-1.5,2.44-3.25,3.69-4.93,2.44,5.99-.91,11.42-6.99,11.44-7.29.03-14.57,0-22.88,0,5.86-6.41,3.32-13.27,3.26-19.57-.07-6.36,2.77-13.4-3.33-19.9,4.95,0,9.29.02,13.63,0,3.03-.02,6.15.37,9.06-.23,4.49-.92,5.86.69,5.23,4.87-.19,1.24-.29,2.49-.83,4.35-1.91-6.55-6.88-5.81-11.58-5.7-1.14.03-2.49.03-2.54,1.51-.13,3.97-.3,7.96.03,11.91.15,1.81,6.82,2.04,9.04.3.84-.66,1.44-1.65,2.6-3.03,1.01,4.14.53,7.73.3,11.94Z"/>
      <path class="cls-1" d="M530.11,312.27c-12.08-.01-20.18-7.48-20.26-18.69-.08-11.85,7.94-19.5,20.42-19.51,12.34,0,20.49,7.55,20.47,18.98-.01,11.8-7.99,19.23-20.64,19.22ZM541.14,293.86c0-3.47-.12-6.27-1.22-9.03-1.76-4.42-4.53-7.25-9.53-7.28-4.99-.03-8.11,2.67-9.61,7.16-2.04,6.08-2.09,12.23.56,18.19,1.69,3.8,4.56,6.08,8.92,6,4.47-.08,7.46-2.27,9.24-6.33,1.32-2.99,1.87-6.07,1.64-8.7Z"/>
      <path class="cls-1" d="M552.53,186.63c-2.14-5.35-5.65-6.73-10.26-5.89-1.92.35-3.14,1.51-3.8,3.24-.74,1.94.13,3.44,1.7,4.53,3.54,2.45,7.11,4.85,10.69,7.23,4.08,2.71,7.15,5.99,6.2,11.38-.96,5.45-4.34,8.71-9.64,10.06-4.12,1.04-8.22.88-12.27-.41-5.52-1.75-6.76-4.33-4.74-9.77.33-.89.41-2.06,1.64-1.95,1.17.1,1.16,1.26,1.46,2.17,1.67,5.23,5.4,7.86,10.19,7.24,2.75-.36,4.85-1.79,5.77-4.4.93-2.63-1.03-4.21-2.81-5.51-3.6-2.63-7.36-5.05-11.04-7.58-4.28-2.96-5.87-7.04-4.7-12.07.99-4.25,5.05-7.27,10.42-7.74,2.21-.19,4.46-.02,6.68.13,6.68.45,7.37,1.65,4.49,9.36Z"/>
      <path class="cls-1" d="M460.86,286.05c-2.16-3.54-3.61-6.85-7.33-7.95-7.97-2.35-14.31,1.63-15.92,9.84-.75,3.83-.62,7.59.18,11.36,1.14,5.32,5.16,9.14,9.95,9.5,6.7.5,10.11-1.72,12.45-7.91.53-1.41.53-3.18,2.17-4.05,2.66,7.61,1.03,11.47-6.95,14.22-8.27,2.84-16.27,1.46-22.59-4.65-5.92-5.73-6.83-13.04-3.91-20.73,2.29-6.04,7-9.24,13.03-10.76,4.56-1.15,9.17-1.06,13.74-.05,6.42,1.41,7.6,3.77,5.18,11.18Z"/>
      <path class="cls-1" d="M407.22,216.29c2.42-1.78,2.72-3.99,2.69-6.51-.1-7.81.01-15.62-.11-23.44-.03-1.78,1.23-4.47-.94-5.18-2.6-.84-5.73-1.16-8.2.93-1.19,1.01-2.14,2.29-3.43,3.7-1.2-1.81-.53-3.88-.68-5.78-.19-2.38,1.11-2.93,3.29-2.78,9.88.7,19.77.75,29.64-.03,2.08-.16,3.06.46,3.1,2.47.05,2.04.5,4.15-1.22,6.67-1.37-4.91-4.74-5.87-9.03-5.62-2.56.15-3.25,1.13-3.23,3.49.08,8.77.09,17.54,0,26.31-.02,2.35,1.08,3.87,3,5.54-4.95,1.36-9.78.93-14.86.21Z"/>
      <path class="cls-1" d="M643.42,216.13c3.05-4.53,3.07-32.41-.09-38.36,7.71.2,15.11-.96,22.43.88,6.73,1.7,9.88,7.78,7.74,14.53-1.8,5.64-8.45,8.87-14.31,6.96-1.04-.34-2.49-.29-2.58-1.66-.1-1.52,1.45-1.34,2.44-1.71,3.83-1.43,5.3-4.57,5.31-8.27,0-3.43-1.69-6.17-5.15-7.29-2.7-.88-4.6-.63-4.53,3.11.16,8.76.05,17.53.05,26.3,0,.32.1.67,0,.95-.77,2.08,3.32,3.13,1.51,4.79-1.75,1.6-4.6.54-6.96.58-1.85.03-3.83.55-5.84-.81Z"/>
      <path class="cls-1" d="M419.45,283.22c-1.64-5.09-4.73-6.02-8.61-5.47-2.06.3-3.7,1.15-4.19,3.3-.44,1.97.62,3.32,2.2,4.36,3.05,2.02,6.05,4.12,9.14,6.07,4.22,2.67,6.98,6.04,5.95,11.41-.84,4.41-4.77,8.17-10,9.04-4.12.69-8.24.46-12.17-1.31-2.26-1.02-3.78-2.51-3.38-5.1.28-1.8.1-4.51,2.03-4.92,2.1-.45,1.44,2.33,2.09,3.6,2.06,3.98,6.92,5.9,11,4.13,3.84-1.66,4.66-5.15,1.44-7.85-3.15-2.64-6.79-4.7-10.17-7.08-4.92-3.47-6.53-7.43-5.08-12.25,1.23-4.11,5.43-6.86,10.89-7.03,1.58-.05,3.17.16,4.75.33,6.37.67,6.66,1.19,4.09,8.75Z"/>
      <path class="cls-2" d="M788.57,206.29c-.05,3.68,2.88,5.75,4.72,8.81-4.55.58-8.37-.21-11.02-4.24-.56-.86-1.37-1.28-2.38-1.33-1.87-2.61-3.12-5.52-4.14-8.53,2.4-.98,2.13-3.03,2.04-5.02.9-1.23,1.81-2.46,2.71-3.69,3.38-1.2,2.95-2.87.6-4.78-.14-.62-.29-1.24-.43-1.86,1.46-1.41.49-1.76-.85-1.94-.66-.63-1.31-1.26-1.97-1.89-.18-1.28-.42-2.41-1.93-.92-1.27-.03-2.55-.06-3.82-.09-.34-.6-.86-.94-1.39-.39-.53.55-.16,1.06.44,1.38.13,5.74.44,11.48-.16,17.21-.68.19-1.96.41-1.95.56.06,1.14,1.04,1.27,1.96,1.38.15,4.27.3,8.55.46,12.82-5.47,2.65-7.9,1.29-7.98-4.48-.12-9.35-.11-18.71-.4-28.06-.06-1.84.44-2.35,1.96-2.25,5.94.39,11.96-1.04,17.82,1.65,3.47,1.59,6.37,3.22,6.4,7.28.03,3.7-.55,7.21-5.04,8.66-1.98.64-3.88,2.82-1.32,4.64,1.93,1.38,2.95,3.73,5.29,4.52l.36.17.03.39Z"/>
      <path class="cls-1" d="M800.16,260.69c1.67.65,2.87,2.95,5.08,1.67,2.09-1.21,2.13-3.33,2.11-5.47-.05-7.01-.11-14.02,0-21.02.04-2.8-.02-5.41-3.7-7.48,5.55-.95,9.98-.53,15.38-.43-4.03,4.03-3,8.38-3.04,12.53-.05,5.57.09,11.15-.06,16.72-.07,2.72,1.02,3.53,3.62,3.72,5.66.42,9.63-1.98,12.35-7.85,1.31,9.07-.59,11.4-8.1,11.4-10.36,0-20.72.02-31.08-.03-2.01,0-4.72,1.02-3.06-3.29.85-2.22-.84-5.16-3.06-7,4.2-.29,2.49,3.75,4.01,5.41.95,1.04-.74,3.81,1.93,3.43,2.6-.37,6.2,2.02,7.62-2.32Z"/>
      <path class="cls-1" d="M599.43,263.8c6.38-6.13,7.73-14.45,11.48-21.5,2-3.76,3.48-7.8,5.17-11.72.47-1.09.11-2.91,1.84-2.93,1.73-.01,2.05,1.73,2.63,3,3.94,8.68,7.89,17.34,11.8,26.03.79,1.75,1.54,3.47,2.91,4.87.6.61,1.81,1.08,1.13,2.26-.58,1.01-1.69.6-2.59.62-1.43.03-2.87.04-4.3-.03-3.23-.16-7.26,1.62-6.26-5.01.64-4.28-3.33-5.73-10.53-4.98-4.23.44-4.96,4.3-4.28,6.61,1.17,3.96-.72,3.61-3.1,3.48-1.85-.11-3.79.49-5.9-.7ZM615.6,242.04c-1.03,2.29-1.95,4.4-2.92,6.49-.52,1.13-.79,2.33.82,2.48,1.84.17,4.11.52,5.47-.34,1.47-.93-.14-2.82-.73-4.15-.61-1.39-.48-3.18-2.65-4.47Z"/>
      <path class="cls-1" d="M412.34,264.21h-13.08c3.61-5.65,3.66-31.06-.01-35.94,4.69-.8,9.12-.44,12.69-.34-1.94,12.2-2.45,23.94.4,36.28Z"/>
      <path class="cls-2" d="M505.03,200.9c-2.73-2.16-6.07-.97-9.08-1.63-3.02-.15-2.79,2.14-2.56,3.89.47,3.61-1.64,7.58,1.46,10.81.19.2.59.31.88.3,3.06-.17,6.25,1.08,9.14-.88,1.06-.64,2.11-1.27,3.17-1.91,1.15-.09,1.62-.78,1.63-1.86,0,0,.03-.05.03-.05h.43s.43-.07.43-.07l.05.05c-.48,2.65,1.32,6.6-3.81,6.59-6.38-.01-12.76-.05-19.14.02-2.03.02-2.07-.49-1.76-2.48,1.61-10.26.53-20.62.57-30.94,0-.33-.61-.67-.94-1.01l-.94-1.82c4.41-1.91,9.07-.49,13.57-1.03,2.56-.3,5.37,1.15,7.66-1.03.89-.51,1.79-.9,2.76-.17-.5,1.65,1.38,4.04-1.54,4.94l-.19-.19c-3.22-3.42-11.7-4.02-12.75-.58-1.33,4.33-2.03,9.1.58,13.49l.36.03s.04.36.04.36c2.12,2.59,4.69,1.13,7.17.86,1.51-.16,2.96-2.19,4.59-.26.54,1.13.53,2.26.03,3.4-.62.39-1.25.78-1.87,1.18Z"/>
      <path class="cls-2" d="M800.16,260.69c-1.42,4.34-5.02,1.94-7.62,2.32-2.67.38-.98-2.39-1.93-3.43-1.51-1.66.2-5.7-4.01-5.41-2.96-.01-5.91-.02-8.87-.04-1.25-1.03-1.61-.13-1.92.88-.14.46-.27.93-.41,1.39-1.64.57-2.73,2.16-2.7,3.43.15,5.52-1.98,1.67-3.37.93.08-1.31.68-2.38,1.52-3.34,1.2-.38,1.32-1.27,1.1-2.32l2.54-6.3c1.44-.35,1.52-1.35,1.21-2.53.2-.44.39-.87.59-1.31,2.4-2.64,4.01-5.63,4.15-9.28l.95-2.19c1.1-.37,1.31-1.2,1.13-2.22.02-.92.03-1.84.79-2.53,2.7.9,2.92,3.57,3.89,5.62,1.27,2.68,1.88,5.69,4.27,7.74.36.71.73,1.42,1.09,2.12-.4,1.21-.38,2.24,1.11,2.65.22.45.43.91.65,1.36-.26,1.88.25,3.41,1.99,4.39.26.56.51,1.11.77,1.67-.17,2.09.08,3.99,2.26,5.02.27.45.53.91.8,1.36ZM781.72,241.57c-.84,2.17-1.32,4.01-2.22,5.63-1.94,3.51-.65,4.21,2.85,4.1,2.96-.09,4.38-.71,2.72-3.74-1.03-1.89-.96-4.35-3.36-5.99Z"/>
      <path class="cls-2" d="M602.13,282.43c0-.76-.01-1.52-.02-2.28,1.5-1.6-1.33-3.46.3-5.05.75.02,1.5.04,2.24.06.51.56,1.03.55,1.55,0,.77,0,1.54,0,2.31,0,1.03.9,2.71-.03,3.6,1.27-1.5,1.85-1.62,4.01-1.62,6.29-.01,8.1-.15,16.2-.24,24.3-.06,1.15-.04,2.22,1.64,1.71,1.75-.45,3.5-.47,5.25-.06,1.12.7,2.05.65,2.69-.65.67-.29,1.33-.58,2-.87,1.06,0,1.72-.46,1.83-1.57.37-.44.73-.89,1.1-1.33l.38.02.38-.07.05.05c-.03,2.92-.46,5.64-3.61,6.94-3.37.59-6.74.57-10.1,0-2.03-.13-4.07-.37-6.1-.35-2.47.03-3.63.1-3.4-3.47.52-8.29.86-16.66-.22-24.98Z"/>
      <path class="cls-1" d="M788.18,205.73c-2.34-.8-3.36-3.14-5.29-4.52-2.56-1.83-.66-4.01,1.32-4.64,4.49-1.45,5.07-4.96,5.04-8.66-.03-4.06-2.93-5.69-6.4-7.28-5.87-2.7-11.88-1.26-17.82-1.65-1.51-.1-2.02.41-1.96,2.25.29,9.35.29,18.7.4,28.06.07,5.77,2.51,7.14,7.98,4.48,1.06.43,2.28.98,2.05,2.27-.2,1.09-1.47.99-2.42,1-1.6.03-3.22.2-4.78-.04-2.54-.39-6.46,2.66-4.8-4.73,2.14-9.55.48-19.96.4-30-.01-1.78-1.92-2.43-3.24-4.64,8.75.5,16.98-1.18,25,1.26,7.23,2.2,9.84,11.96,4.17,16.99-3.75,3.33-3.13,5.27-.27,8.11.39.39.42,1.15.62,1.74Z"/>
      <path class="cls-1" d="M510.57,209.5l-.43.07h-.43c.4-1.5.67-3.1,2.75-3.79.9,3.55-.99,6.54-1.6,9.69-.28,1.45-1.8,1.65-3.13,1.65-7.49,0-14.98.07-22.48-.03-2.01-.03-4.21-.35-1.05-2.74,1.59-1.21,1.02-3.22,1.04-4.94.1-9.22.2-18.45.3-27.67.33.34.94.67.94,1.01-.03,10.32,1.04,20.67-.57,30.94-.31,1.99-.28,2.5,1.76,2.48,6.38-.07,12.76-.04,19.14-.02,5.13.01,3.33-3.94,3.81-6.59.07-.13.13-.26.2-.39-.08.11-.16.23-.24.34Z"/>
      <path class="cls-1" d="M602.13,282.43c1.08,8.31.74,16.69.22,24.98-.22,3.57.94,3.5,3.4,3.47,2.03-.02,4.06.22,6.1.35-4.19,1.23-8.4.26-13.2.11,3.46-2.22,2.95-5.42,3.05-8.52.21-6.79-.65-13.61.43-20.38Z"/>
      <path class="cls-1" d="M264.38,335.87c-.78,1.51-2.69.37-4.26,2.13,6.85,0,13.06,0,19.28,0-8.1,2.31-16.17,1.36-24.27-.17,2.91-1.69,5.95-2.46,9.25-1.96Z"/>
      <path class="cls-1" d="M494.7,195.34c-2.61-4.38-1.91-9.16-.58-13.49,1.05-3.44,9.54-2.83,12.75.58-1.16-.46-2.29-1.1-3.49-1.34-6.91-1.39-8.3-.21-8.34,6.73-.01,2.51-.22,5.01-.34,7.52Z"/>
      <path class="cls-1" d="M504.87,213.39c-2.88,1.96-6.08.7-9.14.88-.29.02-.68-.1-.88-.3-3.11-3.23-.99-7.2-1.46-10.81-.23-1.74-.47-4.03,2.56-3.89-2.2,4.04-.68,8.31-.65,12.47,0,1.53,1.67,1.66,2.96,1.67,2.2.01,4.4-.01,6.61-.02Z"/>
      <path class="cls-1" d="M505.84,177.87c-2.3,2.18-5.11.73-7.66,1.03-4.5.54-9.16-.89-13.57,1.03-1.1-.07-1.59-.83-2.53-2.06h23.76Z"/>
      <path class="cls-1" d="M217.5,134.51c-3.39,3.11-5.05,7.88-9.5,9.97-.39-.41-.78-.82-1.17-1.23-.43-.61-.86-1.22-1.29-1.83,3.51-3.13,7.42-5.57,11.97-6.91Z"/>
      <path class="cls-1" d="M327.63,317.62c-.09.69-1.01,1.44.15,2.03-2.87,2.65-5.56,5.6-9.8,6.03,2.59-3.81,4.74-8.02,9.32-9.97.11.64.21,1.27.32,1.91Z"/>
      <path class="cls-1" d="M287.39,336.78c7.38-2.21,14.77-4.43,22.15-6.64-6.99,3.53-14.25,6.15-22.15,6.64Z"/>
      <path class="cls-1" d="M625.52,304.22s-.38.07-.38.07l-.38-.02c.33-1.1.03-3.07,1.69-2.74,1.43.28,1.36,2.33.67,3.26-1.63,2.2.63,7.61-5.15,6.42,3.15-1.3,3.58-4.02,3.61-6.94.06-.13.13-.26.19-.38-.08.11-.16.22-.24.33Z"/>
      <path class="cls-1" d="M506.86,196.33c-1.63-1.93-3.07.1-4.59.26-2.48.26-5.05,1.73-7.17-.86,4.1-.29,8.85,1.56,11.35-4.22,1.24,2.03,1.67,3.37.41,4.82Z"/>
      <path class="cls-1" d="M791.49,242.11c-2.4-2.05-3.01-5.06-4.27-7.74-.97-2.05-1.2-4.73-3.89-5.62,2.02-.96,2.23-1.05,2.93.68,1.72,4.24,4.23,8.15,5.23,12.68Z"/>
      <path class="cls-1" d="M507.06,182.63c2.92-.9,1.04-3.29,1.54-4.94,2.61,2.44.8,5.22.93,7.96-2.31-.14-2.07-1.82-2.47-3.03Z"/>
      <path class="cls-1" d="M602.41,275.1c-1.62,1.59,1.2,3.45-.3,5.05-.53-1.85-1.33-3.53-3.33-4.42,1.36-1.1,2.41-1.62,3.62-.63Z"/>
      <path class="cls-1" d="M274.97,124.23l.84-1.95c1.44-.61,2.64-.17,3.83.83-1.33,1.6-2.97,1.47-4.67,1.12Z"/>
      <path class="cls-1" d="M777.79,195.97c.09,1.99.35,4.04-2.04,5.02-.73-1.12-3.07-1.1-2.63-2.85.58-2.29,3.24-1.11,4.67-2.17Z"/>
      <path class="cls-1" d="M780.45,235.69c-.14,3.65-1.76,6.64-4.15,9.28.85-3.33,2.14-6.47,4.15-9.28Z"/>
      <path class="cls-1" d="M612.11,276.45c-.89-1.3-2.57-.38-3.6-1.27,1.29-.9,2.82-.82,4.04-.28,1.29.57,1.02,1.39-.45,1.56Z"/>
      <path class="cls-1" d="M505.03,200.9c.62-.39,1.25-.78,1.87-1.18,1.03,1.11,1.2,2.62-.07,3.2-1.35.61-1.46-1.07-1.79-2.02Z"/>
      <path class="cls-1" d="M781.1,187.5c2.35,1.91,2.78,3.58-.6,4.78.2-1.59.4-3.19.6-4.78Z"/>
      <path class="cls-1" d="M799.36,259.33c-2.18-1.04-2.43-2.94-2.26-5.02,1.49,1.34,2.01,3.12,2.26,5.02Z"/>
      <path class="cls-1" d="M242.89,147.22c-.6-1.91.1-3.41,1.48-4.7.11,1.75-.75,3.21-1.48,4.7Z"/>
      <path class="cls-1" d="M292.03,314.41c-.17,1.99-.05,4.11-2.29,5.19.67-1.77.84-3.76,2.29-5.19Z"/>
      <path class="cls-1" d="M256.76,122.48c-1.29,1.62-2.93.87-4.49.68,1.38-.98,2.86-1.33,4.49-.68Z"/>
      <path class="cls-1" d="M281.61,337.83c1.21-1.59,2.84-1.02,4.4-.84-1.31,1.08-2.76,1.45-4.4.84Z"/>
      <path class="cls-1" d="M292.23,309.06c1.3,1.28,1.31,2.55-.03,3.81-.46-1.27-.5-2.54.03-3.81Z"/>
      <path class="cls-1" d="M274.01,332.83c-.97,1.21-1.94,2.4-3.75,1.46,1.15-.75,2.16-1.84,3.75-1.46Z"/>
      <path class="cls-1" d="M796.33,252.63c-1.74-.98-2.25-2.51-1.99-4.39.99,1.32,2.08,2.58,1.99,4.39Z"/>
      <path class="cls-1" d="M234.74,243.43c-.25,1.64-1.23,2.44-2.87,2.48.63-1.2,1.45-2.19,2.87-2.48Z"/>
      <path class="cls-1" d="M228.99,248.3c-.19,1.35-1.02,2.11-2.28,2.47-.09-1.6,1.01-2.12,2.28-2.47Z"/>
      <path class="cls-1" d="M245.28,124.32c-.9,1.51-2.24,1-3.52.76,1.01-.99,2.21-1.12,3.52-.76Z"/>
      <path class="cls-1" d="M619.84,308.04c-.64,1.29-1.57,1.35-2.69.65.75-.82,1.69-.86,2.69-.65Z"/>
      <path class="cls-1" d="M770.99,200.94c-.92-.11-1.9-.24-1.96-1.38,0-.16,1.27-.37,1.95-.56,0,.65,0,1.29,0,1.94Z"/>
      <path class="cls-1" d="M231.93,256.41c1.06,0,1.74.43,1.84,1.55-.9-.18-1.63-.56-1.84-1.55Z"/>
      <path class="cls-1" d="M243.41,156c-.98-.42-1.4-.97-.43-1.85.55.52.68,1.14.43,1.85Z"/>
      <path class="cls-1" d="M237.69,261.16c1.05,0,1.72.47,1.91,1.53-.85-.25-1.65-.55-1.91-1.53Z"/>
      <path class="cls-1" d="M195.45,149.55c-.08,1.17-.78,1.65-1.88,1.64.2-1.04.92-1.48,1.88-1.64Z"/>
      <path class="cls-1" d="M245.25,266.93c1.09-.04,1.82.39,2,1.54-.88-.23-1.71-.53-2-1.54Z"/>
      <path class="cls-1" d="M254.88,273.61c.9-.06,1.62.19,1.9,1.16-.94.11-1.61-.21-1.9-1.16Z"/>
      <path class="cls-1" d="M245.25,140.68c-.08-.97.17-1.74,1.24-2,.02.93-.22,1.7-1.24,2Z"/>
      <path class="cls-1" d="M224.2,130.97c-.35.94-1.07,1.17-1.97,1.06.41-.82.99-1.31,1.97-1.06Z"/>
      <path class="cls-1" d="M259.56,128.49c.36-1.19,1.22-1.35,2.28-1.11-.6.7-1.27,1.26-2.28,1.11Z"/>
      <path class="cls-1" d="M606.2,275.17c-.52.54-1.03.55-1.55,0,.52-.7,1.03-.7,1.55,0Z"/>
      <path class="cls-1" d="M234.74,127.15c-.6,1.19-1.56,1.12-2.61.75.74-.69,1.61-.94,2.61-.75Z"/>
      <path class="cls-1" d="M249.03,123.56c-.48.88-1.05,1.06-1.76.24.5-.71,1.09-.71,1.76-.24Z"/>
      <path class="cls-1" d="M266.23,280.37c.97-.11,1.75.11,2.05,1.17-.97.11-1.67-.25-2.05-1.17Z"/>
      <path class="cls-1" d="M269.74,282.41c1.21-.22,2.13.02,2.34,1.43-1.06-.02-1.85-.47-2.34-1.43Z"/>
      <path class="cls-1" d="M272.79,284.26c1.15-.16,1.99.14,2.17,1.43-.96-.13-1.78-.45-2.17-1.43Z"/>
      <path class="cls-1" d="M275.71,286.16c1.2-.15,1.99.26,2.12,1.56-.96-.18-1.66-.7-2.12-1.56Z"/>
      <path class="cls-1" d="M285.68,294.62c1.23.11,1.77.8,1.7,2-.93-.36-1.59-.95-1.7-2Z"/>
      <path class="cls-1" d="M287.98,297.51c1.13.26,1.4,1.04,1.28,2.07-.88-.41-1.27-1.12-1.28-2.07Z"/>
      <path class="cls-1" d="M793.69,246.88c-1.49-.41-1.51-1.44-1.11-2.65.83.69,1.05,1.64,1.11,2.65Z"/>
      <path class="cls-1" d="M290.92,303.26c1.27.45,1.33,1.4,1.04,2.5-.79-.65-1.33-1.4-1.04-2.5Z"/>
      <path class="cls-1" d="M775.71,246.27c.31,1.18.23,2.18-1.21,2.53.4-.84.81-1.69,1.21-2.53Z"/>
      <path class="cls-1" d="M782.54,231.28c.18,1.02-.03,1.85-1.13,2.22-.15-1.01.21-1.75,1.13-2.22Z"/>
      <path class="cls-1" d="M611.89,308.75c-1.68.51-1.7-.56-1.64-1.71.55.57,1.09,1.14,1.64,1.71Z"/>
      <path class="cls-1" d="M509.67,209.62c-.01,1.08-.48,1.77-1.63,1.86.15-.96.72-1.56,1.63-1.86Z"/>
      <path class="cls-1" d="M779.82,183.7c1.34.19,2.31.53.85,1.94-.7-.46-.96-1.12-.85-1.94Z"/>
      <path class="cls-1" d="M775.81,255.01c.31-1.01.68-1.91,1.92-.88-.64.29-1.28.59-1.92.88Z"/>
      <path class="cls-1" d="M315.12,327.58c.25-1.09,1-1.39,2.01-1.29-.33.96-.98,1.42-2.01,1.29Z"/>
      <path class="cls-1" d="M311.29,329.46c.38-1.24,1.29-1.36,2.37-1.12-.55.89-1.26,1.43-2.37,1.12Z"/>
      <path class="cls-1" d="M278.79,330.39c-.27,1.53-1.3,1.65-2.55,1.36.61-.9,1.51-1.26,2.55-1.36Z"/>
      <path class="cls-1" d="M775.92,180.89c1.5-1.49,1.75-.36,1.93.92-.82.07-1.53-.09-1.93-.92Z"/>
      <path class="cls-1" d="M771.15,181.79c-.6-.32-.97-.83-.44-1.38.53-.55,1.05-.2,1.39.39-.32.33-.63.66-.95.99Z"/>
      <path class="cls-1" d="M268.27,334.71c-.49,1.16-1.42,1.19-2.45.92.65-.76,1.42-1.17,2.45-.92Z"/>
      <path class="cls-1" d="M771.96,255.1c.22,1.05.1,1.94-1.1,2.32-.1-1,.09-1.85,1.1-2.32Z"/>
      <path class="cls-1" d="M623.66,305.61c-.11,1.1-.77,1.57-1.83,1.57.32-.85.9-1.42,1.83-1.57Z"/>
      <path class="cls-2" d="M768.7,261.74c.26.11.52.22.78.32-.28-.1-.56-.21-.86-.31,0,0,.08-.02.08-.02Z"/>
      <path class="cls-2" d="M205.53,141.41c.43.61.86,1.22,1.29,1.83-1.4.07-1.85-.53-1.29-1.83Z"/>
      <path class="cls-2" d="M510.57,209.5c.08-.11.16-.23.24-.34-.07.13-.13.26-.2.39,0,0-.05-.05-.05-.05Z"/>
      <path class="cls-2" d="M625.52,304.22c.08-.11.16-.22.24-.33-.06.13-.13.26-.19.38,0,0-.05-.05-.05-.05Z"/>
    </g>
  </g>
</svg>