<?xml version="1.0" encoding="UTF-8"?>
<svg id="Layer_1" data-name="Layer 1" xmlns="http://www.w3.org/2000/svg" viewBox="0 0 792 612">
  <defs>
    <style>
      .cls-1 {
        fill: #200b51;
      }

      .cls-1, .cls-2, .cls-3 {
        stroke-width: 0px;
      }

      .cls-2 {
        fill: #98ab97;
      }

      .cls-3 {
        fill: #fff;
      }
    </style>
  </defs>
  <ellipse class="cls-3" cx="363.07" cy="323.89" rx="277.71" ry="287.82"/>
  <g>
    <path class="cls-2" d="M436.1,281.25c1.34-4.46,4.99-6.22,8.92-7.74,6.96-2.7,12.94-.17,18.34,3.8,2.61,1.92,3.58,5.07,3.16,8.69-.47,3.99,1.17,7.84,2.15,11.68.42,1.65,2.1,1.68,3.61,1.37,3.23-.66,5.92-1.59,8.6,2.34,1.72,2.52,6.44,1.66,9.52.49,4.84-1.85,9.33-2.8,14.09.08,1.09.66,2.78.47,4.19.46,24.13-.04,48.27-.14,72.4-.16,4.47,0,8.74-.85,12.96-2.18,2.22-.7,4.39-1.45,6.77-1.66,2.75-.25,4.51-2.29,5.22-4.66,1.31-4.37,4.59-4.23,7.79-3.64,3.28.6,4.91,2.79,4.77,6.45-.23,6.22-.06,12.45-.07,18.68,0,4.09-1.76,6.33-5.3,6.82-4,.55-6.04-.7-7.29-4.66-.36-1.13-.51-2.29-1.66-2.93-1.77-.97-4.06-1.89-5.38-.33-1.28,1.51,1.1,2.52,2.06,3.58,6.38,7.03,10.21,15.7,15.3,23.56,6.07,9.35,7.29,19.63,6.95,30.36-.21,6.48.06,12.94.82,19.38.14,1.18-.45,2.96,1.5,2.99,1.63.03,2.46-1.34,2.7-2.84.83-5.23,1.31-10.53,2.42-15.7,4.06-18.93,3.17-38.12,3.22-57.26,0-.89-.1-2.1.41-2.61,2.73-2.74,4.4-5.89,3.82-10.84,1.4,2.09,1.1,3.3,1.1,4.43-.01,16.74.29,33.49-.25,50.21-.24,7.42-2.12,14.79-3.39,22.16-1.68,9.75-4.58,19.19-7.1,28.73-1.73,6.55-4.66,12.78-5.44,19.65-.46,4.06-2.94,7.72-4.63,11.44-4.16,9.13-8.59,18.16-13.47,26.98-6.54,11.82-14.13,22.84-22.4,33.45-12.78,16.41-26.74,31.63-42.98,44.75-12.2,9.85-24.9,18.99-38.49,26.75-8.47,4.84-17.31,9.08-26.23,13.16-8.36,3.83-17.06,6.7-25.6,9.9-5.45,2.04-11.1,4.26-17.08,4.93-2.02.22-4.12.64-5.52,2.48-.79,1.04-1.97,1.11-3.17,1.11-7.91.03-15.83.01-23.74.16-2.47.04-3.23-.98-2.97-3.26.18-1.54,0-3.14.32-4.65.69-3.27,3.03-4.72,6.06-3.31,3.43,1.59,4.75.36,5.39-2.86,1.1-5.55,1.13-5.54,6.73-5.46,6.62.1,6.59.09,8.2-6.25.77-3.03,2.86-5.22,5.14-7.16,3.27-2.77,4.11-6.11,2.84-10.12-1.98-6.21,2.4-9.98,5.68-13.99,2.6-3.18,5.72-5.37,10.17-6.47,5.57-1.38,9.44-5.73,12-11.21,4.18-8.92.62-16.92-2.61-24.84-1.53-3.76-1.67-6.65,1.29-9.46,1.96-1.87,2.34-4.59,3.48-6.88,2.05-4.11,3.68-8.45,5.8-12.55,1.05-2.03.18-3.9-1.4-5.22-5.16-4.31-10.24-8.86-17.88-7.24-2.21.47-4.07-.54-6.07-1.81-4.07-2.58-8.79-1.21-13.26-1.04-.81.03-1.12.93-1.33,1.73-1.46,5.51-2.62,6.47-8.49,6.56-6.6.1-13.21.24-19.78-.74-2.8-.42-4.95.44-6.88,2.6-1.89,2.11-4.21,3.83-6.3,5.75-1.27,1.16-2.53,2.63-4.24.81-1.57-1.66-2.88-3.57-.97-5.8.91-1.07,2.07-1.95,3.19-2.81,3.71-2.88,3.71-4.24-.34-6.89-3.35-2.19-6.82-4.17-10.23-6.26-.77-.47-1.7-.85-2.24-1.53-6.37-7.95-12.76-5.2-19.31-.23-4.41,3.35-9.37,3.18-14.46,1.82-2.31-.61-2.78-2.96-4.34-4.27-1.07-.89-1.93-2.42-3.58-1.77-1.77.7-1.84,2.49-1.6,4,.59,3.61.53,7.23.65,10.85.11,3.3-1.45,4.91-4.75,4.5-5.16-.64-10.3-.44-15.48-.37-5.46.06-10.14,2.32-14.83,4.17-3.03,1.2-6.15,3.22-8.86,5.31-3.02,2.34-5.38,1.58-7.54-.6-3.3-3.33-6.57-6.41-11.31-7.79-1.91-.56-3.31-2.64-4.23-4.82-1.4-3.31-4.26-4.36-7.33-2.58-2.2,1.28-5.74,1.66-6.38,3.92-.84,2.98,3.1,3.16,4.85,4.63,5.84,4.93,7.15,14.84,1.8,20.26-6.33,6.4-6.14,11.88-1.91,20,1.71,3.27,3.03,6.85,4.25,10.32,1.39,3.94,4.18,5.52,7.38,7.25,5.55,3.01,10.91,6.35,15.92,10.21,5.71,4.4,11.34,8.93,17.25,13.05,2.06,1.44,4.91,1.58,7.53,1.31,9.51-.99,16.69,3.95,23.75,9.24,1.13.85,2.37,1.56,3.5,2.41,4.2,3.18,8.15,6.46,7.07,12.67-.33,1.89-.06,3.89-.14,5.83-.08,1.75.57,3.16,2.15,3.8,4.84,1.95,8.38,5.36,11.55,9.39,1.19,1.51,2.18,2.87,1.92,4.84-.33,2.51.97,3.06,3.2,3.01,5.04-.11,10.07-.03,15.26-.03-.46,1.2-1.27.85-1.87.87-18.67.58-37.3-1.33-55.97-.88-.91.02-2.07.16-2.52-.69-2.17-4.09-6.12-4.16-9.78-3.98-8.78.43-16.66-2.98-24.85-5.18-9.15-2.46-17.81-6.35-26.35-10.19-10.9-4.89-21.48-10.57-31.59-17.15-14.58-9.49-28.56-19.71-41.75-31.02-7.59-6.5-14.62-13.6-21.38-20.94-2.23-2.43-3.15-5.8-5.25-8.55-3.14-4.1-6.59-7.97-9.59-12.19-1.73-2.43-5.02-3.46-6.17-6.62-.71-1.93-1.81-3.71-1.29-5.89,5.16.99,10.38,1.06,15.33-.69,5.34-1.88,10.7-2.97,16.36-2.79,1.53.05,3.2-.06,4.58-.63,10.14-4.2,21.4-2.9,31.71-6.7,4.41-1.62,9.86-.02,14.53-1.88,4.42-1.77,8.95-2.76,13.65-2.36,6.78.57,12.39-2.8,17.79-5.78,4.35-2.4,8.32-2.89,12.88-2.07,2.09.38,3.27,1.33,3.24,3.59-.02,1.98.71,3.95,2.83,4.03,3.91.15,5.91,3.24,8.32,5.28,4.8,4.07,6.62,4.06,11.84.61,3.82-2.52,8.01-4.87,12.76-5.69,6.19-1.07,12.41-.66,18.62-.62,6.68.04,7.23-.39,7.12-7.32-.02-1.04-.05-2.08-.22-3.1-.64-3.83-1.31-7.65-2.01-11.46-.71-3.82-.46-7.15,3.37-9.47,2.49-1.51,3.63-4,3.35-7-.36-3.73-.1-7.08,4.51-8.08.73-.16,1.52-.64,1.38-1.6-.12-.9-1.01-1.14-1.7-1.41-3.9-1.53-7.89-1.33-11.83-.3-3.88,1.01-4.02,1.62-1.77,4.87,2.28,3.28,2.32,7.58-.66,9.36-4.79,2.86-7.41,7.42-10.74,11.5-3.73,4.56-6.61,10.12-13.9,10.51-4.64.25-6.82-.23-8.27-4.65-.64-1.96-1.66-3.28-3.8-3.19-2.05.09-3.43-.66-4.41-2.48-.77-1.43-2.24-1.9-3.74-2.51-2.92-1.18-5.85-3.17-5.69-6.6.3-6.71,5.15-10.13,11.85-8.58,3.41.79,5.17-.36,6.27-3.4.71-1.96,1.14-3.89,1.12-6.04-.05-5.3-2.12-10.35-1.55-15.76.26-2.44-1.74-4.38-3.9-5.4-10.94-5.16-22.61-4.3-27.04,9.76-.82,2.61-2.19,4.5-4,6.43-1.91,2.03-3.13,1.37-4.29-.42-1.73-2.67-2.32-5.7-2.64-8.84-.75-7.5.62-15.65-7.91-20.46-2.46-1.39-1.84-4.88.54-7.13,4.48-4.24,10.54-5.17,16-7.02,4.49-1.52,8.52-4.06,10-8.76,2.39-7.59-1.54-13.2-5.7-18.67-4.79-6.3-12.49-7.01-19.3-8.49-5.85-1.27-11.75-2.93-17.89-3.11-7.5-.22-15.08-1.24-22.44.41-7.49,1.67-15.07,2.16-22.62,3.1-1.25.16-3.35.93-3.71-.89-.41-2.05,1.61-2.41,3.27-3.02,4.04-1.48,8.23-.57,12.34-1.03,7.28-.81,14.42-2.43,21.78-2.92,9.87-.66,19.33,1.65,28.83,3.07,11.45,1.71,21.64,6.79,27.71,17.74,5.54,9.99.58,23.23-9.84,25.89-1.49.38-4.02-.34-3.97,2.07.06,2.54,2.77,2.2,4.5,2.78.59.2,1.29.14,1.93.11,7.64-.34,15.3-.43,22.9-1.16,4.88-.47,9.84.04,14.65-1.54,9.48-3.11,19.61-2.44,29.29-5.36,7.35-2.22,15.39-2.69,23.09-4.04,9.22-1.61,18.54-3.07,27.83-4.52,2.94-.46,6.06-.38,8.78-1.4,5.44-2.03,10.99-2.81,16.72-2.94,6.76-.15,12.67-3.05,18.22-6.47,4.45-2.74,10.59-1.42,12.53,3.34.74,1.82,2.16,2.81,4.04,3.32,2.4.65,4.6,1.63,6.31,3.6,5.32,6.09,8.48,6.11,15.2,1.8,4.82-3.09,9.88-6.08,16.18-5.67,5.43.35,10.89.1,16.34.05,3.71-.03,4.35-1.05,3.88-4.76-.51-4.1-.75-8.24-1-12.37-.05-.86-.6-2.23,1.15-2.31.64,2.3,1.29,4.61,1.93,6.91.63,2.3,2.39,3.22,4.45,2.73,5.15-1.23,10.34-.12,15.49-.54,1.9-.16,2.96.78,3.31,2.53.78,3.88,3.41,5.25,7.02,5.26,5.06.02,10.12-.06,15.17-.03,6.44.03,7.55-.53,9.53-6.65,1.76-5.42,4.9-9.89,9.5-12.86,2.65-1.71,3.99-3.66,5.17-6.33.88-1.99.89-4.03,1.32-6.03,1.67-7.9,1.63-7.9,9.78-7.83,3.24.03,6.49.06,9.73,0,.76-.01,1.85.46,2.43-1.48-8.6.71-16.83-1.07-25.11-1.29-20-.54-40.01-.45-60.02-.62,1.34-3.38-.23-4.57-3.42-4.55-2.57.02-5.14-.08-7.7.08-3.04.18-4.63,1.48-3.11,4.76,1.12,2.44.94,5.04.66,7.59-.19,1.72-.77,3.31-3.06,3.03.18-.6.29-1.24.57-1.8,3.33-6.66-.67-16.24-9.46-14.47-1.99.4-4.15.34-6.18.09-2.95-.37-5.15.49-7.26,2.6-2.56,2.56-5.7,3.86-9.4,2.25,1.67-1.12,2.07-2.7,2.09-4.66.05-6.28-3.19-11.98-3.03-18.29.04-1.64-.99-3.4-2.82-3.82-5.62-1.28-11.27-3.1-16.97-.3ZM345.13,419.49c2.66.29,4.83.72,7,.73,15.56.13,31.12.08,46.68.29,11.7.16,23.5-.58,34.68,4.34,2.21.98,3.9,1.85,4.55,4.18.8,2.85,2.79,4.17,5.55,3.6,2.9-.6,2.47-3.14,2.46-5.37-.02-5.44-.13-10.89.18-16.32.13-2.25.42-4.36-2.06-5.12-2.61-.79-4.88-.03-6,2.82-.72,1.84-1.6,3.63-3.69,4.24-7.28,2.13-14.48,4.4-22.22,4.47-20.6.2-41.2.61-61.8.96-1.64.03-3.38-.38-5.32,1.18ZM535.93,305.94c.35,1.1,1.26.77,1.94.79,9.06.29,18.13.42,27.19.83,12.72.58,25.68-1.44,38.02,3.75,2.5,1.05,4.38,1.76,4.88,4.65.44,2.55,2.1,3.87,4.76,3.32,2.63-.55,2.84-2.5,2.67-4.79-.44-5.69-.52-11.39.04-17.08.21-2.15-.09-4.02-2.43-4.62-2.47-.63-4.35.19-5.05,2.88-.5,1.95-1.22,3.77-3.38,4.39-6.93,2.01-13.66,4.45-21.14,4.41-14.9-.08-29.8.47-44.7.8-.93.02-2.05-.44-2.78.66ZM243.2,374.97c-1.76.61-3.93.74-4.21,3.29-.13,1.22,4.78,5.19,6.48,5.24,1.41.04,1.66-.93,1.74-2.05.17-2.24-2.38-6.4-4.01-6.47ZM295.77,450.77v-.16c1.17,0,2.33.02,3.49,0,1.53-.03,2.61-.76,2.4-2.34-.25-1.81-1.66-1.19-2.73-.89-1.9.53-3.78.81-5.64-.11-.94-.47-2.05-1.88-2.81-.11-.68,1.56.39,2.81,1.86,3.3,1.06.36,2.29.23,3.44.32ZM254.44,401.77c-.13-1.44.2-3.32-1.68-3-3.96.67-1.61,4.51-2.89,6.65-.54.9.21,2.81,1.58,2.31,2.7-.99,2.58-3.81,2.99-5.96Z"/>
    <path class="cls-1" d="M488.58,319.66c2.29.28,2.88-1.31,3.06-3.03.28-2.55.46-5.15-.66-7.59-1.51-3.28.07-4.58,3.11-4.76,2.56-.15,5.14-.06,7.7-.08,3.19-.02,4.75,1.17,3.41,4.54-1.55-.75-2.29.37-3.1,1.34-2.52,1.35-3.56,6.56-1.81,9.07-.67.91-1.18,2.01-2.02,2.7-4.49,3.66-3.83,8.33-2.74,13.12-1.74.08-1.2,1.45-1.15,2.31.25,4.13.49,8.27,1,12.37.46,3.71-.18,4.73-3.88,4.76-5.45.05-10.92.3-16.34-.05-6.29-.4-11.36,2.59-16.18,5.67-6.72,4.31-9.89,4.29-15.2-1.8-1.72-1.97-3.92-2.95-6.31-3.6-1.88-.51-3.3-1.5-4.04-3.32-1.94-4.76-8.08-6.08-12.53-3.34-5.54,3.42-11.46,6.32-18.22,6.47-5.74.13-11.28.91-16.72,2.94-2.72,1.02-5.85.94-8.78,1.4-9.29,1.45-18.61,2.91-27.83,4.52-7.71,1.35-15.74,1.82-23.09,4.04-9.68,2.92-19.81,2.25-29.29,5.36-4.81,1.58-9.77,1.07-14.65,1.54-7.6.73-15.26.82-22.9,1.16-.65.03-1.34.09-1.93-.11-1.73-.58-4.45-.24-4.5-2.78-.05-2.41,2.48-1.69,3.97-2.07,10.43-2.65,15.38-15.9,9.84-25.89-6.07-10.95-16.26-16.03-27.71-17.74-9.49-1.42-18.96-3.73-28.83-3.07-7.36.5-14.5,2.11-21.78,2.92-4.1.46-8.3-.45-12.34,1.03-1.66.61-3.68.97-3.27,3.02.36,1.82,2.46,1.05,3.71.89,7.55-.94,15.14-1.43,22.62-3.1,7.36-1.65,14.93-.63,22.44-.41,6.14.18,12.04,1.84,17.89,3.11,6.8,1.48,14.5,2.19,19.3,8.49,4.16,5.46,8.09,11.07,5.7,18.67-1.48,4.7-5.51,7.24-10,8.76-5.46,1.85-11.52,2.78-16,7.02-2.38,2.25-3,5.74-.54,7.13,8.53,4.82,7.16,12.96,7.91,20.46.32,3.14.91,6.17,2.64,8.84,1.16,1.79,2.38,2.45,4.29.42,1.82-1.93,3.18-3.82,4-6.43,4.43-14.06,16.1-14.93,27.04-9.76,2.16,1.02,4.16,2.96,3.9,5.4-.58,5.41,1.49,10.46,1.55,15.76.02,2.15-.41,4.08-1.12,6.04-1.1,3.03-2.86,4.19-6.27,3.4-6.71-1.55-11.55,1.87-11.85,8.58-.16,3.42,2.77,5.41,5.69,6.6,1.5.61,2.97,1.08,3.74,2.51.98,1.83,2.36,2.57,4.41,2.48,2.15-.09,3.17,1.23,3.8,3.19,1.44,4.42,3.62,4.9,8.27,4.65,7.3-.39,10.17-5.95,13.9-10.51,3.34-4.08,5.96-8.64,10.74-11.5,2.98-1.78,2.94-6.08.66-9.36-2.26-3.25-2.11-3.86,1.77-4.87,3.93-1.02,7.93-1.22,11.83.3.69.27,1.57.5,1.7,1.41.13.96-.66,1.45-1.38,1.6-4.61.99-4.87,4.34-4.51,8.08.29,3-.86,5.49-3.35,7-3.82,2.32-4.07,5.65-3.37,9.47.7,3.81,1.38,7.64,2.01,11.46.17,1.02.2,2.07.22,3.1.11,6.93-.44,7.36-7.12,7.32-6.21-.03-12.44-.45-18.62.62-4.75.82-8.94,3.17-12.76,5.69-5.23,3.45-7.05,3.46-11.84-.61-2.4-2.04-4.41-5.13-8.32-5.28-2.13-.08-2.85-2.05-2.83-4.03.02-2.26-1.15-3.21-3.24-3.59-4.56-.82-8.53-.33-12.88,2.07-5.4,2.98-11.01,6.35-17.79,5.78-4.7-.4-9.22.59-13.65,2.36-4.67,1.87-10.12.26-14.53,1.88-10.32,3.8-21.57,2.5-31.71,6.7-1.38.57-3.06.68-4.58.63-5.66-.18-11.02.91-16.36,2.79-4.95,1.74-10.16,1.68-15.33.69-2.5-3.15-6.27-2.58-9.51-2.78-3.82-.24-7.73.44-11.57.92-4.52.56-8.97.75-13.5-.2-7.7-1.62-15.29-1.32-22.99.9-6.55,1.89-13.4,3-19.5,6.03-5.78,2.87-11.79,5.1-17.66,7.7-4.23,1.87-5.29,1.06-5.21-3.57.09-5.05.08-10.11.29-15.15.54-12.94-5.11-23.12-13.86-32.05-3.71-3.78-7.29-7.71-10.68-11.77-3.12-3.74-2.59-7.86.76-11.43,3.69-3.94,7.91-7.47,10.35-12.45.43-.1.66-.34.56-.81,0,0,.07-.12.07-.12.77-.48,1.1-1.15.93-2.05,0,0,.03-.11.03-.1.73-3.42,1.71-3.61,4.51-1.18,2.82,2.44,6.57,3.79,9.91,5.62,3.95,2.18,8.31,3.35,12.43,5.04,3.43,1.41,6.7,2.64,10.36,2.65,7.65.03,15.32.32,22.94-.22,5.49-.38,9.37,1.43,12.77,5.51,2.84,3.41,6.78,5.28,11.23,5.42,13.08.39,26.16.58,39.24.88,2.54.06,4.8-.63,7.04-1.82,6.12-3.25,12.37-3.13,18.48-.02,3.24,1.65,6.92,2.28,9.67.52,4.54-2.91,8.27-2.44,12.62.02,2.24,1.27,4.99,1.38,7.21-.78,2.24-2.18,3.14-4.53,1.96-7.69-1.79-4.8-5.3-7.32-12-7.17-9.65.22-18.94-1.98-28.32-3.6l-.05-.02c-.78-2.17.25-3.03,2.28-3.46,3.02-.64,6-1.48,9-2.25,2-.51,3.93-1.47,3.67-3.78-.3-2.6-2.71-2.26-4.6-2.37-9.05-.48-17.33,3.25-26.01,4.77-4.27.75-8.44,2.04-12.68,2.97-.95.21-2.24.42-2.91-.49-.83-1.14.48-1.78,1-2.6,1.41-2.2,1.79-4.05-1.71-4.34-.14-.18-.33-.29-.55-.34-.37-2.29-2.34-2.07-3.57-1.65-2.68.92-5.52,1.71-7.51,4l-.04.02c-.47-.24-.76-.09-.86.42-.4.26-.81.52-1.21.78-.54-.19-.79-.01-.74.57-.33.21-.67.43-1,.64-2.86-.29-5.39.3-7.25,2.69-.7.39-1.39.77-2.09,1.16-1.93-.02-3.86-.06-5.79-.06-1.06,0-1.7-.48-2-1.48-.37-1.23.55-1.56,1.35-1.98,1.25-.66,2.77-.84,3.71-2.03.89-1.12,1.91-2.3,1.13-3.83-.81-1.57-2.43-1.5-3.78-1.14-1.6.43-3.09,1.28-4.62,1.95-.21-.13-.43-.26-.64-.39-.17-.17-.35-.34-.52-.52-3.42-2.45-6.32-5.36-11.41-4.69-4.34.57-5.23-1.29-3.64-5.29,1.07-2.69-.45-3.27-2.54-3.19-3.51.14-3.22-1.37-1.99-3.79,1.84-3.64,5.31-4.96,8.68-6.39,2.63-1.11,4.97-2.36,5.62-5.44,5.2-.2,8.54-4.45,13.16-6.06,3.92-1.36,7.29-4.25,11.19-5.7,4.09-1.52,7.87-3.67,11.87-5.34,5.89-2.45,11.94-4.42,17.83-6.8,4.19-1.7,8.46-2.91,12.76-4.2,3.47-1.04,7.08-2.24,10.4-3.85,3.88-1.88,3.82-3.65.21-5.85-4.06-2.47-5.26-5.62-4.16-10.12.8-3.25,3.25-5.09,5.41-7.3,4.51-4.61,8.61-9.71,7.51-16.65-.7-4.43,1.7-6.94,4.36-9.28,2.45-2.17,5.46-.95,8.11.12,7.56,3.05,13.73,8.6,21.36,11.66,7.03,2.82,13.79,6.41,21.56,6.52,7.65.1,15.31.03,22.96-.28,4.3-.17,7.58,1.19,10.07,4.62,2.55,3.52,6.46,5.23,10.34,5.56,14.46,1.25,28.97,1.61,43.49,1.58,1.21,0,2.35-.27,3.31-.97,6.55-4.72,13.32-3.7,20.18-.84,4.02,1.68,8,2.11,11.79-.57,1.83-1.3,3.79-1.75,5.89-1.04,1.83.63,3.57,1.52,5.35,2.28,3.17,1.36,5.66-.13,7.63-2.28,1.76-1.93,2.47-4.67.61-6.77-2.62-2.96-5.45-5.9-10.01-5.86-6.35.05-12.65-.24-18.93-1.56-4.53-.95-9.25-1.04-13.88-1.52-1.2-.12-2.5-.27-2.56-1.79-.05-1.37,1.06-1.99,2.24-2.31.62-.16,1.29-.11,1.93-.19,4.63-.57,9.25-1.18,13.62-2.97,1.6-.65,3.5-1.39,3.19-3.34-.29-1.84-2.24-2.46-3.98-2.52-2.06-.07-4.18-.06-6.2.3-10.73,1.95-21.52,3.64-31.98,6.92-1.97.62-3.59.26-2.82-2.38.89-3.03-.71-4.51-3.03-5.92-5.17-3.14-8.5,1.04-12.17,3.13-5.07,2.89-10.63,4.35-16,6.38-.57.22-1.29.08-1.93.05-.67-.03-1.3-.23-1.51-.97-.2-.71.12-1.29.72-1.64,1.33-.78,2.74-1.43,4.03-2.28,1.94-1.28,2.9-3.21,1.99-5.37-.95-2.29-2.94-1.31-4.72-.95-3.69.74-6.67,3.39-10.43,3.85-1.74.21-3.52.75-4.21-1.99-.65-2.59-3.31-2.53-4.76-1.4-4.13,3.22-8.75,1.39-13.12,1.9-.75.09-1.66.07-1.95-.86-.27-.85.36-1.43.88-2.02,1.24-1.4,2.86-2.2,4.52-2.97,1.88-.87,3.65-2.04,2.72-4.4-.88-2.22-3.02-1.55-4.77-1.3-1.4.2-2.78.62-4.16.98-.98.26-1.87.2-2.29-.83-.42-1.01.15-1.78.99-2.27,1.46-.84,2.99-1.54,4.44-2.4,8.04-4.76,16.07-9.55,24.1-14.32,4.85-2.88,9.64-5.84,14.86-8.06,1.22-.52,3.02-1.1,3.03-3.09.47-.06.94-.12,1.41-.18,1.59,1.08,3.25.19,4.2-.64,3.55-3.09,8.04-4.17,12.17-5.84,4.04-1.64,7.76-4.32,12.02-5.05,5.87-1,11.24-3.51,16.88-5.12,7.58-2.16,15.1-4.69,22.74-6.65,3.2-.82,6.71-.33,10-.88,8.79-1.48,17.55-3.42,26.51-2.52,6.91.69,13.79,1.84,20.63,3.05,7.99,1.41,15.82,3.31,21.47,9.9,4.89,5.71,7.88,11.7,4.07,19.36-.68,1.37-2.76,3.07-.92,5.12-.82,2.29-2.67.83-4.05,1.11-1.9-.9-3.76-.88-5.57.24-1.85-.03-2.55,1.72-3.88,2.5-.89.11-1.78.21-2.67.33-4.4.57-7.37,2.94-8.76,7.16-1.32,4.02,1.86,5.86,4.17,7.97,3.33,3.04,5.4,6.42,5,11.19-.29,3.47-.07,6.98.02,10.47.07,2.72,1.27,4.87,4.08,5.38,2.8.51,3.75-1.53,4.44-3.82.41-1.35,1.11-2.63,2.45-3.38,2.05,1.35,3.43.45,4.41-1.4,1.26-2.4,2.43-4.84,3.64-7.27.42-.17.53-.47.37-.89.11-.22.2-.45.28-.69,5.71-2.8,11.36-.98,16.97.3,1.83.42,2.86,2.18,2.82,3.82-.16,6.31,3.08,12.02,3.03,18.29-.01,1.96-.42,3.54-2.09,4.66-3.53-.9-5.03,2.01-7.13,3.8-4.19-.17-8.71,3.22-9.42,7.28-.48,2.74.1,5.4,2.88,6.57,4.17,1.75,6.89,5.88,11.59,6.72,1.43.26,2.23,1.62,2.98,2.88.54.91.57,2.4,2.18,2.33h0c-.37,2.1,1.35,2.56,2.57,2.45,3.28-.29,6.65-.51,9.69-1.99,1.68-.82,2.8-2.19,2.64-4.24,5.97-1.36,7.58-6.99,10.79-11.04.47-.07.69-.33.6-.82l.09-.13c.47-.03.68-.24.53-.72l.22-.23c.48.09.68-.05.48-.55.12-.06.22-.15.29-.27.48.12.73.01.53-.54l.23-.17Z"/>
    <path class="cls-2" d="M432.18,252.35c-1.84-2.05.24-3.75.92-5.12,3.81-7.66.82-13.64-4.07-19.36-5.65-6.59-13.48-8.5-21.47-9.9-6.85-1.2-13.72-2.35-20.63-3.05-8.96-.9-17.72,1.04-26.51,2.52-3.29.56-6.81.06-10,.88-7.65,1.96-15.17,4.5-22.74,6.65-5.64,1.61-11.01,4.11-16.88,5.12-4.26.73-7.98,3.41-12.02,5.05-4.13,1.67-8.62,2.75-12.17,5.84-.96.83-2.61,1.73-4.21.64,1.22-1.4,3.31-1.82,4.11-3.74.58-1.39.92-2.71-1.14-2.73-6.09-.06-9.89-4.66-14.61-7.34-3.38-1.92-6.06-4.8-8.37-8.21-3.82-5.64-6.1-5.3-9.41.52-.89,1.56-1.88,2.97-3.91,2.46-2.13-.54-2.72-2.28-2.52-4.25.27-2.77-.42-5.42-.95-8.07-.59-2.95-4.7-6.39-7.23-6.24-2.77.16-4.23,2.21-4.73,4.5-1.09,5.07-1.57,10.26-.7,15.43.82,4.91.28,9.83.44,14.75.05,1.63-.92,2.83-2.14,3.5-5.5,3.01-7.33,7.58-6.4,13.61.27,1.72.42,3.85-2.19,4.24-2.57.38-4.11-1.25-4.55-3.35-1.29-6.19-4.94-11.11-8.6-15.88-3.79-4.94-7.16-10.64-14.13-12.03-1.67-.33-2.91-1.75-2.35-3.48,2.52-7.75,2.91-16.19,8.17-23.07,4.8-6.28,8.25-6.98,14.02-1.9,1.27,1.12,2.49,1.82,4.18.99,1.19-.59,1.68-1.48,1.57-2.82-.14-1.75-1.37-2.45-2.76-2.88-1.7-.53-3.95-.47-4.06-2.84-.1-2.11,1.43-3.48,3.18-4.55,3.64-2.23,7.31-4.42,10.84-6.82,1.8-1.22,3.28-3.12,1.47-5.2-1.79-2.06-3.14-.07-4.46,1.13-3.01,2.74-5.29,2.38-7.36-1.2-.55-.95-1-1.95-2.26-1.64-1.17.29-1.52,1.45-1.59,2.45-.27,3.88-1.95,6.4-6.1,6.67-3.2.21-8.14-3.04-9.26-6.04-1.17-3.16.15-5.71,3.51-6.26,3.25-.53,4.73-2.37,4.89-5.51.23-4.5.5-8.9-4.94-11.01-1.52-.59-2.67-2.37-4.32-.55-1.54,1.7-2.79,3.59-.98,5.86,1.75,2.21,1.54,4.51.65,6.97-1.07,2.97-3,5.43-4.61,8.07-1.16,1.91-2.87,2.94-4.89,2.15-2.14-.84-2.14-3.12-1.84-5.01.37-2.29,1.19-4.5,1.76-6.75.89-3.55-1.43-8.99-4.15-9.86-4.93-1.57-6.09-3.7-5.45-8.75.69-5.51,1.34-11,3.33-16.25.59-1.56,1.12-3.6-1.03-4.32-1.93-.65-2.11,1.52-2.72,2.64-1.55,2.85-3.18,4.94-7.02,3.48-2.32-.88-3.54.47-3.74,2.98-.3,3.66-2.29,6.9-5.68,7.54-3.11.59-4.8,1.69-6.12,4.38-.83,1.7-2.26,3.13-3.52,4.6-3.3,3.85-3.72,7.29-.56,11.04,2.21,2.62,2.64,5.04.7,7.69-4.17,5.7-4.64,12.13-4.11,18.82.08,1.03.02,2.08-.06,3.11-.11,1.57-.36,3.24-1.4,4.38-6.12,6.66-6.75,15.72-9.74,23.61-2.33,6.14-3.97,12.92-5.08,19.73-1.51,9.31-5.13,18.31-8.08,27.36-1.19,3.66-2.65,7.33-4.64,10.6-2.61,4.29-3.85,9.06-3.57,13.69.59,10.07,1.4,20.12,1.44,30.22,0,2.2,1.2,4.14,2.25,6.12,2.04,3.84,5.34,7.22,5.41,11.87.08,5.53,1.57,7.28,8.1,4.61,10.25-4.18,20.47-8.35,31.29-10.85,1.86-.43,2.67-1.72.83-2.87-2.29-1.44-2.92-3.91-4.47-5.77-2.5-2.99-2.06-5.94.37-8.71,1.28-1.46,2.67-2.83,4.09-4.17,5.89-5.58,10.34-11.6,9.21-20.53-.55-4.37,4.73-8.63,9.2-9.09,6.53-.67,11.27,2.8,16.28,6.01,3.44,2.21,6.86,4.47,10.58,6.26,5,2.4,10.53,3.15,15.56,5.27,5.51,2.33,11.15,2.17,16.83,1.79,2.44-.17,4.73-1.07,3.02-4.53-1.13-2.3-.85-4.75.09-7.15,1.25-3.2.56-4.18-2.93-4.31-2.07-.08-4.16.07-6.23-.03-1.7-.09-3.49-.36-3.95-2.43-.42-1.9.6-3.11,2.17-4.14,1.87-1.22,4.15-2.09,5.1-4.67-2.56-.55-4.53.23-6.26,1.71-1.1.95-2.23,1.35-3.54.61-1.45-.83-1.8-2.27-1.45-3.72.63-2.6,1.92-5.15,4.61-5.77,3.82-.89,6.67-3.45,9.6-5.48,5.27-3.66,11.12-6.24,16.39-9.88,6.01-4.15,13.41-5.9,19.28-10.43.83-.64,1.9-.85,2.91-.16-.01,1.99-1.81,2.56-3.03,3.09-5.22,2.23-10.01,5.19-14.86,8.06-8.03,4.77-16.06,9.56-24.1,14.32-1.45.86-2.98,1.56-4.44,2.4-.84.49-1.41,1.26-.99,2.27.42,1.03,1.31,1.09,2.29.83,1.38-.36,2.75-.78,4.16-.98,1.75-.25,3.9-.91,4.77,1.3.93,2.36-.84,3.54-2.72,4.4-1.66.76-3.28,1.56-4.52,2.97-.52.59-1.15,1.17-.88,2.02.3.93,1.21.95,1.95.86,4.37-.51,8.99,1.32,13.12-1.9,1.44-1.13,4.1-1.19,4.76,1.4.69,2.74,2.47,2.2,4.21,1.99,3.77-.46,6.74-3.1,10.43-3.85,1.78-.36,3.76-1.34,4.72.95.9,2.16-.05,4.09-1.99,5.37-1.29.84-2.7,1.5-4.03,2.28-.6.35-.92.92-.72,1.64.21.74.83.94,1.51.97.65.03,1.36.17,1.93-.05,5.37-2.03,10.93-3.5,16-6.38,3.67-2.09,7-6.27,12.17-3.13,2.32,1.41,3.92,2.89,3.03,5.92-.77,2.64.84,3,2.82,2.38,10.45-3.28,21.24-4.97,31.98-6.92,2.02-.37,4.13-.37,6.2-.3,1.74.06,3.69.68,3.98,2.52.31,1.95-1.6,2.69-3.19,3.34-4.37,1.78-8.99,2.4-13.62,2.97-.64.08-1.31.03-1.93.19-1.18.31-2.29.94-2.24,2.31.06,1.52,1.37,1.67,2.56,1.79,4.63.47,9.35.56,13.88,1.52,6.28,1.32,12.58,1.61,18.93,1.56,4.56-.04,7.39,2.9,10.01,5.86,1.86,2.1,1.16,4.84-.61,6.77-1.97,2.15-4.46,3.64-7.63,2.28-1.78-.77-3.52-1.65-5.35-2.28-2.09-.72-4.06-.26-5.89,1.04-3.79,2.69-7.77,2.26-11.79.57-6.85-2.87-13.63-3.89-20.18.84-.96.69-2.1.96-3.31.97-14.52.03-29.03-.32-43.49-1.58-3.88-.34-7.79-2.05-10.34-5.56-2.49-3.43-5.78-4.79-10.07-4.62-7.64.31-15.31.38-22.96.28-7.77-.11-14.53-3.7-21.56-6.52-7.63-3.06-13.8-8.62-21.36-11.66-2.65-1.07-5.66-2.28-8.11-.12-2.65,2.35-5.06,4.85-4.36,9.28,1.1,6.94-3.01,12.04-7.51,16.65-2.16,2.21-4.61,4.05-5.41,7.3-1.11,4.51.1,7.65,4.16,10.12,3.61,2.2,3.67,3.96-.21,5.85-3.32,1.61-6.94,2.81-10.4,3.85-4.3,1.29-8.56,2.51-12.76,4.2-5.89,2.39-11.94,4.35-17.83,6.8-4,1.67-7.79,3.82-11.87,5.34-3.9,1.45-7.28,4.33-11.19,5.7-4.62,1.61-7.96,5.86-13.16,6.06.16-4.4-1.42-8.55-2.06-12.83-2.26-15.3-2.96-30.5-1.67-45.97.81-9.67,3-19.19,2.94-28.93,0-.65.3-1.48,0-1.91-2.18-3.21-.46-6.59.31-9.41,1.35-4.95,2.13-10.02,3.55-14.95,3.9-13.58,8.66-26.83,13.96-39.94,3.93-9.72,8.5-19.11,13.32-28.36,5.95-11.43,13.21-22.1,20.45-32.77,4.81-7.09,10.57-13.36,15.99-19.93.56-.68,1.02-1.54,2.1-1.55,2.08,1.95,3.34.67,4.84-.96,2.24-2.44-.92-2.81-1.38-4.19,3.79-3.9,7.6-7.77,11.35-11.7,2.07-2.17,3.92-2.99,6.58-.54,2.48,2.29,5.37,2.43,7.85-.42,1.55-1.78,3.65-2.7,5.87-2.57,4.79.28,6.33-3.47,7.53-6.59,1.15-2.99-1.54-5.39-4.12-6.53-2.75-1.22-2.39-2.25-.53-3.69,1.93-1.49,3.69-3.25,6.04-4.13.23,1.39.63,2.31,2.46,2.15,6.95-.61,12.58-6.72,12.45-13.72,1.71.19,2.86-1.06,4.26-1.65,1.08-.45,2.49-2.24,3.21-.73.78,1.63,1.37,4.03-.74,5.65-.76.58-1.64.72-2.57.72-1.64,0-3.39.1-3.22,2.33.17,2.23,1.8,2.88,3.86,2.93,1.8.05,3.31-.82,4.74-1.59,4.06-2.2,8.33-4.12,11.59-7.55.72-.75,1.58-1.5,1.1-2.69-.55-1.35-1.82-1.23-2.99-1.27-1.78-.06-3.45,1.3-5.32.36-.82-.41-1.83-.66-2.07-1.61-.26-1.05.61-1.67,1.41-2.09,6.69-3.51,13.03-7.74,20.56-9.57,1.66-.4,2.35.11,3.29,1,6.31,6.02,9.43,5.19,18.64,2.19,2.31-.75,4.75-1.37,6.67.08,5.74,4.31,11.24,3.45,16.66-.31,1.81-1.26,3.6-1.78,5.37-.59,5.56,3.74,10.01.59,14.05-2.55,2.16-1.68,4.24-2.97,6.82-3.14,7.31-.49,14.6-1.55,21.11,3.79,2.85,2.34,6.81,3.59,10.48,4.6,6.43,1.76,11.43,5.84,16.74,9.42,2.73,1.84,2.5,3.53-.01,5.75-3.33,2.93-5.44,6.56-5.59,11.11-.07,2.07-.08,4.15-.07,6.23.03,4.84,2.62,8.8,7.1,10.52,4.55,1.75,8.21,4.11,8.7,9.58.16,1.72,1.68,2.98,2.9,3.98,4.11,3.38,8.65,6.06,14.01,6.97,2.58.43,4.74-.45,5.95-2.72,1.47-2.76,3.59-3.04,6.24-2.32,2.25.61,4.47,1.38,6.76,1.72,2.27.34,4.63-.2,5.56-2.53.98-2.43-1.17-3.32-2.89-4.3-8.79-5.03-18.27-8.21-28.07-10.52-1.71-.4-2.87-1.35-3.34-2.91-1.1-3.62-3.68-5.83-6.79-7.59-1.03-.58-2.2-1-2.21-2.43,0-1.17.77-1.92,1.71-2.42,1.42-.76,2.45.06,3.41,1.03,3.78,3.79,8.11,6.72,13.08,8.75,4.89,2,7.91.19,8.12-5.06.05-1.17-.01-2.34,0-3.5.03-1.53-.3-3.32,1.73-3.85,2.22-.58,3.57.88,4.14,2.66,1.11,3.45,2.83,6.57,4.38,9.81,3.23,6.78,8.58,11.11,15.32,13.83,2.79,1.12,4.33,2.98,3.28,5.61-1.32,3.32-3.43,6.51-6.77,8.15-8.11,3.97-15.58,8.96-23.13,13.83-.33.21-.65.43-.95.67-1.51,1.22-4.88,1.04-4.35,3.6.45,2.19,3.6,0,5.14,1.39-1.71,1.87-6.27,2.24-3.41,6.51.65,1.24-.36,1.86-1,2.57-.81.91-1.6,2.02-.77,3.03.93,1.12,2.3.64,3.46-.03,1.39-.8,2.58-2.13,4.43-1.74-.31,3.29,1,4.66,4.45,4.31,2.46-.25,4.89-.33,7.23-1.24,2.17-.85,4.71-1.11,6.22.67,3.45,4.06,6.83,2.84,10.2.36,2.5-1.84,5.16-2.21,8.08-1.99,2.61.19,3.09,1.7,2.18,3.74-1.21,2.73-3.23,4.62-6.29,5.3-.83.18-1.88.65-1.43,1.87.32.87,1.25.84,2.01.77.89-.09,1.98-.06,2.61-.56,4.44-3.5,10.76-2.62,15.05-6.73,1.43-1.37,3.83-1.9,5.69-3.14,2.06-1.38,4.6-2.08,6.73.22,1.65,1.78,4.06,2.87,4.89,5.41.3.92,1.09,1.77,2.01,1.55,4.55-1.11,9.48.28,13.79-1.77,7.32-3.47,15.1-3.13,22.84-3.37.88-.03,1.8.27,2.65.55,1.35.45,2.21,1.39,2.1,2.9-.11,1.51-1.08,2.53-2.5,2.49-4.7-.15-8.72,2.37-13.19,3.08-1.39.22-3.37.12-3.34,1.89.03,2.04,2.11,1.33,3.41,1.5,6.53.86,13.23.28,19.63,2.23,3.26,1,6.57,1.77,9.95,1.35,7.13-.88,14.37-.52,21.44-2.12,1.95-.44,4.14-.17,6.17.14,1.4.21,2.9,1.04,2.12,2.96-1.98,4.81-6.45,7.62-9.51,11.57-.23.29-1.01.3-1.5.23-3.08-.46-5.85.5-8.57,1.74-2.5,1.14-5,1.07-7.56.26-4.26-1.34-8.77-2.23-12.86-.29-3.63,1.72-6.55.89-9.96-.22-7.69-2.51-15.42-3.44-22.79,1.34-1.76,1.14-3.89,1.74-5.95,1.15-2.69-.77-5.39-.64-8.1-.68-9.59-.12-19.15-.86-28.7-1.64-4.69-.38-9.24-1.24-12.27-5.56-2.54-3.63-6.35-4.56-10.58-4.5-4.53.06-9.05.24-13.58.58-7.27.55-14.24-.63-21.24-3.26-4.67-1.76-9.32-3.67-13.8-5.74-4.96-2.29-9.5-5.59-14.04-8.78-3.64-2.56-8.06-2.28-11.9-.62-3.5,1.51-3.33,5.28-3.14,8.54.43,7.3-3.11,12.6-8.25,17.19-1.73,1.54-3.35,3.21-5.12,4.7-1.98,1.65-2.29,3.6-1.52,5.92,1.03,3.13,2.79,6.03,5.02,8.17,2.34,2.24,5.5,4.83,9.2,1.49.52-.47,1.45-.6,2.21-.68,10.91-1.08,21.77-2.77,32.74-3.31,7.93-.39,15.65,1.14,23.48,2.08,9.1,1.1,17.45,3.42,24.4,9.21,4.56,3.8,8.92,7.93,9.35,14.92.23,3.76-.77,7.1-1.08,10.65-.23,2.7-1.63,4.27-4.41,4.46l-.04.07ZM315.3,150.88c.27-2.52-.7-5.8-2.67-9.08-2.83-4.72-5.59-9.45-8.66-14.05-4.2-6.29-8.38-11.24-16.74-10.27-2.05.24-4.17.2-6.22-.06-2.99-.38-5.21.84-6.55,3.22-3.88,6.93-10.23,7.05-16.82,2.17-.94-.69-2.14-2-2.99-.9-2.86,3.64-6.77,2.35-10.38,2.83-3.04.4-5.27,2.8-5.95,5.47-.63,2.46,2.23,3.01,4.14,3.73,1.59.6,2.58,1.65,2.63,3.45.06,2.18-1.52,2.82-3.13,3.42-.96.36-2.28.49-2.05,1.86.2,1.22,1.24,1.92,2.51,2.08,1.75.22,3.29-.08,4.59-1.49,3.48-3.77,7.57-7.05,8.96-12.37.42-1.63,1.74-2.65,3.57-2.3,1.98.38,2.62,1.82,2.66,3.73.04,1.81-.96,2.71-2.31,3.71-2.17,1.61-4.99,3.66-3.61,6.54,1.17,2.44,4.33,1.51,6.76,1.1,1.01-.17,2.07-.36,3.08-.24,2.73.31,5.14,1.4,5.69,4.37.81,4.41,3.4,7.93,6.14,11.02,3.25,3.66,3.91,7.19,2.52,11.67-1.22,3.93-.36,7.27,2.55,10.68,3.77,4.4,8.17,7.78,12.75,11.16,4.03,2.97,5.99,2.67,7.01-2.39,1.14-5.63,3.97-10.56,6.08-15.78,2.9-7.15,6.38-14.07,6.41-23.27ZM514.05,169.97c-3.17-1.3-6.33-1.52-9.28-.67-9.82,2.83-20.17,3.28-29.86,6.66-2.09.73-4.33.79-6.54.65-1.11-.07-2.66.71-3.22-.48-.66-1.39.62-2.66,1.39-3.8.4-.6,1.2-.94,1.85-1.35,1.01-.65,2.83-.86,1.95-2.68-.77-1.59-2.42-2.14-4-1.56-2.66.98-5.35,1.92-7.71,3.61-4.54,3.26-9.47,5.6-15.09,6.31-2.66.34-4.42.99-3,4.5.99,2.43,2.17,5.66.42,7.93-2.22,2.88-1.47,3.79,1.54,4.26,6.15.96,12.35,1.15,18.56,1.33,4.65.14,9.29.11,13.95.57,6.04.59,12.28,1.96,18.15-1.41,5.08-2.91,10.25-2.24,15.69-.46,3.45,1.13,7.87,2.21,10.93.99,5.84-2.33,11.32-.58,16.8-.16,8.21.62,14.73-2.02,20.39-7.57.81-.79,1.93-1.77,1.42-2.97-.57-1.34-2.07-.62-3.16-.7-6.77-.52-13.39,1.24-20.06,1.48-11.65.41-23.24-1.11-34.71-3.23-2.31-.43-5.66-.55-5.79-3.55-.12-2.8,2.9-3.67,5.29-4.29,4.67-1.22,9.39-2.28,14.09-3.4ZM231.7,159.41c-5.12-.02-5.69.71-5.02,4.38.2,1.13.31,2.32.18,3.45-.13,1.13-.89,2.29.53,3.08,1.29.71,2.19-.19,3.12-.88,1.76-1.3,3.5-1.38,5.4-.2,3.63,2.24,6.41,5.23,8.05,9.15,1.18,2.81,1.41,5.79.34,8.72-1.06,2.9-3.69,1.67-5.71,2.01-1.55.25-2.77,1.02-2.93,2.64-.16,1.65,1.17,2.27,2.51,2.4,3.81.35,6.16,2.51,8.34,5.51,2.2,3.02,6.55,2.52,9.48-.59,2.53-2.69,2.32-4.78-.71-7.13-4.36-3.39-4.12-5.46.98-8.29,1.5-.83,2.61-2,2.08-3.74-.75-2.44-1.3-5.22-2.87-7.07-6.56-7.76-15.18-11.96-23.78-13.41ZM272.75,284.64c-.39-1.39-1.31-.82-2.15-.57-5.08,1.5-10.05,3.24-14.56,6.08-.77.48-2.57.2-2.04,1.7.53,1.5,2.34,2.08,3.58,1.31,4.19-2.6,9.03-3.76,13.26-6.2.9-.52,1.73-1.16,1.91-2.32ZM341.55,184.74c-.07-.74.31-1.75-.53-2.09-1.24-.5-2.16.68-2.4,1.44-1.02,3.21-3.57,5.19-5.63,7.57-.59.68-1.15,1.39-1.73,2.07-.65.76-1.88,1.64-1,2.58,1.04,1.1,2.15-.14,2.92-.85,2.36-2.2,4.64-4.49,6.88-6.82,1.01-1.05,1.5-2.4,1.49-3.89ZM293.15,290.52c2.27-.73,4.54-2.88,7.62-2.82.52.01.96-.85.66-1.56-.34-.8-1.08-1.15-1.88-1.1-2.84.17-5.49,1.09-8.04,2.26-.78.36-1.45,1.19-1.15,2.22.34,1.18,1.41.84,2.79,1ZM441.81,167.41c-.23-1.11-.97-1.64-1.93-1.08-2.79,1.63-5.76,2.71-8.84,3.59-.91.26-1.66,1.01-1.29,2.03.48,1.34,1.72,1.11,2.57.56,2.31-1.5,4.95-2.07,7.47-2.98.97-.35,1.83-.94,2.03-2.12ZM193.11,151.87c1.72.05,3.13-.06,2.87-1.95-.24-1.73-1.42-2.78-3.19-2.75-1.46.03-3.05.48-3.03,2.27.03,2.33,2.06,2.21,3.35,2.43ZM342.54,285.76c-1.61.09-3.2.05-4.37,1.27-.16.16-.08.84.12,1.02,1.4,1.26,2.9.36,4.37.09.99-.18,2.43-.19,2.33-1.46-.11-1.43-1.62-.72-2.45-.92Z"/>
    <path class="cls-1" d="M432.22,252.27c2.79-.18,4.18-1.76,4.41-4.46.31-3.54,1.31-6.88,1.08-10.65-.43-6.99-4.78-11.12-9.35-14.92-6.96-5.8-15.31-8.11-24.4-9.21-7.82-.95-15.55-2.48-23.48-2.08-10.97.54-21.82,2.23-32.74,3.31-.76.08-1.69.21-2.21.68-3.7,3.34-6.86.75-9.2-1.49-2.23-2.13-3.99-5.04-5.02-8.17-.77-2.33-.46-4.27,1.52-5.92,1.78-1.48,3.39-3.15,5.12-4.7,5.14-4.59,8.68-9.89,8.25-17.19-.19-3.26-.36-7.02,3.14-8.54,3.85-1.66,8.26-1.94,11.9.62,4.54,3.19,9.08,6.49,14.04,8.78,4.48,2.07,9.13,3.98,13.8,5.74,7,2.63,13.97,3.81,21.24,3.26,4.53-.34,9.05-.52,13.58-.58,4.22-.06,8.03.87,10.58,4.5,3.03,4.33,7.58,5.18,12.27,5.56,9.55.78,19.11,1.52,28.7,1.64,2.7.03,5.41-.1,8.1.68,2.06.59,4.19-.01,5.95-1.15,7.37-4.78,15.09-3.85,22.79-1.34,3.42,1.11,6.33,1.94,9.96.22,4.09-1.94,8.6-1.05,12.86.29,2.56.81,5.06.87,7.56-.26,2.71-1.24,5.49-2.2,8.57-1.74.49.07,1.27.07,1.5-.23,3.06-3.95,7.53-6.76,9.51-11.57.78-1.91-.71-2.74-2.12-2.96-2.03-.31-4.22-.58-6.17-.14-7.07,1.6-14.32,1.24-21.44,2.12-3.38.42-6.69-.35-9.95-1.35-6.4-1.96-13.1-1.37-19.63-2.23-1.3-.17-3.38.54-3.41-1.5-.02-1.78,1.95-1.67,3.34-1.89,4.46-.71,8.49-3.23,13.19-3.08,1.42.04,2.39-.98,2.5-2.49.11-1.51-.75-2.44-2.1-2.9-.85-.28-1.77-.58-2.65-.55-7.73.24-15.52-.1-22.84,3.37-4.31,2.04-9.24.65-13.79,1.77-.92.22-1.71-.62-2.01-1.55-.83-2.55-3.24-3.63-4.89-5.41-2.13-2.3-4.67-1.6-6.73-.22-1.85,1.24-4.26,1.77-5.69,3.14-4.29,4.11-10.61,3.23-15.05,6.73-.63.5-1.72.47-2.61.56-.76.07-1.69.1-2.01-.77-.44-1.21.61-1.69,1.43-1.87,3.06-.67,5.08-2.57,6.29-5.3.91-2.05.42-3.55-2.18-3.74-2.92-.21-5.59.16-8.08,1.99-3.37,2.48-6.76,3.7-10.2-.36-1.51-1.78-4.05-1.52-6.22-.67-2.34.91-4.77.99-7.23,1.24-3.45.35-4.76-1.03-4.45-4.31,0,0,.06-.05.06-.05,1.7.75,2.56.05,2.82-1.65.51-.33,1.02-.67,1.53-1,2.03-.87,2.14-1.63.42-2.98-.1-.13-.21-.24-.34-.34-1.41-1.91-2.54-.91-3.65.35-2.19,1.11-4.56,1.57-6.98,1.85-2.86-4.27,1.71-4.64,3.41-6.51,0,0,.19-.08.19-.08,3-.46,5.1-2.33,7.01-4.49.2-.09.37-.21.53-.37,1.09.33,1.68-.04,1.73-1.21,0,0,.16-.1.16-.1,3.14.16,5.26-1.36,6.68-4.05,0,0,.06-.03.06-.03,1.12.38,2.06.3,2.53-.99,1.12-.51,2.19-1.09,2.94-2.12,3.59-.83,6.82-2.35,9.52-4.91.46-.19.92-.37,1.38-.56.44.25.68.1.77-.38.13-.05.25-.12.36-.21,2.77-1.22,5.8-1.93,8.1-4.09,0,0,.07-.04.07-.04,1.18.29,1.7-.2,1.64-1.38.2-.07.39-.18.55-.31,1.7.24,3.2-.06,4.25-1.57.46-.2.92-.39,1.38-.59,1.07.34,1.64-.07,1.72-1.18.39-.21.78-.41,1.17-.62.98.58,1.6.26,1.96-.76.71-.19,1.42-.38,2.12-.57,2.96.53,4.58-1.61,6.45-3.24.41-.08.83-.16,1.24-.24,1.97.99,3.46-.33,4.91-1.19,4.57-2.71,9.74-4.14,14.65-5.67,6.8-2.12,13.48-4.78,20.55-6.22,3.5-.71,6.9-1.71,10.52-2.1,4.18-.45,8.59-.42,12.38-2.8.53-.05,1.05-.09,1.58-.14,1.59,1.18,3.01,1.1,4.22-.57,12.97-1.03,25.78-1.11,38.61,2.22,5.25,1.36,10.56,2.53,15.52,4.64,9.2,3.91,16.79,18.91,8.62,28.09-1.5,1.69-3.29,1.87-5.11,2.38-6.13,1.72-12.02,3.84-16.34,8.93-2.17,2.56-1.71,4.62.69,6.65,4.1,3.46,7.12,7.3,6.54,13.27-.29,2.94,1.63,4.9,4.98,5.33,4.72.61,8.98.51,11.63-4.27.46-.12.7-.4.62-.89,0,0,.02-.04.02-.04.45-.09.69-.32.57-.81,0,0,.1-.12.1-.12,1.17-.27,2.06-.9,2.54-2.03,0,0,.02-.01.02-.01,4.97-.67,9.67-.2,14.27,2.2,4.45,2.32,6.18,4.81,5.54,9.91-.2,1.56-.51,3.12.21,4.58,2.54,5.19,1.3,10.2-.59,15.21-8.67-1.05-13.71,1.75-15.69,8.69-.29,1.01-.66,1.99-.1,3,2.58,4.6,7.68,6.12,11.41,9.31.16.13.51.07.76.05,2.89-.26,4.35,1.22,4.77,3.93.44,2.84,2.34,3.57,4.95,3.95,6.37.92,10.75-1.72,14.46-6.7,4.23-5.68,8.05-11.75,13.7-16.29,1.06-.85,1.79-2.23,2.37-3.5,1.14-2.49,1.09-4.81-1.73-6.28,1.17-3.84,4.44-2.48,6.96-2.66,2.21-.16,4.76-.47,5.87,2.36.13.33-.02.76-.03,1.15,0,0-.08.06-.08.06-3.62.55-5.07,2.75-4.61,6.26.46,3.55-.79,6.38-3.59,8.43-3.56,2.6-3.74,5.96-3.07,9.94,1.11,6.56,3.47,12.97,2.6,19.79-1.02,0-2.04,0-3.06,0-.79-.42-1.6-.43-2.43-.14-.52-.01-1.04-.03-1.57-.04-4.17-.42-8.33-.35-12.48.32-.48.02-.96.04-1.44.06-.9-.48-1.67-.23-2.36.43-.47.17-.93.34-1.4.51-.83-.17-1.4.18-1.76.92-3.65,1.11-6.56,3.36-9.46,5.76-3,2.48-7.4,2.02-10.08-.78-2.86-3-5.61-6.04-9.93-6.99-1.76-.39-2.21-1.93-2.6-3.52-.35-1.45-.39-3.19-2.27-3.75-2.03-1.13-4.08-1.03-6.15-.11-.46.14-.93.27-1.39.41-.47-.13-.76.06-.92.5,0,0,0,0,0,0-.45-.07-.78.07-.89.55-.4.31-.8.61-1.2.92-2.46-.7-4.55-.27-6.22,1.83-1.13,1.42-2.73,1.78-4.48,1.9-1.82.12-3.66.59-5.08,1.68-2.33,1.78-4.91,1.9-7.66,2.05-5.86.31-11.85-.1-17.38,2.51-19.74,3.42-39.39,7.48-59.23,10.09-18.03,2.37-36.02,5.64-54.33,5.42-2.38-.03-4.61-.48-6.83-1.17-.78-.24-1.45-.68-.69-1.65Z"/>
    <path class="cls-2" d="M163.22,408.85c9.38,1.62,18.67,3.82,28.32,3.6,6.69-.15,10.2,2.37,12,7.17,1.18,3.16.28,5.52-1.96,7.69-2.22,2.15-4.97,2.04-7.21.78-4.35-2.46-8.09-2.93-12.62-.02-2.75,1.76-6.42,1.14-9.67-.52-6.11-3.12-12.36-3.23-18.48.02-2.24,1.19-4.5,1.88-7.04,1.82-13.08-.3-26.17-.49-39.24-.88-4.44-.13-8.38-2-11.23-5.42-3.4-4.09-7.28-5.89-12.77-5.51-7.62.53-15.29.25-22.94.22-3.66-.01-6.93-1.24-10.36-2.65-4.12-1.69-8.47-2.86-12.43-5.04-3.34-1.84-7.1-3.19-9.91-5.62-2.8-2.42-3.78-2.24-4.51,1.18-.02-.77-.14-1.56-.04-2.32.19-1.36-.72-3.38.59-3.96,1.5-.66,3.21.59,4.56,1.55,7.76,5.52,16.13,9.24,25.44,11.83,7.99,2.22,15.57,3.11,23.58,1.74,1.88-.32,3.56-.64,3.79-3.05.14-1.51,1.5-1.56,2.66-1.7,2.3-.27,4.6-.66,6.91-.79,2.85-.16,5.13-.66,3.72-4.48,1.87.13.77,2.29,2.94,2.33-.32-3.28-.64-6.54-.96-9.8,1.54-.67,3.02-1.52,4.62-1.95,1.35-.36,2.97-.43,3.78,1.14.79,1.53-.24,2.71-1.13,3.83-.94,1.19-2.46,1.37-3.71,2.03-.8.42-1.73.75-1.35,1.98.3.99.94,1.48,2,1.48,1.93,0,3.86.04,5.79.06.77,5.41,5.03,8.82,8.92,10.87,5.38,2.84,11.96,2.57,18.13,1.54,1.87-.31,3.39-2.36,2.29-3.69-1.94-2.36-1.1-6.4-5.21-7.59-1.65-.48-4.19-3.07-.56-5.15,1.88-1.08,1.54-2.65,1.26-4.28,3.5.29,3.12,2.14,1.71,4.34-.52.82-1.83,1.46-1,2.6.67.92,1.97.7,2.91.49,4.24-.93,8.41-2.23,12.68-2.97,8.68-1.52,16.96-5.26,26.01-4.77,1.9.1,4.31-.24,4.6,2.37.26,2.31-1.67,3.26-3.67,3.78-3,.77-5.98,1.61-9,2.25-2.03.43-3.06,1.29-2.28,3.46-2.26-2.01-2.69-4.36-.97-7.05-3.53-1.04-6.29,1.53-9.38,1.22-4.82-.48-8.3,2.53-12.16,4.52-1.22.63-2.17,2.12-1.35,3.27,1.85,2.59,3.52,5.26,5.05,8.05.56,1.02,1.8.64,2.85.63,1.82,0,3.97.16,4.71,2,1.16,2.85,3.05,2.41,5.07,1.64,3.05-1.15,5.97-.68,9.12-.25,4.78.65,9.35,3.41,14.4,1.78,4.31-1.4,8.68-1.14,13.07-.5,1.4.21,2.82.35,4.24.45,1.61.12,2.83-.62,3.36-2.11.59-1.66,0-3.29-1.43-4.07-2.1-1.17-3.95-2.86-6.63-2.99-7.36-.35-14.71-.97-22.07-1.34-3.73-.19-6.96-.87-7.84-5.22Z"/>
    <path class="cls-2" d="M532.35,98.58c-3.79,2.38-8.2,2.34-12.38,2.8-3.62.39-7.02,1.39-10.52,2.1-7.07,1.44-13.74,4.1-20.55,6.22-4.91,1.53-10.08,2.97-14.65,5.67-1.46.86-2.94,2.18-4.91,1.19,5.19-4.85,11.85-6.66,18.31-8.89.96-.33,2.08-.25,3.01-.65,9.41-4.04,18.97-7.41,29.4-7.38,1.19,0,2.43-.21,2.76-1.63.33-1.42-.73-2.25-1.74-2.73-8.87-4.23-16.13-11-24.58-15.77-5.7-3.22-11.49-6.45-17.41-9.38-7.11-3.52-14.35-6.82-21.63-9.82-4.51-1.86-9.19-3.73-13.92-5.29-6.74-2.23-13.81-3.29-20.34-6.23-4.39-1.98-9.32-1.67-13.96-2.67-15.61-3.38-31.45-4.69-47.37-5.89-13.09-.99-25.67,1.55-38.46,2.69-4.37.39-8.73-.04-13.14.45-4.6.51-8.4,2.94-12.89,3.68-8.31,1.37-16.57,3.31-24.49,6.33-2.13.81-2.08-.59-2.19-1.94,1.07-.56,2.14-1.13,3.21-1.69,3.77.26,7.21-.56,10.12-3.12,1.75-.5,3.5-1,5.25-1.5,5.13.24,9.59-2,14.16-3.8,3.55.06,7-.33,10.06-2.38,2.49.7,5.05,2.06,7.09-.88,2,0,4,.02,6,.03,3-.03,6.11.58,8.76-1.49,1.76-.35,3.66.37,5.31-.73,2.92-.21,5.97.85,8.74-.9,2.68.71,5.36.53,8.04-.04,3.03.99,3.87-.35,3.81-3.23-.07-3.58-.67-7.19.11-10.76.93,2.89.34,5.88.48,8.82.25,5.28.14,5.28,5.32,5.24,1.74.32,3.48.44,5.19-.18,1.91.63,3.83,1.26,5.89,1.09.38,1.95,1.97,1.33,3.13,1.37,5.41.22,10.9,1.53,16.04,1.59,7.28.09,13.74,2.98,20.81,3.54,6.61.52,13.02,3.7,19.5,5.73.6.19,1.15.76,1.74.77,6.04.14,11.03,3.73,16.65,5.31,3.79,1.06,7.58,3.43,11.41,5.17,4.86,2.2,9.5,4.84,14.46,6.91,5.27,2.21,10.33,5.14,15.04,8.4,5.17,3.58,10.91,6.11,16.07,9.68,3.94,2.73,7.92,5.3,10.71,9.3,1.62,2.32,3.35,4.23,6.6,3.6.84-.16,1.89-.06,1.96,1.26Z"/>
    <path class="cls-2" d="M626.58,193.1c1.9-5,3.13-10.02.59-15.21-.72-1.46-.4-3.02-.21-4.58.64-5.1-1.09-7.59-5.54-9.91-4.6-2.4-9.3-2.87-14.27-2.2,2.92-3.05,10.34-3.85,14.35-1.72,5.62,2.99,9.15,7.06,7.95,13.92-.33,1.88.11,3.55,1.61,4.94.85.79,1.54,1.93,1.17,3.14-1.17,3.72.89,4.21,3.84,4.17,6.23-.07,12.45-.09,18.68.02,3.1.06,5.83-1.1,8.61-2.14,3.8-1.43,7.45-2.06,10.9.95,1.33,1.15,3.1,1.16,4.82,1.14,19.95-.27,39.91-.46,59.86-.8,9.39-.16,18.76-.2,27.95-2.95,4.04-1.21,7.51-2.47,9.78-6.23,1.06-1.75,2.45-3.26,4.9-3.36,4.19-.17,5.57,1.2,5.47,5.41-.13,5.7-.04,11.41-.16,17.12-.03,1.29.77,2.93-1.03,3.78-.97-6.29-.45-12.61-.32-18.92.04-1.8-.17-3.43-2.09-4.14-1.77-.65-3.32.04-4.61,1.23-.65.6-1.14,1.4-1.58,2.18-1.62,2.95-4.12,4.21-7.42,4.86-4.64.91-8.98,3.14-13.83,3.33-.41.02-.78.91-1.16,1.39-4.72.99-9.52.51-14.26.53-19.69.08-39.38-.06-59.07-.2-2.53-.02-4.81.91-7.22,1.26.02-.39.16-.82.03-1.15-1.11-2.83-3.65-2.52-5.87-2.36-2.52.18-5.79-1.19-6.96,2.66-1.54.03-2.8-.99-4.42-.98-7.07.06-14.14-.04-21.21-.17-1.85-.03-3.02.58-4.17,2.12-1.18,1.58-2.59,3.39-5.11,2.88Z"/>
    <path class="cls-1" d="M217.77,77.89c.14,7-5.49,13.11-12.45,13.72-1.83.16-2.23-.76-2.46-2.15.23-1-.33-2.27,1.59-2.49,1.61-.18,3.23-.96,4.67-1.77,3.58-2,3.99-3.61,2.13-8.07-1.21,2.63-2.76,4.75-5.27,5.84-2.42,1.05-4.83,1.56-7.48.39-3.82-1.69-6.34-5.48-5.97-9.53.37-4.14,3.75-7.76,7.91-8.45,1.33-.22,2.38.13,2.78-2.2.45-2.58,3.8-2.53,5.33-.08,3.07,4.93,6.9,9.39,9.21,14.79ZM201.55,78.61c4.03.11,6.36-1.99,6.33-4.87-.03-2.72-1.36-4.44-4.16-4.68-2.78-.24-5.6,2.12-5.61,4.79,0,2.86,1.46,4.58,3.43,4.76Z"/>
    <path class="cls-1" d="M127.08,164.85c-.99,7.11-6.59,6.04-10.83,7.19-1.37.37-3.63-.43-3.85,1.43-.23,1.95.54,3.91,2.82,5.07,1.16.59,4.15.57,2.66,3.57-1.17,2.37-2.14,3.59-5.05,1.69-5.3-3.45-10.87-6.52-16.47-9.47-2.24-1.18-1.75-2.26-.83-3.89.91-1.63,1.62-2.75,3.72-1.27,2.17,1.53,4.61,2.66,7.73,4.42-1.21-4.29-1.8-7.89-3.24-11.11-1.59-3.57-.57-6.15,2.15-9.16,1.31,4.11,2.65,7.9,3.69,11.77.53,1.98,1.25,2.24,3.24,1.86,4.68-.91,9.44-1.4,14.28-2.08Z"/>
    <path class="cls-1" d="M273.92,49.76c-1.07.56-2.14,1.13-3.21,1.69-2.4.95-4.22,2.75-7.02,3.37-4.44.98-7.98.31-10.75-3.02-2.74-3.3-3.53-7.33-1.51-11.24,2.11-4.08,5.79-5.68,10.39-4.99.07.01.18-.17.36-.36.12-1.8-.88-3.44-1.65-4.93-1.28-2.49-.43-3.15,1.84-4.01,1.97-.74,2.54-.53,3.25,1.47,2.64,7.39,5.52,14.69,8.31,22.03ZM266.03,45.37c0-3.09-2.33-5.76-5.12-5.66-3.03.11-4.79,1.76-4.93,4.82-.13,3.01,2.38,5.76,5.1,5.8,2.58.03,4.94-2.33,4.95-4.95Z"/>
    <path class="cls-2" d="M427.41,291.5c-1.34.75-2.04,2.03-2.45,3.38-.69,2.29-1.64,4.33-4.44,3.82-2.81-.51-4.01-2.66-4.08-5.38-.09-3.49-.31-7-.02-10.47.4-4.76-1.67-8.14-5-11.19-2.31-2.11-5.49-3.95-4.17-7.97,1.38-4.23,4.36-6.59,8.76-7.16.89-.12,1.78-.22,2.67-.33-.65,1.53-1.77,2.57-3.38,2.9-1.93.39-3.14,1.73-4.36,3.05-2.33,2.52-2.08,4.26.82,6.32.84.6,1.7,1.17,2.55,1.75.67.46,1.13,1.82,2.15.96.95-.81-.03-1.58-.54-2.29-.45-.62-1.09-1.23-1.21-1.92-.21-1.22-.66-2.72.58-3.59,1.21-.85,2.18.28,3.05.97,4.32,3.41,7.41,7.28,6.66,13.42-.57,4.7-.69,9.57,2.39,13.75ZM419.25,292.82c.33.97-.39,2.67,1.25,2.7,1.3.02,2.3-1.03,2.13-2.6-.15-1.39-.3-3.16-2.03-3.13-1.82.03-1.1,1.9-1.36,3.03Z"/>
    <path class="cls-1" d="M162.3,125.63c.46,1.38,3.62,1.75,1.38,4.19-1.5,1.63-2.77,2.91-4.84.96-4.17-5.28-9.42-9.48-14.09-14.25-2.28-2.33-1.92-5.12,1.18-5.68,1.41-.25,1.54-.48,1.97-1.57,1.77-4.55,5.84-6.99,10.32-6.39,4.2.56,8.4,4.82,8.93,9.04.51,4.08-2.1,8.06-6.5,9.9-.43.18-.85.38-1.72.78,1.3,1.16,2.34,2.1,3.38,3.03ZM151.43,112.31c.1,3.86,2.59,6.26,5.5,6.23,2.68-.03,4.83-2.31,4.72-5.02-.11-2.81-2.78-5.41-5.6-5.26-3.07.16-4.6,1.91-4.62,4.05Z"/>
    <path class="cls-1" d="M66.55,295.59c-2.21-4.77-1.7-8.69,1.55-11.98,3.07-3.11,6.95-3.17,10.83-1.92,4.36,1.4,6.42,5.81,6.1,10.49-.19,2.76-.5,5.43-1.04,8.14-.36,1.8-.94,2.35-2.78,2.17-7.19-.72-14.4-1.38-21.61-1.85-2.05-.13-2.32-.95-2.08-2.64.21-1.5-.16-3.27,2.37-2.94,2.02.26,4.05.34,6.67.54ZM75.3,296.47c2.95-.04,5.3-2.4,5.14-5.14-.15-2.64-2.73-4.83-5.62-4.78-2.93.05-5.18,2.35-5.06,5.19.11,2.72,2.52,4.78,5.54,4.73Z"/>
    <path class="cls-1" d="M69.65,269.32c-1.77-5.5-.73-9.59,2.88-12.12,3.51-2.46,8.85-2.25,12.35.47,3.21,2.5,4.45,6.93,2.92,10.86-.76,1.95-2.36,3.4-1.27,6.07.68,1.68-.2,3.64-3.46,2.9-6.67-1.52-13.5-2.32-20.26-3.45-1.64-.28-3.18-.39-2.52-3.06.52-2.1.69-3.33,3.29-2.54,1.81.55,3.79.56,6.07.86ZM78.22,261.19c-2.86-.07-5.06,1.87-5.23,4.6-.17,2.87,2.28,5.21,5.49,5.23,2.98.02,5.27-2.16,5.25-4.99-.02-2.64-2.43-4.76-5.51-4.83Z"/>
    <path class="cls-1" d="M754.82,188.52c.39-.48.76-1.38,1.16-1.39,4.85-.18,9.19-2.41,13.83-3.33,3.3-.65,5.8-1.91,7.42-4.86.43-.78.93-1.59,1.58-2.18,1.29-1.19,2.84-1.88,4.61-1.23,1.92.71,2.13,2.34,2.09,4.14-.13,6.31-.66,12.63.32,18.92-3.85,2.66-7.08,1.94-8.47-2.15-.86-2.53-2.5-3.4-4.9-4.26-5.75-2.06-11.51-3.65-17.65-3.66Z"/>
    <path class="cls-1" d="M253.48,57.44c-3.09,1.7-5.62,3.9-8.34.2-.96-1.3-2.23-.95-3.49-.29-1.71.9-3.4,1.91-5.21,2.54-2.5.86-3.56,2.3-2.95,4.94.79,3.42-2.25,3.52-4.12,4.48-.99.51-1.22-.47-1.25-1.32-.25-8.03-.62-16.06-.69-24.1-.02-2.68,4.55-4.25,6.77-2.43,6.31,5.17,12.56,10.41,19.28,15.98ZM232.53,46.56c0,1.41-.01,2.05,0,2.69q.21,7.95,7.42,3.83c-2.34-2.06-4.61-4.05-7.43-6.52Z"/>
    <path class="cls-1" d="M83.11,348.82c-4.34-.09-4.45-.25-3.46-4.14.64-2.53.9-5.1.12-7.65-.35-1.15-.97-2.19-2.38-2.17-1.41.02-1.99.99-2.24,2.24-.47,2.41-.9,4.82-1.44,7.21-.72,3.19-2.57,5.49-5.92,5.8-3.02.28-5.55-1.03-7.08-3.8-2.34-4.24-2.07-8.71-.96-13.19.54-2.17,2.09-1.17,3.45-.92,1.72.3,1.65,1.2,1.15,2.48-.92,2.36-1.04,4.79-.35,7.22.37,1.3,1.1,2.45,2.66,2.39,1.55-.06,2.15-1.24,2.43-2.59.46-2.27.73-4.59,1.38-6.8,1.92-6.55,6.64-7.78,11.91-3.21.71,1.33,1.43,2.66,2.14,3.98.58,3.85.3,7.71-.01,11.56-.77.26-1.3.72-1.37,1.58Z"/>
    <path class="cls-1" d="M455.01,35.21c-2.03.09-3.41,1.14-4.1,3-.93,2.54-1.97,5.07-2.57,7.69-.7,3.06-2.39,1.24-3.82,1.09-2.04-.22-2.11-1.27-1.55-2.95,2.3-6.83,4.55-13.68,6.72-20.56.57-1.8,1.14-2.56,3.21-1.75,1.89.74,3.33,1.3,2.23,3.68-.27.58-.48,1.19-.72,1.79-.91,2.36-1.73,4.09,2.43,3.89,6.14-.29,9.36,4.35,7.75,10.33-.7,2.61-1.43,5.24-2.47,7.72-.53,1.26-.13,3.72-3.38,2.59-2.91-1.01-2.77-2.22-1.96-4.4.85-2.29,1.68-4.6,2.29-6.96.76-2.93-1.1-5.18-4.06-5.17Z"/>
    <path class="cls-1" d="M535.28,70.62c2.17.61,4.1.88,5.74,2.02,3.83,2.65,4.86,6.51,2.43,10.48-1.82,2.98-4.05,5.71-5.95,8.65-1.51,2.32-2.51.44-3.73-.23-1.5-.83-2.07-1.65-.75-3.26,1.72-2.1,3.18-4.41,4.76-6.62,1.39-1.95,1.59-3.91-.37-5.52-2.09-1.72-4.4-1.71-6.21.38-1.78,2.05-3.42,4.25-4.82,6.57-1.3,2.16-2.31,1.54-3.92.39-1.51-1.07-2.22-1.7-.85-3.53,4.35-5.8,8.62-11.67,12.68-17.68,1.51-2.23,2.48-1.22,3.98-.25,1.58,1.02,2.22,1.81.71,3.48-1.36,1.51-2.41,3.31-3.69,5.12Z"/>
    <path class="cls-1" d="M86.88,205.36c-.11-2.72.09-4.97,1.21-7.07,1.81-3.39,5.09-4.97,8.71-3.75,3.41,1.15,6.69,2.7,10.09,3.9,2.12.74,1.53,2.03.93,3.33-.63,1.37-1.09,2.97-3.31,1.86-2.42-1.2-4.98-2.12-7.49-3.15-2.41-1-4.32-.51-5.43,1.98-1.08,2.41-.31,4.41,1.91,5.57,2.5,1.31,5.12,2.48,7.8,3.35,2.42.78,1.56,2.16,1.04,3.55-.56,1.52-1.07,2.72-3.31,1.73-6.83-3.04-13.74-5.91-20.7-8.63-2.52-.98-.89-2.22-.52-3.3.39-1.17.4-3.1,2.71-1.95,1.94.96,4.01,1.65,6.35,2.59Z"/>
    <path class="cls-1" d="M443.39,24.46c-2.4,1.85-4.21,2.75-6.76-.12-2.51-2.82-7.08-2.43-9.94-.09-2.9,2.37-3.8,6.88-2.03,10.19,1.77,3.31,5.38,4.72,9.24,3.87,1.27-.28,2.58-1.99,4.05.08,1.5,2.11,1.81,3.34-1.12,4.38-6.92,2.46-15.15-.81-17.98-7.37-2.63-6.09.11-13.55,6.08-16.57,6.24-3.15,14.42-.74,18.47,5.62Z"/>
    <path class="cls-1" d="M178.72,89.34c.41,3.03,3.41,5.23,5.53,7.88,1.48,1.84,1.55,2.74-.39,4.15-1.63,1.19-2.57,1.54-3.95-.37-2.58-3.56-5.46-6.91-8.2-10.35-2.01-2.52-1.15-5.4,2.05-5.46,1.71-.03,1.69-.66,2.22-1.61,3.45-6.17,9.69-6.77,14.22-1.38,1.75,2.08,3.28,4.36,5.14,6.33,1.52,1.6,1.48,2.57-.32,3.87-1.58,1.15-2.64,2.16-4.13-.23-1.43-2.29-3.33-4.29-5.11-6.35-1.05-1.22-2.32-2.16-4.08-1.38-1.78.79-2.97,2.04-2.97,4.89Z"/>
    <path class="cls-1" d="M82.36,323.92c-1.69,1.84-3.65,2.88-6.19,1.9-2.64-1.02-3.51-3.3-3.83-5.82-.2-1.53-.05-3.1-.11-4.65-.03-.7.25-1.68-.88-1.78-.8-.07-1.51.33-1.95,1.03-1.38,2.18-1.22,4.5-.19,6.66.86,1.81.12,2.56-1.37,3.22-2.05.91-2.35-.54-2.86-1.94-2.4-6.62-.49-12.91,4.63-14.41,4.64-1.37,9.47,0,14.19-.56,1.09-.13.74.8.75,1.29.02,1.81-.06,3.62-.1,5.43-.46-1.36-1.22-1.87-2.67-.81,1.41,1.71,2.26,3.63,2.3,5.85-.01.47-.03.93-.04,1.4-.56,1.07-1.12,2.14-1.69,3.2ZM75.48,316.36c.1,1.83-.17,4.02,2.37,4.18,1.89.12,2.14-1.58,2.15-3.06,0-2.14-.67-4.05-3.14-4.08-2.13-.03-1.04,1.91-1.37,2.95Z"/>
    <path class="cls-1" d="M124.24,155.72c4.94.56,6.97-1.98,7.5-5.61.34-2.37,1.65-2.33,3.19-2.22,2.14.15,1.37,1.82,1.26,2.96-.6,5.95-6.52,10.93-12.06,10.2-5.56-.73-9.29-5.76-8.46-11.44,1.04-7.16,9.07-11.09,14.98-7.4,1.48.92,1.92,1.69.74,3.27-2.39,3.19-4.57,6.53-7.14,10.24ZM120.08,150.32c.23,1.14-.02,2.47,1.46,2.88.37.1,5.06-6.24,4.99-6.73-.17-1.15-1.13-.88-1.8-.84-2.98.14-4.25,2.02-4.64,4.69Z"/>
    <path class="cls-1" d="M468.25,49.82c.52-4.04,2.93-8.23,4.92-12.51.82-1.77,2.39.19,3.61.49,1.42.35,1.82,1.09,1.13,2.53-1.22,2.56-2.26,5.21-3.4,7.8-.99,2.24-.62,4.14,1.63,5.26,2.28,1.13,4.42.66,5.67-1.62,1.3-2.37,2.47-4.85,3.34-7.4.72-2.11,1.61-2.46,3.63-1.63,2.16.89,2.58,1.82,1.51,4-1.88,3.82-3.37,7.82-5.05,11.74-1.36,3.18-3.65,3.86-5.49,1.15-.99-1.46-1.68-1.28-2.86-1.32-4.83-.14-8.57-3.5-8.64-8.49Z"/>
    <path class="cls-1" d="M313.51,38.97c-3.06,2.05-6.5,2.44-10.06,2.38-5.58-1.39-8.17-4.69-8.01-10.21.13-4.73,3.3-8.16,8.45-9.15,4.72-.91,8.88,1.28,10.84,5.54,1.17,2.53,1.08,4.02-2.2,4.47-3.56.49-7.07,1.41-10.69,2.17,2.02,3.23,5.39,3.97,8.39,1.39,1.96-1.68,2.98-.67,4.19.38,1.75,1.52-.43,2.07-.9,3.04ZM302.21,30.72c1.62-.36,3.26-.65,4.86-1.1.84-.24,2.41.51,2.35-1.09-.03-.96-1.04-1.65-2.06-2.07-2.5-1.03-5.5.18-6.33,2.58-.4,1.15-.59,2.08,1.17,1.68Z"/>
    <path class="cls-1" d="M77.27,246.82c.46,1.68.81,3-1.73,3.24-2.79.26-2.56-1.53-2.63-3.15-.15-3.16.48-6.17,2.17-8.89,1.49-2.4,3.77-3.85,6.49-3.42,3.94.63,7.89,1.54,11.63,2.89,2.92,1.05.78,3.82.03,4.58-1.15,1.18-.94,2.05-.81,3.24.24,2.13-.2,4.13-1.38,5.93-1.57,2.41-3.72,3.61-6.61,2.72-2.76-.84-3.9-2.92-3.67-5.67.16-1.92.62-3.82.98-5.72.15-.8,1.06-1.74-.3-2.25-.93-.35-1.81.12-2.47.78-1.61,1.61-1.6,3.72-1.72,5.72ZM84.41,245.51c-.21,1.51-.12,2.83,1.59,3.06,2.31.31,2.85-1.53,3.05-3.16.21-1.73-.43-3.81-2.33-3.84-2.47-.05-1.59,2.64-2.3,3.95Z"/>
    <path class="cls-1" d="M138.32,136.68c4.28.72,6.89-.54,7.6-4.28.53-2.75,2.23-2.8,3.82-2.36,2.24.62.92,2.5.54,3.77-1.34,4.56-5.73,8.19-10.05,8.48-4.16.28-8.03-2.21-9.77-6.29-1.67-3.9-.21-8.78,3.51-11.77,3.48-2.8,7.92-2.95,11.49-.52,1.57,1.07,2.12,1.93.6,3.62-2.66,2.94-5.08,6.1-7.73,9.34ZM141.72,127.38c-2.98-.98-4.94-.57-6.4,1.56-1.24,1.81-1.35,3.58.38,5.62,1.93-2.3,3.8-4.53,6.02-7.18Z"/>
    <path class="cls-1" d="M326.6,38.12c-2,0-4-.02-6-.03.1-5.05-.65-10.02-1.37-14.99-.5-3.43,1.36-5.32,4.47-3.75,1.54.78,2.03.3,3.04-.26,5.98-3.37,11.47-.73,12.54,6.08.56,3.56.93,7.15,1.39,10.73-1.65,1.1-3.55.38-5.31.73-1.22-3.05-.76-6.35-1.37-9.5-.49-2.55-1.41-4.67-4.28-4.37-2.99.31-4.43,2.37-4.13,5.44.32,3.31.68,6.62,1.03,9.92Z"/>
    <path class="cls-1" d="M378.24,35.94c-2.06.16-3.97-.46-5.89-1.09-1.57-.74-1.82-1.58-.92-3.28.92-1.73,1.71-1.34,3.03-.78,1.9.8,3.91,1.34,6.04,1.14.98-.09,1.89-.43,2.06-1.4.21-1.14-.87-1.46-1.71-1.71-1.98-.58-4.01-.98-5.97-1.61-2.02-.66-3.23-2.1-3.35-4.3-.12-2.27.74-4.08,2.75-5.18,4.09-2.23,8.2-1.59,12.33.01,1.25.49,1.26,1.32.67,2.09-.66.85-.73,2.84-2.72,1.76-1.65-.9-3.49-.93-5.3-.84-.96.05-2.27.06-2.26,1.51,0,1.08,1,1.42,1.89,1.65,1.62.42,3.27.74,4.89,1.18,2.63.73,4.41,2.34,4.26,5.22-.17,3.14-2.24,4.84-5.15,5.42-1.5.3-3.1.14-4.65.19Z"/>
    <path class="cls-1" d="M513.7,57.4c4.31-.02,8.85,2.72,10.34,6.36.51,1.26,1.41,3.08-.2,3.71-1.4.55-3.56.95-4.38-1.63-.74-2.32-2.53-3.57-5.03-3.47-2.36.1-3.77,1.54-4.54,3.64-1.33,3.63,1.03,6.94,4.9,6.81,1.09-.04,2.02-.73,2.99.68,1.81,2.62,1.65,3.59-1.43,4.07-4.25.65-7.57-1.26-10.16-4.43-2.54-3.09-2.73-6.66-1.1-10.2,1.66-3.6,4.59-5.49,8.62-5.54Z"/>
    <path class="cls-1" d="M289.29,45.15c-1.75.5-3.5,1-5.25,1.5-4.22-5.22-8.44-10.43-12.75-15.77,3.31-1.99,5.87-2.03,8.05,1.51,1.54,2.49,3.59,4.67,5.88,7.57.5-3.78,1.1-6.87,1.26-9.99.18-3.41,1.52-5.22,5.49-4.89-.55,6.73-1.29,13.44-2.68,20.07Z"/>
    <path class="cls-1" d="M357.44,34.96c-2.68.57-5.36.75-8.04.04-3.42-2.32-3.1-5.88-3.36-9.39-.12-1.59,1.49-4.61-2.36-4.45-.21,0-.62-.53-.63-.82-.04-1.01.05-2.02.09-3.03,3.74.21,1.71-7.89,6.38-4.95,2.21,1.39,3.75,4.23,6.54,5.58.64.31.67,3.25-1.89,2.98-2.56-.27-2.68,1.15-2.52,3.05.13,1.54.03,3.11.17,4.65.15,1.63,1.02,2.74,2.79,2.49,3.51-.52,3.38,1.49,2.82,3.87Z"/>
    <path class="cls-1" d="M99.49,222.68c.06,5.18-3.94,8.44-8.89,7.18-1.74-.44-3.41-1.2-5.16-1.59-1.2-.27-2.88-1.89-3.42,1-.2,1.04-1.6.51-2.4.27-.93-.28-2.13-.61-1.48-2.1.62-1.43-.31-1.88-1.4-2.06-2.36-.37-2.29-1.51-1.72-3.54.63-2.26,1.56-2.78,3.53-1.79,1.72.86,2.27-.07,2.53-1.57.3-1.72,1.08-2.26,2.96-1.75,2.23.61,1.69,1.98,1.15,3.18-.87,1.94-.07,2.49,1.67,2.84,1.25.25,2.42.85,3.64,1.26,2.31.78,4.35,1.06,4.87-2.22.32-2.02,2.07-1.14,3.15-1.17,1.32-.03.83,1.27.97,2.06Z"/>
    <path class="cls-1" d="M399.66,38.15c-4.65-.36-6.96-2.92-6.77-7.63.07-1.81.32-3.61.52-5.41.13-1.25.7-2.65-1.37-2.89-.64-.07-1.36-.42-1.26-1.2.14-.99.7-2.82.76-2.81,3.86.85,3.13-8.01,7.32-4.03,1.85,1.75,2.95,4.7,5.44,6.48.55.4-.15,3.4-2.78,2.63-2-.58-2.41.44-2.46,2.2-.05,1.8-.48,3.59-.61,5.39-.1,1.47.57,2.83,2.15,2.57,2.48-.41,3.1,1.13,2.91,2.77-.25,2.06-2.18,2.01-3.85,1.93Z"/>
    <path class="cls-2" d="M665.53,234.58c.87-6.82-1.49-13.23-2.6-19.79-.68-3.98-.49-7.34,3.07-9.94,2.8-2.05,4.06-4.88,3.59-8.43-.46-3.51.99-5.7,4.61-6.26-2.34,5.31-2.3,11.41-6.42,16.24-2.5,2.92-1.16,7.33-.63,10.95.75,5.16,0,10.34.81,15.47.27,1.69-.87,2.18-2.42,1.75Z"/>
    <path class="cls-1" d="M498.09,47.05c.67.35,1.59.53,2.01,1.09,1.64,2.23,3.92,2.91,6.5,3.13.71.06,1.81.35,1.19,1.38-.73,1.2-.75,3.88-2.65,3.18-5.28-1.93-6.99,1.34-8.64,5.12-.41.94-1.08,1.78-1.43,2.74-.76,2.03-1.63,2.83-3.93,1.58-2.07-1.12-2.37-1.99-1.21-4.03,2.3-4.03,4.3-8.23,6.46-12.33.38-.73.51-1.78,1.7-1.87Z"/>
    <path class="cls-1" d="M177.96,106.3c-1.17,1.06-2.25,2.13-3.44,3.07-1.22.97-1.53-.48-2.01-1-3.34-3.57-6.52-7.31-9.94-10.8-1.88-1.92-.53-2.76.69-4,1.32-1.34,2.19-1.51,3.53.1,3.06,3.65,6.35,7.12,9.54,10.67.51.57.98,1.18,1.63,1.97Z"/>
    <path class="cls-1" d="M367.16,35.02c-5.18.04-5.07.04-5.32-5.24-.14-2.94.44-5.93-.48-8.82.55-1.61-1.74-4.28,1.83-4.78,2.39-.33,3.87.17,3.84,3.05-.06,5.26.08,10.53.14,15.79Z"/>
    <path class="cls-2" d="M553.31,239.58c5.53-2.62,11.52-2.2,17.38-2.51,2.75-.15,5.33-.27,7.66-2.05,1.42-1.09,3.26-1.56,5.08-1.68,1.74-.11,3.35-.48,4.48-1.9,1.66-2.09,3.76-2.53,6.22-1.83-5.61,5.55-12.61,8.39-20.21,9.25-6.81.77-13.73.51-20.6.71Z"/>
    <path class="cls-1" d="M367.47,10.47c-.24,2.03-1.58,2.94-3.64,2.86-2.11-.08-3.48-1.31-3.33-3.36.14-1.84,1.75-2.91,3.51-2.89,1.91.02,3.42.97,3.46,3.4Z"/>
    <path class="cls-1" d="M159.17,92.8c-2.06-.01-3.19-1.05-3.25-2.8-.07-2.28,1.38-3.61,3.56-3.81,1.82-.17,2.97.98,3.03,2.76.07,2.29-1.37,3.46-3.33,3.85Z"/>
    <path class="cls-2" d="M188.2,103.8c-.3,1.46-1.27,2.71-2.32,3.76-1.18,1.17-3.09,2.27-4.36.75-1.17-1.41.79-2.36,1.76-3.27.93-.87,1.88-1.75,2.95-2.43,1.1-.7,1.97-.47,1.97,1.2Z"/>
    <path class="cls-2" d="M82.36,323.92c.56-1.07,1.12-2.14,1.69-3.2,1.1,4.96.37,9.97.44,14.96-.71-1.33-1.43-2.66-2.14-3.98,1.3-2.59,1.32-5.18.01-7.77Z"/>
    <path class="cls-2" d="M436.19,132.31c-2.7,2.56-5.93,4.08-9.52,4.91.91-2.86,5.94-5.45,9.52-4.91Z"/>
    <path class="cls-2" d="M468.1,116.81c-1.87,1.63-3.49,3.77-6.45,3.24,1.32-2.74,3.12-4.51,6.45-3.24Z"/>
    <path class="cls-2" d="M446.8,127.08c-2.3,2.16-5.33,2.87-8.1,4.09-.52-.55-.63-1.32-.03-1.65,2.53-1.37,5-3.03,8.13-2.45Z"/>
    <path class="cls-2" d="M412.04,146.09c-1.91,2.17-4.01,4.03-7.01,4.49,1.08-3.46,3.47-4.87,7.01-4.49Z"/>
    <path class="cls-2" d="M83.11,348.82c.08-.86.6-1.32,1.37-1.58,2.09,2.76.73,5.81.95,9.2-1.95-2.55.42-5.83-2.33-7.62Z"/>
    <path class="cls-2" d="M421.14,140.37c-1.42,2.69-3.54,4.22-6.68,4.05,1.71-2.21,3.39-4.45,6.68-4.05Z"/>
    <path class="cls-2" d="M645.99,234.7c4.15-.67,8.31-.73,12.48-.32-4.14.73-8.3.9-12.48.32Z"/>
    <path class="cls-2" d="M84.09,319.32c-.04-2.21-.88-4.14-2.3-5.85,1.45-1.06,2.21-.55,2.67.81.23,1.71.76,3.43-.37,5.04Z"/>
    <path class="cls-2" d="M538.15,97.86c-1.21,1.67-2.63,1.75-4.22.57,1.16-2.02,2.69-1.29,4.22-.57Z"/>
    <path class="cls-2" d="M453.31,123.77c-1.05,1.52-2.55,1.81-4.25,1.57.71-2.43,2.37-2.32,4.25-1.57Z"/>
    <path class="cls-2" d="M598.53,227.23c2.07-.92,4.12-1.02,6.15.11-2.05-.04-4.1-.07-6.15-.11Z"/>
    <path class="cls-2" d="M422.56,253.7c1.81-1.12,3.67-1.14,5.57-.24-1.86.08-3.72.16-5.57.24Z"/>
    <path class="cls-2" d="M607.14,161.22c-.49,1.13-1.37,1.76-2.54,2.03.18-1.51,1.05-2.17,2.54-2.03Z"/>
    <path class="cls-2" d="M423.72,139.35c-.47,1.29-1.41,1.37-2.53.99.23-1.9,1.12-2.11,2.53-.99Z"/>
    <path class="cls-2" d="M459.53,120.62c-.36,1.02-.98,1.34-1.96.76.15-1.55.87-1.64,1.96-.76Z"/>
    <path class="cls-2" d="M456.4,122c-.08,1.11-.64,1.52-1.72,1.18-.25-1.58.28-2.05,1.72-1.18Z"/>
    <path class="cls-2" d="M448.5,125.65c.06,1.18-.46,1.67-1.64,1.38-.34-1.51.23-1.94,1.64-1.38Z"/>
    <path class="cls-2" d="M642.19,235.19c.69-.66,1.46-.91,2.36-.43-.71.58-1.48.79-2.36.43Z"/>
    <path class="cls-2" d="M414.3,144.52c-.05,1.16-.64,1.54-1.73,1.21-.31-1.67.27-2.07,1.73-1.21Z"/>
    <path class="cls-2" d="M23.16,405.77c.17.9-.16,1.58-.93,2.05-.07-.86.22-1.55.93-2.05Z"/>
    <path class="cls-2" d="M660.03,234.43c.83-.29,1.64-.28,2.43.14-.85.62-1.65.47-2.43-.14Z"/>
    <path class="cls-2" d="M639.03,236.61c.36-.74.92-1.08,1.76-.92-.46.55-.94,1.05-1.76.92Z"/>
    <path class="cls-2" d="M95.22,396.11c.17.17.35.35.52.52-.48.13-.65-.04-.52-.52Z"/>
    <path class="cls-2" d="M595.32,228.7c.11-.48.44-.62.89-.55-.3.18-.6.37-.89.55Z"/>
    <path class="cls-2" d="M604.49,163.37c.12.49-.12.72-.57.81-.08-.46.08-.75.57-.81Z"/>
    <path class="cls-2" d="M603.9,164.22c.08.49-.16.77-.62.89-.06-.48.13-.79.62-.89Z"/>
    <path class="cls-2" d="M596.22,228.14c.16-.43.45-.63.92-.5-.31.17-.61.33-.92.5Z"/>
    <path class="cls-2" d="M22.15,407.94c.1.47-.13.71-.56.81-.06-.44.11-.72.56-.81Z"/>
    <path class="cls-2" d="M438.34,131.38c-.08.48-.33.62-.77.38-.03-.7.22-.85.77-.38Z"/>
    <path class="cls-2" d="M435.83,281.94c.16.42.05.71-.37.89-.23-.44-.03-.71.37-.89Z"/>
    <path class="cls-1" d="M345.13,419.49c1.94-1.56,3.68-1.15,5.32-1.18,20.6-.35,41.2-.75,61.8-.96,7.74-.08,14.94-2.35,22.22-4.47,2.09-.61,2.97-2.4,3.69-4.24,1.12-2.85,3.39-3.61,6-2.82,2.49.75,2.19,2.86,2.06,5.12-.31,5.43-.2,10.88-.18,16.32,0,2.23.44,4.77-2.46,5.37-2.76.57-4.75-.75-5.55-3.6-.65-2.33-2.34-3.2-4.55-4.18-11.17-4.92-22.98-4.18-34.68-4.34-15.56-.21-31.12-.16-46.68-.29-2.17-.02-4.34-.44-7-.73Z"/>
    <path class="cls-1" d="M535.93,305.94c.73-1.1,1.86-.64,2.78-.66,14.9-.32,29.8-.88,44.7-.8,7.48.04,14.22-2.4,21.14-4.41,2.16-.63,2.87-2.44,3.38-4.39.69-2.68,2.58-3.51,5.05-2.88,2.34.6,2.64,2.47,2.43,4.62-.56,5.69-.47,11.39-.04,17.08.18,2.3-.03,4.25-2.67,4.79-2.66.55-4.32-.77-4.76-3.32-.5-2.89-2.38-3.6-4.88-4.65-12.34-5.19-25.3-3.17-38.02-3.75-9.06-.41-18.12-.55-27.19-.83-.68-.02-1.59.3-1.94-.79Z"/>
    <path class="cls-2" d="M449.72,312.12c-1.43,2.85-1.54,5.74,1.45,7.42,3.56,2,6.41,5.11,10.36,6.48,1.59.55,3.1,1.32,3.93,2.92.76,1.46,2.16,3.06,1.18,4.61-.93,1.48-2.57.13-3.89-.07-4.2-.62-1.81,2.99-2.82,4.42-1.61.07-1.64-1.42-2.18-2.33-.75-1.26-1.55-2.63-2.98-2.88-4.71-.84-7.42-4.98-11.59-6.72-2.78-1.17-3.36-3.83-2.88-6.57.71-4.06,5.23-7.46,9.42-7.28Z"/>
    <path class="cls-2" d="M459.95,337.92c4.85.15,9.95,1.21,13.48-3.64.19-.26.93-.11,1.41-.15.16,2.06-.95,3.42-2.64,4.24-3.04,1.48-6.41,1.69-9.69,1.99-1.21.11-2.93-.35-2.57-2.44Z"/>
    <path class="cls-2" d="M502.12,310.08c-1.21,2.9.7,6.43-1.81,9.07-1.75-2.51-.71-7.72,1.81-9.07Z"/>
    <path class="cls-2" d="M130.66,396.96c-3.89-.16-7.15,2.72-11.08,2.34,1.99-2.28,4.84-3.08,7.51-4,1.23-.42,3.2-.64,3.57,1.65Z"/>
    <path class="cls-2" d="M115.72,401.74c-2.02,1.97-4.55,2.56-7.25,2.69,1.87-2.39,4.39-2.98,7.25-2.69Z"/>
    <path class="cls-2" d="M119.53,399.32c-.06.61-.36.72-.86.42.11-.51.39-.66.86-.42Z"/>
    <path class="cls-2" d="M117.46,400.52c0,.5-.25.7-.74.57-.06-.58.2-.76.74-.57Z"/>
    <path class="cls-2" d="M485.63,323.09c-.08-.48.13-.74.6-.82.09.49-.12.75-.6.82Z"/>
    <path class="cls-2" d="M487.06,321.19c-.09-.4.07-.58.48-.55.2.5,0,.64-.48.55Z"/>
    <path class="cls-2" d="M487.82,320.37c-.06-.41.12-.59.53-.54.2.55-.05.66-.53.54Z"/>
    <path class="cls-2" d="M486.31,322.14c-.1-.44.06-.69.53-.72.15.48-.06.69-.53.72Z"/>
    <path class="cls-2" d="M407.62,160.95c.3-1.65,1.28-2.13,2.82-1.65-.26,1.71-1.12,2.4-2.82,1.65Z"/>
    <path class="cls-2" d="M411.97,158.3c-.58-1.09-.59-2.1.42-2.97,1.72,1.35,1.62,2.11-.42,2.97Z"/>
    <path class="cls-2" d="M412.05,154.98c-1.12,1.12-2.35,1.11-3.65.35,1.11-1.25,2.24-2.26,3.65-.35Z"/>
  </g>
</svg>