<?xml version="1.0" encoding="UTF-8"?>
<svg id="Layer_2" data-name="Layer 2" xmlns="http://www.w3.org/2000/svg" viewBox="0 0 619 448.12">
  <defs>
    <style>
      .cls-1 {
        fill: #9bc987;
      }

      .cls-1, .cls-2, .cls-3 {
        stroke-width: 0px;
      }

      .cls-2 {
        fill: #dc7030;
      }

      .cls-3 {
        fill: #244489;
      }
    </style>
  </defs>
  <g id="Layer_1-2" data-name="Layer 1">
    <g>
      <path class="cls-3" d="M1,304.32c5.64-.09,11.27-.22,16.91-.22,1.36,0,3.21-.98,3.96.95.67,1.71-.3,3.17-1.38,4.53-3.72,4.62-7.4,9.27-11.72,14.7,4.12,0,7.36-.02,10.59,0,1.16,0,2.45-.03,2.6,1.6.14,1.54-.83,2.1-2.16,2.01-6.26-.39-12.57.8-18.8-.62,0-1,0-2,0-2.99,4.42-5.31,8.84-10.61,14.13-16.96H1c0-1,0-2,0-2.99Z"/>
      <path class="cls-3" d="M619,438.02c-1.65.12-3.3.25-4.96.35-1.46.09-3.35-.19-3.04,2.1.27,2.02,2.1,1.9,3.54,1.65,1.03-.18,1.97-.92,3.2-1.53.6,3.07-1.51,3.51-3.33,3.89-2.51.52-5.53.57-6.78-1.76-1.75-3.25-1.95-7.23.09-10.44,1.79-2.8,5.1-1.45,7.85-1.38,2.11.05,1.97,2.43,3.43,3.12v3.99ZM614.67,434.96c-.16-1.19-.75-2.19-2.01-2.31-1.08-.1-1.75.71-1.93,1.76-.24,1.41.5,2.15,1.86,2.18,1.05.02,1.84-.47,2.08-1.63Z"/>
      <path class="cls-3" d="M212.73,247.21c-5.06-.17-11-2-16.08-6.21-4.71-3.9-5.17-7.14-1.29-11.94,6.84-8.45,14.77-15.83,23.5-22.27,38.93-28.69,82.35-47.81,128.97-60.1,32.86-8.67,66.43-13.78,99.8-19.95,21.26-3.93,42.53-7.87,63.73-12.13,10.19-2.05,19.45-6.77,28.41-11.89,5.21-2.97,8.27-7.8,8.47-13.88.14-4.27,1.72-4.54,5.17-3.06,4.12,1.77,8.33,3.45,12.66,4.54,4.02,1.01,5.29,3.53,5.6,7.13.61,7.07-1.8,12.99-6.65,18.1-11.42,12.03-25.83,18.27-41.65,22.19-42.8,10.6-86.34,17.76-129.25,27.82-56.2,13.17-109.45,33.1-156.61,67.21-3.38,2.44-6.92,4.74-9.4,8.13-3.5,4.79-8.36,6.29-15.4,6.3Z"/>
      <path class="cls-3" d="M468.11,77.01c5.84.26,10.75,1.9,14.33,6.43,4.92,6.22,3.26,12.74-4.21,15.47-8.47,3.09-17.38,4.52-26.26,5.78-43.98,6.23-87.99,12.25-130.95,24.02-48.3,13.24-94.06,32.02-134.86,61.63-12.01,8.72-23.03,18.6-33.82,28.76-7.37,6.94-14.14,7.88-22.86,3.8-8.14-3.81-9.95-9.52-4.78-16.84,6.27-8.88,14.09-16.4,22.35-23.4,41.05-34.8,88.34-57.55,139.96-71.89,36.43-10.12,73.69-16.31,110.84-22.98,22.28-4,44.64-7.4,67.08-10.34,1.15-.15,2.3-.32,3.18-.44Z"/>
      <path class="cls-3" d="M598.87,117.31c2.32,7.47,5.81,13.74,3.12,21.36-1.39,3.93,1.44,6.45,6.81,7.51-.7,1.95-2.64,2.44-4.1,3.38-25.3,16.41-53.31,25.9-82.41,33.11-39.86,9.87-79.91,19.03-119.27,30.81-33.23,9.95-64.31,24.38-92,45.6-7.18,5.5-15.39,6.05-23.66,2.64-8.24-3.4-9.8-10.07-3.65-16.54,9.36-9.85,20.56-17.4,32.34-24.02,33.2-18.65,69.07-30.07,106-38.58,35.49-8.17,71.38-14.56,106.58-23.98,16.46-4.41,32.19-10.7,46.65-19.82,4.5-2.83,8.82-5.97,13.05-9.18,4.15-3.14,7.12-7.4,10.53-12.29Z"/>
      <path class="cls-2" d="M127.84,156.55c-6.34.12-10.57-2.74-12.7-7.92-2.19-5.32-1.37-10.14,2.83-14.15,10.41-9.93,22.24-18.01,34.49-25.43,37.28-22.58,77.97-36.25,120.42-45.09,18.08-3.76,36.26-6.98,54.58-9.41,4.01-.53,7.94-.38,11.93.1,3.47.42,6.52.93,7.81,4.89,1.47,4.5,2.03,8.79-1.36,12.66-3.31,3.78-7.64,5.64-12.51,6.69-26.81,5.81-53.93,10.16-80.38,17.7-39.71,11.31-76.92,27.73-110.34,52.23-4.8,3.52-9.61,7.23-14.79,7.72Z"/>
      <path class="cls-1" d="M492.45,322.78c-9.53,8.6-16.23,19.22-21.94,30.55-.87,1.73-.26,4.87-3.56,4.48-3.09-.36-5.76-1.62-7.04-4.81-1.09-2.73-1.05-5.53-.47-8.33,1.31-6.41,3.97-12.3,7-18.05.6-1.13,1.61-2.15,1.33-3.65-1.18-1.01-1.82.09-2.41.73-8.14,8.88-15.49,18.32-19.81,29.69-1.31,3.45-2.99,5.4-6.86,4.88-4.09-.54-6.88-2.67-7.6-6.74-.42-2.4-.08-4.94-.08-7.39-1.75-.39-2.15,1.01-2.9,1.75-5.25,5.18-9.81,4.95-13.93-1.16-1.72-2.55-2.69-2.67-4.63-.34-2.86,3.45-5.96,6.71-9.07,9.95-2.51,2.61-5.1,2.97-8.39.76-6.88-4.62-10.67-10.35-8.22-19.13-4.86,5.09-9.11,10.36-14.55,14.54-6.79,5.23-14.39,6.89-22.6,5.52-10.22-1.71-15.15-9.52-13.82-21.13,1.85-16.1,12.67-29.99,25.66-32.93,9.35-2.12,17.41,5.66,15.51,14.92-2.42,11.83-10.46,18.41-21.03,22.74-2.29.93-5.74,1.14-4.75,5.08.92,3.67,3.57,4.94,7.19,4.67,8.99-.68,14.68-6.88,20.07-12.82,6.58-7.24,12.36-15.22,18.24-23.07,4.22-5.64,9.83-8.79,16.47-10.42,5.39-1.32,14.64,4.91,15.4,10.32.06.44-.02,1.09-.31,1.35-.83.75-1.46.02-2.11-.48-5.97-4.59-6.15-4.72-10.71,1.21-6.11,7.95-11.13,16.54-13.54,26.39-.31,1.25-2.01,2.98.03,3.9,1.48.67,2.7-.91,3.74-1.95,4.63-4.6,8.7-9.58,11.01-15.82.97-2.63,2.12-5.25,3.61-7.62,2.7-4.31,4.92-4.58,7.97-.48,1.46,1.96,1.63,1.6,2.67.09.52-.76,1.21-1.9,2.35-1.29,1.03.55.77,1.82.45,2.69-1.25,3.42-2.61,6.81-3.97,10.19-1.07,2.69-2.83,5.19-2.42,8.79,3.64-1.77,5.28-4.96,7.23-7.65,6.41-8.86,13.71-17.08,19.24-26.59,1.74-3,4.07-6.24,8.3-3.05,1.94,1.47,2.99,3.02,1.53,5.89-3.56,7.03-7.49,13.95-10.09,22.46,4.46-2.93,6.13-7.05,8.95-10.13,6.32-6.91,13.11-13.17,20.93-18.39,2.93-1.96,5.14-1.54,7.69.29,2.83,2.03,1.62,4.29.59,6.62-1.47,3.33-3.77,6.3-4.2,10.06-1.44.68-1.88,1.87-1.69,3.37-.14.2-.29.39-.43.59.18-.16.37-.31.55-.47,1.39-.46,1.85-1.6,2.14-2.87,4.17-3.81,8.25-7.72,12.55-11.38,2.23-1.9,4.28-5.1,8.05-2.14,4.14,3.25,6.05,7.65,4.35,11.63-3.26,7.64-6.78,15.17-8.91,23.23-.34,1.28-.68,2.58-.86,3.89-.34,2.44-1.16,5.25,1.56,6.75,2.58,1.43,4.54-.77,6.06-2.3,7.91-7.98,13.67-17.52,19.21-27.2,1.07-1.87,2.07-3.8,3.33-5.54,1.15-1.59,3.08-1.62,4.52-.78,1.61.94.22,2.51-.26,3.48-5.8,11.8-11.85,23.48-20.73,33.35-6.89,7.65-16.58,8.99-25.21,3.55-3.72-2.35-5.02-5.94-4.43-10.34,1.14-8.42,5.34-15.64,8.84-23.15.54-.44.96-1.17.4-1.6-.75-.57-.91.4-1.22.86ZM349.89,321.18c-1.85,1.62-2.93,3.6-2.86,6.11-.69.27-1.16.6-.39,1.3.1-.45.21-.91.31-1.36,1.98-1.36,2.75-3.43,3.32-5.62.75-.37,1.34-.86,1.34-1.78,0-.12-.22-.35-.31-.34-.94.15-1.24.88-1.41,1.69ZM350.55,333.95c8.83-4.1,16.23-9.53,18.64-19.67.42-1.77.59-3.34-1.11-4.39-1.65-1.02-2.95.21-3.92,1.23-6.18,6.54-11.18,13.83-13.62,22.83ZM398.49,326.19c-2.72,3.26-4.93,6.63-4.14,11.7,1.56-4.41,2.85-8.06,4.14-11.7ZM352.47,318.14l.18-.36-.31-.02.13.39Z"/>
      <path class="cls-1" d="M179.11,297.34c-3.12-2.6-2.95-5.08-.57-8.39,18.05-25.1,42.53-38.86,73.33-40.34,17.89-.86,29.36,11.36,30.3,29.31,2.04,39-29.51,84.33-64.89,93.62-10.14,2.66-20.24,3.96-30.51,1.02-10.89-3.11-15.49-10.05-14.63-22.22.42-6.01,2.27-11.71,4.59-17.25.59-1.4,1.32-2.88,3.16-2.64,1.57.2,1.8,1.71,2.32,2.93.85,1.98.57,3.83-.1,5.8-1.01,2.97-2.09,5.92-2.26,9.15-.63,11.66,4.14,15.88,15.79,13.95,1.9-.31,2.9-.89,2.03-2.83-7.66-16.96-3-33.56,1.63-50.08,2.96-10.54,6.17-21.07,11.01-30.93,1.28-2.6,1.75-9.53,7.7-3.7.78.77,1.33-.58,2.03-.85,3.11-1.18,6.15-.39,8.38,1.61,2.32,2.08-.13,4.3-1.06,6.25-8.69,18.3-18.11,36.28-23.67,55.9-1.36,4.8-2.62,9.66-2.61,14.65.01,6.82,2.82,8.7,8.91,6.08,32.13-13.81,55.58-45.9,54.12-81.28-.65-15.67-9.37-22.51-24.83-19.25-22.84,4.82-40.68,17.47-55.38,35.08-1.27,1.52-2.66,2.94-3.99,4.4-.26.21-.53.21-.79,0ZM259.02,334.28c-.24.16-.98.08-.32.66.09-.24.18-.47.28-.71.69.03.95-.38,1.01-.99,1.13-.58,1.85-1.34,1.57-2.9-1.48.78-1.76,1.75-1.54,2.93-.74-.06-.96.38-1,1ZM265.98,322.26c1.18-.25,1.07-1.13.99-2,1.85-.73,1.94-2.35,2-3.98.27-.36.54-.72.81-1.08-.19-.09-.38-.19-.57-.28-.05.48-.1.95-.15,1.43-1.68.81-2.02,2.3-2.03,3.96-.92.37-1.04,1.14-1.01,1.99-.92.37-1.05,1.14-1.01,1.99-1.55,1.19-2.54,2.64-2.59,5.15,1.92-1.65,2.74-3.18,2.59-5.15,1.14-.28,1.08-1.14.98-2.02ZM270.96,311.26c4-7.33,5.58-15.22,5.72-23.43-.59,1.71-.87,3.49-1.28,5.25-1.43,6.09-2.91,12.17-4.36,18.25-.28.35-.56.7-.84,1.04.19.11.37.23.56.34.07-.48.14-.97.21-1.45Z"/>
      <path class="cls-3" d="M388.85,272.68c-5.07-.99-9.71-1.62-13.83-3.99-6.3-3.63-6.73-8.62-.76-12.85,13.09-9.28,27.11-16.83,42.54-21.52,10.49-3.19,21.03-6.26,31.6-9.17,5.17-1.42,8.73.68,10.6,5.66,2.18,5.82,1.52,8.97-3.66,11.16-20.36,8.63-40.4,17.9-59.87,28.38-2.15,1.16-4.66,1.65-6.61,2.32Z"/>
      <path class="cls-1" d="M290,329.29c3.21-.59,4.13-2.73,5.41-4.28,7.03-8.53,15.11-15.9,24.41-21.88,4.08-2.62,7.71.59,11.2,1.91,3.03,1.15,1.69,4.17,1.02,6.58-2.59,9.38-7.5,17.31-14.78,23.8-2.14,1.91-4.41,3.49-7.24,4.23-3.72.98-8.28-1.77-8.73-5.43-.17-1.37,1.13-1.93,1.89-2.74,3.68-3.88,6.56-8.2,8.28-14.64-6.89,5.49-11.48,11.46-16.03,17.41-4.55,5.95-8.69,12.21-11.55,19.17-1.24,3.01-2.06,6.11-6.38,5.41-5.09-.83-8.19-3.79-8.5-8.31-.31-4.58.91-8.92,2.57-13.09,4.76-11.99,12.39-22.35,19.21-33.16,1.54-2.45,3.74-2.7,6.03-1.25,2.34,1.5,4.14,3.19,2.46,6.53-3.17,6.3-6.02,12.76-9.27,19.74Z"/>
      <path class="cls-2" d="M194.97,17.99c4.28,7.2,11.51,13.03,10.44,22.69-.44,3.92-1.19,7.25-5.64,9.09-4.36,1.8-8.09,5.13-13.16,5.24,1.61,4.88,5.19,4.04,7.61,1.96,3.03-2.61,7.02-3.68,9.74-7.55-.68,6.68-.82,6.54-3.5,8.94-3.02,2.7-6.17,4.46-10.34,3.27-2.36-.68-4.76,2.89-7.4-.48-.84-1.07-3.2-.18-2.57-3.42.24-1.24-4.19-3.22-6.25-5.12-2.18-2-4.31-2.37-6.83-.84-.24.15-.65.03-.98.03-.18-.2-.5-.58-.52-.56-.54.39-.31.69.15.96-.03,1.42.81,3.07-.84,4.1-1.33.83-2.23-.36-3.01-1.03-1.62-1.39-3.66-3.04-2.52-5.37.66-1.35.98-1.95.08-3.3-1-1.49-1.52-3.08,1.67-2.68,2.48.31,1.92-2.05,2.13-3.58.64-4.75.97-9.56,4.7-13.29,1.07-1.07,2.58-3.19.86-4.21-1.97-1.18-1.24,2.4-2.88,3.02.31-5.14,1.82-6.31,5.95-4.99,2.66.85,5.24-.1,7.85-.43,4.25-.54,8.45-2.09,12.81-.71,1.67.53,2.47-.16,2.55-1.84l-.08.1Z"/>
      <path class="cls-3" d="M55.5,315.4c0-3.47-1.16-7.58.3-10.25,1.72-3.13,6.07-.2,9.25-.85,5.26-1.07,10.47.84,15.99-.16,5.88-1.07,8.23,2.13,8.37,8.33.09,3.98-.07,7.97.05,11.95.08,2.49-.74,3.67-3.42,3.59-2.41-.07-3.83-.86-3.83-3.44,0-4.15-.02-8.3-.04-12.45,0-2.15-.39-4.17-3.13-4.11-2.66.06-3.09,2.03-3.08,4.21.01,4.15-.09,8.3.04,12.45.07,2.35-.83,3.35-3.17,3.3-2.22-.05-3.94-.42-3.88-3.25.08-3.98.02-7.97-.04-11.95-.03-2.22-.18-4.65-3.12-4.76-3.03-.12-3.26,2.35-3.32,4.54-.11,3.98-.09,7.97-.02,11.95.04,2.13-.43,3.55-2.98,3.49-2.22-.05-4.08-.43-4.14-3.13-.07-3.15-.02-6.31-.02-9.46.06,0,.13,0,.19,0Z"/>
      <path class="cls-2" d="M211.68,58.1c-2.34-.18-4.43-1.78-6.53.54,4.08-2.71.09-11.71,8.71-10.3.07.3.18.6.18.9-.03,1.87-4.12,4.11-.88,5.1,2.09.64,4.28-3.38,5.87-5.72.86-1.26.74-3.19,1.04-4.83.19-1.05.56-1.98,1.81-1.96,1.22.03,1.75.94,1.78,2.01.14,4.32.21,8.64.28,12.96.02,1.09-.36,1.9-1.65,2.04-.79.09-2.25.37-2.25.57-.02,8.15-10.27,3.7-11.95,9.69-8.21.37-14.9,9.85-24.02,4.18-2.71-1.68-4.41,1.95-6.79.7-.14-2.73,4.7-2.11,3.39-5.17-1-2.34-4.34-1.35-5.84-3.4,3.7-1.87,6.87-1.2,10.59.42,7.33,3.2,20.59-.92,26.25-7.74Z"/>
      <path class="cls-3" d="M95.75,312.74c0-3.98.06-7.96-.02-11.94-.04-2.18.52-3.44,3.05-3.38,2.27.06,4.29.51,3.97,3.17-.51,4.25,1.54,4.11,4.81,3.8,5.74-.54,7.9,1.5,8.59,7.11.16,1.32.34,2.64.37,3.96.28,10.64-1.48,12.42-12.16,12.43q-8.61,0-8.61-8.69c0-2.16,0-4.31,0-6.47ZM102.79,316.81s-.06,0-.09,0c0,1.15-.06,2.31.01,3.45.13,1.82-.73,4.37,2.45,4.32,2.47-.04,4.02-1.49,4.07-4.04.07-3.28.01-6.57-.1-9.85-.07-1.99-1.44-3.02-3.25-2.96-1.81.06-3.04,1.18-3.08,3.16-.04,1.97,0,3.94,0,5.92Z"/>
      <path class="cls-3" d="M122.96,316.22c0-1.83-.1-3.67.04-5.48.09-1.12.36-2.32.89-3.31,1.75-3.28,11.07-4.84,15.63-2.7,3.16,1.48,5.24,7.74,3.92,11.47-.5,1.41-1.53,1.59-2.74,1.6-2.33.02-4.66.02-7,.02-1.78,0-3.89-.55-3.79,2.42.08,2.64,1.47,3.93,4.05,4.06,2.34.12,4.15-.9,5.69-2.58.88-.96,2.03-1.37,3.06-.35.83.82.31,1.9-.1,2.77-.35.74-.75,1.62-1.4,2.02-4.63,2.85-9.69,2.26-14.45.88-3.87-1.12-3.97-4.89-3.85-8.34.03-.83,0-1.66,0-2.49.02,0,.04,0,.05,0ZM132.6,314.31c2.04-.03,4.24.32,3.94-2.53-.21-1.99-.84-4.22-3.36-4.19-2.38.03-3.18,1.93-3.41,4.11-.25,2.44,1.16,2.77,2.82,2.61Z"/>
      <path class="cls-3" d="M48.67,317.97c0,2.97,1.07,6.61-.27,8.75-1.66,2.65-5.51.04-8.39.58-1.78.33-3.64.58-5.43.44-4.16-.33-6.38-2.97-6.28-6.93.09-3.68,2.23-6.16,6.18-6.52,1.15-.1,2.32-.04,3.48-.08,1.57-.05,3.58.56,3.77-1.97.16-2.21-.62-3.84-3.06-4.36-2.39-.52-4.68-.72-6.26,1.6-.81,1.2-1.73,2.32-3.17,1.37-1.85-1.22-.3-2.7.24-3.88.72-1.55,2.11-2.65,3.9-2.7,3.31-.1,6.66-.31,9.93.08,3.69.44,5.22,3.25,5.49,6.68.18,2.3.03,4.63.03,6.95-.06,0-.11,0-.17,0ZM38.97,324.31c2-.41,2.89-1.94,3-4.18.09-1.88-.7-2.9-2.62-2.63-2.01.29-4.15.81-4.22,3.36-.05,2.11,1.31,3.28,3.84,3.44Z"/>
      <path class="cls-1" d="M471.2,388.37c-.75,2.98,1.96,7.33-.5,9.96-2.51,2.68-6.94.44-10.53.77-6.81.63-9.12-1.69-9.27-8.39-.08-3.65.05-7.3-.07-10.95-.09-2.71.5-4.52,3.74-4.5,3.08.02,3.46,1.88,3.44,4.29-.04,3.82,0,7.63,0,11.45,0,2.17.39,4.13,3.11,4.14,2.8,0,3.02-2.08,3.04-4.18.02-3.82.07-7.63,0-11.45-.05-2.53.64-4.1,3.57-4.2,3.05-.11,3.63,1.46,3.51,4.02-.12,2.81-.03,5.64-.03,9.05Z"/>
      <path class="cls-1" d="M423.91,387.28c0-1.66,0-3.32,0-4.98,0-1.35.21-2.63.95-3.81,1.85-2.98,8.47-4.32,13.9-2.8,3.74,1.04,5.48,3.45,5.35,7.33-.1,2.99.06,5.98-.04,8.97-.18,5.08-2.23,7.04-7.46,7.23-1.5.06-3,.04-4.5.01-6.16-.1-8.1-1.98-8.23-7.96-.03-1.33,0-2.66,0-3.99h.04ZM437.08,387.97c0-2.34.07-4.01-.02-5.66-.11-1.91-1.07-3.12-3.13-3.09-2.05.03-3,1.18-3.05,3.14-.04,1.66-.24,3.34-.01,4.97.42,2.98-1.87,8.06,2.83,8.19,5.26.15,2.71-5.22,3.37-7.55Z"/>
      <path class="cls-3" d="M162.79,307.56c-4.3,0-7.42,0-10.55,0-1.19,0-2.53-.01-2.61-1.59-.1-1.92,1.38-1.91,2.76-1.91,4.65.01,9.3-.03,13.95.03,1.23.02,2.86-.74,3.57.84.66,1.46.1,2.89-.9,4.14-3.32,4.14-6.62,8.29-9.91,12.45-.48.61-.86,1.3-1.81,2.74,3.77,0,6.83-.03,9.89.01,1.27.02,2.88-.25,2.84,1.79-.04,1.98-1.64,1.79-2.91,1.8-4.48.05-8.97.08-13.45,0-1.35-.02-3.15.91-3.89-1.11-.57-1.56.17-2.89,1.14-4.1,3.1-3.89,6.21-7.77,9.3-11.67.59-.75,1.15-1.53,2.57-3.43Z"/>
      <path class="cls-1" d="M507.09,399.26c-3.57-.14-6.41.22-8.07-2.52-.75-1.23-1.77-2.79-.23-4.02,1.32-1.06,2.46-.07,3.34,1.05.75.96,1.65,1.64,2.95,1.55,1.03-.07,1.99-.38,2.51-1.35.6-1.11-.06-1.97-.87-2.54-1.76-1.24-3.63-2.32-5.41-3.54-2.36-1.61-3.78-3.72-3.24-6.73.57-3.19,2.76-4.97,5.69-5.55,3.6-.72,7.41-1.14,10.04,2.32.8,1.05,2.09,2.67.38,3.92-1.21.88-2.52.29-3.32-1.1-.52-.9-1.34-1.46-2.42-1.55-1.25-.1-2.33.25-2.97,1.39-.61,1.11.06,1.95.85,2.57,1.17.92,2.38,1.82,3.7,2.51,3.55,1.87,6.03,4.38,4.85,8.7-1.2,4.4-4.73,5.11-7.75,4.87Z"/>
      <path class="cls-1" d="M477.2,387.45c0-2.49-.05-4.98,0-7.47.09-4.29,3.08-6.51,6.29-4.08,2.12,1.61,3.1,1.05,4.84.18,1.81-.9,3.91-1.42,5.66,0,1.48,1.2,1.04,3.13.69,4.68-.62,2.8-3.1,2.03-4.94,1.98-3.67-.11-5.15,1.49-4.89,5.1.17,2.31-.11,4.65.06,6.96.22,3.03-.57,4.57-4.07,4.53-3.4-.04-3.79-1.76-3.68-4.41.11-2.48.02-4.98.02-7.47Z"/>
      <path class="cls-1" d="M410.9,369.1c1.68-.09,3.29.35,3.06,2.96-.14,1.61.33,2.81,1.93,3.64,1.17.6,1.32,1.75.5,2.95-3.31,4.84-3.49,12.34-.34,16.87.61.87,1.11,1.69.68,2.71-.49,1.15-1.6.93-2.57.98-4.24.22-6.91-2.03-7.25-6.38-.2-2.64-.09-5.31-.12-7.96-.01-1,.39-2.51-.1-2.9-4.35-3.5-1.39-6.6-.1-10.21.86-2.4,2.02-2.62,4.3-2.65Z"/>
      <path class="cls-3" d="M359.59,430.75c1.53.2,2.68.48,3.84.47,7.97-.06,10.44,3.23,8.55,11.28-.28,1.19-.8,1.76-1.9,1.83-1.36.09-2.23-.47-2.23-1.97,0-2.16.05-4.32-.05-6.47-.06-1.31-.15-2.89-2.05-2.77-1.52.1-1.63,1.44-1.66,2.62-.05,2.16-.07,4.32-.02,6.47.03,1.47-.63,2.13-2.06,2.13-1.43,0-2.11-.65-2.07-2.12.05-1.99.06-3.99,0-5.98-.03-1.29.16-3.03-1.64-3.11-2.17-.1-1.97,1.85-2.05,3.27-.1,1.82-.06,3.65,0,5.48.05,1.6-.49,2.57-2.27,2.44-1.45-.11-1.95-.9-1.92-2.31.07-2.99.06-5.98.01-8.97-.03-1.7.73-2.38,2.41-2.31,1.82.08,3.65.02,5.1.02Z"/>
      <path class="cls-3" d="M183.87,315.94c0,2.83-.12,5.66.04,8.48.14,2.58-.93,3.6-3.46,3.65-2.49.05-3.7-.86-3.68-3.46.05-5.82.01-11.64-.07-17.46-.03-2.01.56-3.16,2.82-3.04,2.04.11,4.21-.12,4.24,2.85.03,2.99,0,5.98,0,8.98.03,0,.06,0,.1,0Z"/>
      <path class="cls-3" d="M408.7,435.62c-.36,3.71,1.35,8.42-5.08,8.75-6.96.36-6.96.47-6.96-6.69,0-1.32,0-2.64,0-3.96,0-6.66,2.5-8.58,8.87-6.54,4.48,1.44,2.6,5.44,3.17,8.44ZM400.39,435.7c.88,2.22-1.3,6.18,1.85,6.35,3.92.21,2.44-3.99,2.42-6.26-.02-2.28,1.55-6.49-2.15-6.43-3.91.07-.92,4.3-2.12,6.35Z"/>
      <path class="cls-3" d="M293.75,435.42c0-.66-.09-1.33.01-1.98.43-2.76-1.88-6.89,4.17-6.57,6.98.37,7.67.62,7.77,7.04.02,1.32.03,2.64,0,3.96-.12,5.5-5.66,8.76-10.75,6.41-1.47-.68-1.15-1.85-1.18-2.92-.07-1.98-.02-3.96-.02-5.95ZM301.86,435.92s-.03,0-.04,0c0-1.32.03-2.64,0-3.95-.04-1.64-.55-3.04-2.53-2.88-2.05.17-1.38,1.91-1.44,3.07-.1,1.81-.22,3.67.11,5.42.3,1.6-1.52,4.6,1.76,4.53,2.82-.05,1.97-2.86,2.15-4.71.05-.49,0-.99,0-1.48Z"/>
      <path class="cls-3" d="M337.11,433.91c.58-3.41,3.43-3.42,5.87-3.47,2.34-.05,4.97.47,5.39,3.32.43,2.91,1.04,6.2.13,8.82-1.32,3.8-5.16,1.11-7.83,1.55-2.17.36-3.7-1.22-3.79-3.62-.09-2.71,1.67-3.66,3.99-4.21,1.29-.31,4.11.86,3.22-2.05-.68-2.22-2.86-1.66-4.57-.74-.68.37-1.19,1.23-2.4.41Z"/>
      <path class="cls-3" d="M556.04,439.19c0-.66-.07-1.33,0-1.98.26-2.04-1.09-5.04.86-5.94,2.58-1.19,5.99-1.23,8.7-.07,3.8,1.63,2.09,5.43,2.33,8.37.19,2.37-.7,4.23-3.39,4.61-1.91.27-4.14-.07-4.52,2.75-.19,1.4-1.35,1.18-2.31,1.14-1.62-.07-1.68-1.26-1.68-2.46,0-2.14,0-4.29,0-6.43ZM559.93,437.6c1.04,1.21-1.4,4.18,1.68,4.63,2.64.39,2.63-2.1,2.34-3.87-.3-1.84,1.58-4.9-1.81-5.23-2.85-.27-1.83,2.48-2.21,4.48Z"/>
      <path class="cls-3" d="M591.33,437.58c.02,5.39-1.41,7.15-5.79,7.14-4.58,0-6.12-1.74-6.17-6.91-.05-5.84,1.09-7.16,6.18-7.1,4.96.06,5.76,1.01,5.78,6.87ZM587.49,437.56c-.45-1.67.85-4.57-2.18-4.5-2.54.06-1.85,2.79-1.84,4.38.01,1.72-.86,4.66,2.16,4.55,2.57-.09,1.46-2.79,1.86-4.44Z"/>
      <path class="cls-3" d="M490.22,440.65c-1.25,4.45-4.28,3.86-7.26,3.72-3.16-.15-4.29-1.83-4.6-4.72-.8-7.43,2.62-10.84,8.87-8.68,2.33.81,3.43,2.59,3.51,4.93.07,2.26-1.52,2.5-3.39,2.6-1.49.08-3.46-.96-4.39,1.14-.34.76-.15,1.86.66,2.18,1.8.72,3.57.67,4.96-1.03.13-.16.59-.06,1.64-.14ZM486.24,434.57c-.16-1.07-.6-1.93-1.85-1.83-1.41.11-2.04,1.19-1.97,2.37.06,1.12,1.11,1.54,2.19,1.46,1.19-.09,1.71-.82,1.63-1.99Z"/>
      <path class="cls-3" d="M333.03,441.02c-1.38,4.05-4.49,3.81-7.66,3.42-3.08-.38-4.01-2.36-4.17-5.21-.42-7.36,3.22-10.64,9.26-8.28,2.59,1.01,2.7,3.09,2.7,5.3,0,2.66-2.07,1.99-3.6,2.21-1.38.2-3.15-.63-3.89,1.26-.18.47.08,1.45.47,1.76,1.46,1.12,3.04,1.17,4.52-.07.49-.41.91-.99,2.37-.37ZM327.27,436.58c1.24-.17,1.83-.78,1.75-2.02-.07-1.18-.67-1.94-1.81-1.87-1.34.08-2.14.98-2.04,2.34.1,1.24,1.11,1.49,2.1,1.55Z"/>
      <path class="cls-3" d="M549.99,444.57c-1.91-.14-2-1.43-1.97-2.85.03-1.37,0-2.84-1.96-2.72-1.59.1-1.73,1.39-1.64,2.57.17,2.22-.77,3.26-2.92,2.62-2.1-.63-1.6-2.51-.9-3.7,1.12-1.92,1.77-3.41.14-5.5-.92-1.18-1.44-3.36.8-4.15,2.27-.8,2.86.76,2.93,2.72.04,1.14.09,2.55,1.7,2.55,1.92,0,1.9-1.54,1.83-2.88-.1-2,.93-2.8,2.73-2.47,1.9.35,1.8,2.26,1.26,3.18-1.54,2.6-1.05,4.86.01,7.43.57,1.39-.03,3-2.01,3.21Z"/>
      <path class="cls-3" d="M459.06,438.31c.5,3.9-1.1,6.24-5.8,6.1-5.13-.15-6.07-1.34-6.24-7.26-.12-4.33,1.59-6.66,5.98-6.75,4.7-.1,6.1,1.67,6.06,7.92ZM455.2,437.22c-.95-1.29,1.17-4.43-2.29-4.25-2.63.14-1.87,2.71-1.81,4.34.06,1.74-1.05,4.62,1.95,4.67,3.19.05,1.41-2.95,2.15-4.76Z"/>
      <path class="cls-3" d="M462.97,436.66c.97-1.69-1.81-5.71,1.92-5.73,4.16-.03,1.41,4.11,2.14,6.28.25.74.02,1.64.05,2.47.03,1.14-.1,2.44,1.66,2.39,1.5-.04,1.98-1.11,2.03-2.33.09-2.14.07-4.3.03-6.44-.02-1.52.37-2.59,2.17-2.56,1.86.03,1.92,1.23,2.05,2.67.63,6.98-1.57,10.31-6.94,10.96-6.7.81-4.85-3.93-5.11-7.7Z"/>
      <path class="cls-3" d="M536.61,427.93c-1.49,2.43-4.98-.73-5.77,3.02-.76,3.57,2.64,2.97,4.07,4.47-1.39,1.5-4.21.81-4.14,4.12.1,4.75,4.68,1.15,5.81,3.95-2.68,1.6-5.6.72-8.37.69-1.65-.02-1.33-1.6-1.35-2.69-.04-2.48-.02-4.96-.02-7.44,0-7.88,1.39-8.78,9.77-6.12Z"/>
      <path class="cls-3" d="M429.42,434.11c-.31.11-.64.36-.91.29-1.25-.3-2.43-2.71-3.65-.65-.85,1.42,1.11,2.11,2.17,2.75,2.17,1.33,3.81,2.93,2.43,5.62-1.58,3.05-4.46,2.31-7.03,1.89-1.36-.22-2.71-1.38-2.06-2.77.87-1.85,1.8,0,2.64.47.82.46,1.82.57,2.18-.23.8-1.8-1.04-2.11-2.01-2.77-1.82-1.25-3.73-2.39-2.93-5.08.53-1.77,1.85-2.68,3.64-2.92,2.45-.33,4.67-.09,5.82,2.53.09.21-.17.57-.27.87Z"/>
      <path class="cls-3" d="M309.48,437.3c0-1.33,0-2.65,0-3.98,0-2.1.96-3.38,3.05-2.48,1.54.66,2.79.36,4.2.01,1.18-.29,2.46-.31,2.73,1.26.22,1.29-.37,2.6-1.73,2.49-4.19-.34-3.86,2.4-3.97,5.13-.07,1.72,1.24,4.53-2.05,4.56-3.29.03-1.95-2.75-2.14-4.51-.09-.82-.02-1.66-.02-2.49-.02,0-.05,0-.07,0Z"/>
      <path class="cls-3" d="M443.58,434.06c-2.42.7-4.05-2.81-5.33-.12-1.06,2.22-1.11,5.07.03,7.26,1.35,2.61,2.89-.91,4.74-.43.23,3.34-2.19,3.74-4.43,3.73-2.44-.02-4.98-.86-4.7-3.92.31-3.31-2.22-7.72,2.69-9.55,2.7-1.01,5.46-.77,7,3.03Z"/>
      <path class="cls-3" d="M571.51,435.43c0-1.99,0-3.97,0-5.96,0-1.51.44-2.56,2.27-2.48,1.51.07,2.01.9,2.01,2.24,0,4.3-.02,8.61.02,12.91.01,1.43-.63,2.15-2.03,2.22-1.75.09-2.31-.9-2.3-2.48.03-2.15,0-4.3.01-6.45Z"/>
      <path class="cls-3" d="M493.97,437.9c0-1.16.05-2.32-.01-3.47-.16-2.77.32-4.95,3.78-3.22,2.03,1.01,5.05-2.49,5.92.74,1.02,3.75-3.22,2.07-4.73,3.35-1.47,1.23-.69,3.09-.96,4.67-.27,1.57,1.13,4.13-1.79,4.28-3.43.17-1.86-2.71-2.19-4.37-.13-.64-.02-1.32-.02-1.98Z"/>
      <path class="cls-3" d="M594.97,437.58c0-1.33.04-2.66,0-3.98-.06-2,.45-3.42,2.83-2.5,1.55.6,2.93,0,4.39-.21,1.17-.18,2.41-.35,2.67,1.33.22,1.4-.46,2.49-1.79,2.43-3.99-.2-4.05,2.28-4.09,5.18-.02,1.67,1.32,4.59-2.09,4.44-3.3-.15-1.43-3.04-1.88-4.69-.17-.62-.03-1.32-.03-1.98Z"/>
      <path class="cls-3" d="M513.64,445.97v-20.87c.34,0,.67-.02,1.01-.02v20.87c-.34,0-.67.02-1.01.02Z"/>
      <path class="cls-3" d="M383.65,445.9v-20.77c.32,0,.64-.01.97-.02v20.77c-.32,0-.64.01-.97.02Z"/>
      <path class="cls-3" d="M411.61,437.61c1.53-2.33-1.66-6.69,2.61-6.57,3.99.11,1.76,4.28,1.77,6.47,0,2.21,2.19,6.44-1.7,6.51-4.62.08-.7-4.62-2.68-6.41Z"/>
      <path class="cls-2" d="M218.44,26.59c-.18-.8-.48-1.6-.49-2.4-.02-1.22-2.17-3.05.36-3.52,1.78-.33,2.08,1.9,2.23,3.26.24,2.2,1.69,4.43.21,6.64-.61.91-1.38,2.15-2.69,1.63-1.5-.59-1-1.79-.34-2.85.53-.84,1-1.71.72-2.76Z"/>
      <path class="cls-2" d="M166.7,58.08c6.58-3.83,8.34,1.14,11.22,4.68-4.58.13-7.71-2.08-11.22-4.68Z"/>
      <path class="cls-2" d="M160.97,6.76c2.78-1.21,5.53-2.48,8.35-3.59.77-.31,2.76-.3,2.27.48-1.69,2.67,3.7,2.18,1.74,4.43-1.55,1.77-2.36-.18-3.58-.79-2.83-1.4-5.66.96-8.78-.53Z"/>
      <path class="cls-3" d="M179.11,297.34c.26.22.52.22.79,0,1.43.38,3.6-.5,3.85,1.96.15,1.5-1.01,2.02-2.27,1.85-1.51-.21-3.51.98-4.43-.93-.84-1.74.18-2.76,2.06-2.89Z"/>
      <path class="cls-2" d="M214.24,15.63c0,.17.1.4.02.48-.31.32-.86.9-.97.83-2.18-1.35-4.35-2.72-6.41-4.23-.54-.4-.34-1.26.34-1.67,1.09-.66,1.88-.03,2.59.73,1.34,1.44,3.66,1.76,4.43,3.86Z"/>
      <path class="cls-2" d="M195.05,17.89c-4.12.34-5.96-3.34-8.88-5.1,3.69.43,6.76,1.93,8.8,5.19,0,0,.08-.1.08-.1Z"/>
    </g>
  </g>
</svg>